%TF.GenerationSoftware,KiCad,Pcbnew,7.0.6*%
%TF.CreationDate,2023-11-27T13:38:28-05:00*%
%TF.ProjectId,AudioAdder,41756469-6f41-4646-9465-722e6b696361,2*%
%TF.SameCoordinates,Original*%
%TF.FileFunction,Copper,L1,Top*%
%TF.FilePolarity,Positive*%
%FSLAX46Y46*%
G04 Gerber Fmt 4.6, Leading zero omitted, Abs format (unit mm)*
G04 Created by KiCad (PCBNEW 7.0.6) date 2023-11-27 13:38:28*
%MOMM*%
%LPD*%
G01*
G04 APERTURE LIST*
%TA.AperFunction,ComponentPad*%
%ADD10R,1.700000X1.700000*%
%TD*%
%TA.AperFunction,ComponentPad*%
%ADD11O,1.700000X1.700000*%
%TD*%
%TA.AperFunction,SMDPad,CuDef*%
%ADD12R,1.200000X2.500000*%
%TD*%
%TA.AperFunction,ViaPad*%
%ADD13C,0.800000*%
%TD*%
%TA.AperFunction,Conductor*%
%ADD14C,0.250000*%
%TD*%
G04 APERTURE END LIST*
D10*
%TO.P,REF\u002A\u002A,1*%
%TO.N,Ground*%
X165490000Y-87830000D03*
D11*
%TO.P,REF\u002A\u002A,2*%
%TO.N,Microphone*%
X162950000Y-87830000D03*
%TO.P,REF\u002A\u002A,3*%
%TO.N,Right Ch.*%
X160410000Y-87830000D03*
%TO.P,REF\u002A\u002A,4*%
%TO.N,Left Ch.*%
X157870000Y-87830000D03*
%TD*%
D10*
%TO.P,REF\u002A\u002A,1*%
%TO.N,Ground*%
X165100000Y-116332000D03*
D11*
%TO.P,REF\u002A\u002A,2*%
%TO.N,Microphone*%
X162560000Y-116332000D03*
%TO.P,REF\u002A\u002A,3*%
%TO.N,Right Ch.*%
X160020000Y-116332000D03*
%TO.P,REF\u002A\u002A,4*%
%TO.N,Left Ch.*%
X157480000Y-116332000D03*
%TD*%
D12*
%TO.P,J2,R1*%
%TO.N,Right Ch.*%
X160425008Y-109915530D03*
%TO.P,J2,R2*%
%TO.N,Microphone*%
X163425008Y-109915530D03*
%TO.P,J2,S*%
%TO.N,Ground*%
X155325008Y-103415530D03*
%TO.P,J2,T*%
%TO.N,Left Ch.*%
X156425008Y-109915530D03*
%TD*%
D10*
%TO.P,Header 1,1*%
%TO.N,Ground*%
X139700000Y-116332000D03*
D11*
%TO.P,Header 1,2*%
%TO.N,Microphone*%
X142240000Y-116332000D03*
%TO.P,Header 1,3*%
%TO.N,Right Ch.*%
X144780000Y-116332000D03*
%TO.P,Header 1,4*%
%TO.N,Left Ch.*%
X147320000Y-116332000D03*
%TD*%
D12*
%TO.P,J1,R1*%
%TO.N,Right Ch.*%
X160430000Y-99820000D03*
%TO.P,J1,R2*%
%TO.N,Microphone*%
X163430000Y-99820000D03*
%TO.P,J1,S*%
%TO.N,Ground*%
X155330000Y-93320000D03*
%TO.P,J1,T*%
%TO.N,Left Ch.*%
X156430000Y-99820000D03*
%TD*%
%TO.P,J3,R1*%
%TO.N,Right Ch.*%
X144575000Y-103430000D03*
%TO.P,J3,R2*%
%TO.N,Microphone*%
X141575000Y-103430000D03*
%TO.P,J3,S*%
%TO.N,Ground*%
X149675000Y-109930000D03*
%TO.P,J3,T*%
%TO.N,Left Ch.*%
X148575000Y-103430000D03*
%TD*%
%TO.P,J4,R1*%
%TO.N,Right Ch.*%
X144570000Y-93330000D03*
%TO.P,J4,R2*%
%TO.N,Microphone*%
X141570000Y-93330000D03*
%TO.P,J4,S*%
%TO.N,Ground*%
X149670000Y-99830000D03*
%TO.P,J4,T*%
%TO.N,Left Ch.*%
X148570000Y-93330000D03*
%TD*%
D10*
%TO.P,REF\u002A\u002A,1*%
%TO.N,Ground*%
X139770000Y-87830000D03*
D11*
%TO.P,REF\u002A\u002A,2*%
%TO.N,Microphone*%
X142310000Y-87830000D03*
%TO.P,REF\u002A\u002A,3*%
%TO.N,Right Ch.*%
X144850000Y-87830000D03*
%TO.P,REF\u002A\u002A,4*%
%TO.N,Left Ch.*%
X147390000Y-87830000D03*
%TD*%
D13*
%TO.N,Right Ch.*%
X160020000Y-91440000D03*
X144780000Y-91440000D03*
%TO.N,Microphone*%
X162560000Y-106680000D03*
X142240000Y-96520000D03*
X142240000Y-100330000D03*
X142300000Y-112500000D03*
X163500000Y-112500000D03*
X162560000Y-102870000D03*
%TO.N,Left Ch.*%
X148590000Y-95250000D03*
X157480000Y-102870000D03*
X148590000Y-105410000D03*
X156210000Y-95250000D03*
X147320000Y-109220000D03*
X156210000Y-106680000D03*
%TD*%
D14*
%TO.N,Right Ch.*%
X160430000Y-92139913D02*
X160430000Y-99820000D01*
X160425008Y-109915530D02*
X160425008Y-99824992D01*
X160528000Y-109977798D02*
X160528000Y-113432789D01*
X160514000Y-109944000D02*
X160500000Y-109930000D01*
X144705000Y-103505000D02*
X144630000Y-103430000D01*
X144850000Y-91320502D02*
X144850000Y-87830000D01*
X144780000Y-91440000D02*
X144815000Y-91405000D01*
X160410000Y-90774228D02*
X160410000Y-87830000D01*
X160225000Y-91645000D02*
X160020000Y-91440000D01*
X144780000Y-103686066D02*
X144780000Y-116332000D01*
X144575000Y-93338535D02*
X144575000Y-103430000D01*
X160020000Y-114659210D02*
X160020000Y-116332000D01*
X160215000Y-91245000D02*
X160020000Y-91440000D01*
X144570000Y-93326464D02*
X144570000Y-91650000D01*
X160528000Y-109977798D02*
G75*
G03*
X160514000Y-109944000I-47800J-2D01*
G01*
X144780014Y-103686066D02*
G75*
G03*
X144705000Y-103505000I-256114J-34D01*
G01*
X144814999Y-91404999D02*
G75*
G03*
X144850000Y-91320502I-84499J84499D01*
G01*
X160273997Y-114045997D02*
G75*
G03*
X160020000Y-114659210I613203J-613203D01*
G01*
X160214992Y-91244992D02*
G75*
G03*
X160410000Y-90774228I-470792J470792D01*
G01*
X160274003Y-114046003D02*
G75*
G03*
X160528000Y-113432789I-613203J613203D01*
G01*
X144574985Y-93338535D02*
G75*
G03*
X144572500Y-93332500I-8485J35D01*
G01*
X160429994Y-92139913D02*
G75*
G03*
X160225000Y-91645000I-699894J13D01*
G01*
X144570015Y-93326464D02*
G75*
G03*
X144572500Y-93332500I8485J-36D01*
G01*
%TO.N,Microphone*%
X163425008Y-108156661D02*
X163425008Y-109915530D01*
X141570000Y-89093259D02*
X141570000Y-93330000D01*
X142240000Y-109651335D02*
X142240000Y-112397573D01*
X162950000Y-94307070D02*
X162950000Y-87830000D01*
X142240000Y-96520000D02*
X141905000Y-96185000D01*
X163195944Y-113664055D02*
X163030000Y-113830000D01*
X162560000Y-102870000D02*
X162995000Y-102435000D01*
X162560000Y-114964680D02*
X162560000Y-116332000D01*
X163500000Y-112500000D02*
X163500000Y-112930000D01*
X141575000Y-101465226D02*
X141575000Y-103430000D01*
X141907500Y-100662500D02*
X142240000Y-100330000D01*
X141570000Y-95376238D02*
X141570000Y-93330000D01*
X162992504Y-107112504D02*
X162560000Y-106680000D01*
X141630000Y-108178664D02*
X141630000Y-103430000D01*
X163430000Y-95465893D02*
X163430000Y-99820000D01*
X163430000Y-101384817D02*
X163430000Y-99820000D01*
X163500000Y-112500000D02*
X163500000Y-109930000D01*
X141940000Y-88200000D02*
X142310000Y-87830000D01*
X142240000Y-112602426D02*
X142240000Y-116332000D01*
X142270000Y-112470000D02*
X142300000Y-112500000D01*
X142300000Y-112500000D02*
X142270000Y-112530000D01*
X163430008Y-95465893D02*
G75*
G03*
X163190000Y-94886482I-819408J-7D01*
G01*
X162950018Y-94307070D02*
G75*
G03*
X163190000Y-94886482I819382J-30D01*
G01*
X141630015Y-108178664D02*
G75*
G03*
X141935000Y-108915000I1041285J-36D01*
G01*
X163030006Y-113830006D02*
G75*
G03*
X162560000Y-114964680I1134694J-1134694D01*
G01*
X142269992Y-112529992D02*
G75*
G03*
X142240000Y-112602426I72408J-72408D01*
G01*
X163195942Y-113664053D02*
G75*
G03*
X163500000Y-112930000I-734042J734053D01*
G01*
X163425021Y-108156661D02*
G75*
G03*
X162992503Y-107112505I-1476721J-39D01*
G01*
X141569985Y-95376238D02*
G75*
G03*
X141905001Y-96184999I1143815J38D01*
G01*
X141907492Y-100662492D02*
G75*
G03*
X141575000Y-101465226I802708J-802708D01*
G01*
X142240011Y-112397573D02*
G75*
G03*
X142270000Y-112470000I102389J-27D01*
G01*
X141940033Y-88200033D02*
G75*
G03*
X141570000Y-89093259I893167J-893267D01*
G01*
X142239985Y-109651335D02*
G75*
G03*
X141935000Y-108915000I-1041285J35D01*
G01*
X162994995Y-102434995D02*
G75*
G03*
X163430000Y-101384817I-1050195J1050195D01*
G01*
%TO.N,Ground*%
X149730000Y-109100000D02*
X149730000Y-109930000D01*
X155400000Y-104260000D02*
X155400000Y-103430000D01*
%TO.N,Left Ch.*%
X157480000Y-114992964D02*
X157480000Y-116332000D01*
X156430000Y-95625563D02*
X156430000Y-99820000D01*
X156500000Y-112627035D02*
X156500000Y-109930000D01*
X156430000Y-101077537D02*
X156430000Y-99820000D01*
X148575000Y-103430000D02*
X148575000Y-95275606D01*
X156210000Y-95250000D02*
X156320000Y-95360000D01*
X147980000Y-88420000D02*
X147390000Y-87830000D01*
X147320000Y-109220000D02*
X147320000Y-116332000D01*
X148575000Y-103430000D02*
X149492500Y-103430000D01*
X156210000Y-95250000D02*
X157558873Y-93901126D01*
X148590000Y-93364142D02*
X148590000Y-95250000D01*
X148570000Y-89844386D02*
X148570000Y-93315857D01*
X156425008Y-107047041D02*
X156425008Y-109915530D01*
X157870000Y-91830000D02*
X157870000Y-92710000D01*
X151058770Y-102781229D02*
X153167936Y-100672063D01*
X157870000Y-93150000D02*
X157870000Y-92710000D01*
X148582500Y-95257500D02*
X148590000Y-95250000D01*
X156210000Y-106680000D02*
X156317504Y-106787504D01*
X156955000Y-102345000D02*
X157480000Y-102870000D01*
X148575000Y-103430000D02*
X148575000Y-105395000D01*
X157870000Y-91830000D02*
X157870000Y-87830000D01*
X155225000Y-99820000D02*
X156430000Y-99820000D01*
X156499986Y-112627035D02*
G75*
G03*
X156990000Y-113810000I1673014J35D01*
G01*
X148570005Y-89844386D02*
G75*
G03*
X147979999Y-88420001I-2014405J-14D01*
G01*
X157558883Y-93901136D02*
G75*
G03*
X157870000Y-93150000I-751183J751136D01*
G01*
X156424988Y-107047041D02*
G75*
G03*
X156317504Y-106787504I-366988J41D01*
G01*
X157480014Y-114992964D02*
G75*
G03*
X156990000Y-113810000I-1673014J-36D01*
G01*
X155225000Y-99819992D02*
G75*
G03*
X153167937Y-100672064I0J-2909108D01*
G01*
X148582498Y-95257498D02*
G75*
G03*
X148575000Y-95275606I18102J-18102D01*
G01*
X148570018Y-93315857D02*
G75*
G03*
X148580000Y-93340000I34082J-43D01*
G01*
X149492500Y-103429981D02*
G75*
G03*
X151058769Y-102781228I0J2215081D01*
G01*
X156429985Y-101077537D02*
G75*
G03*
X156955000Y-102345000I1792515J37D01*
G01*
X148589982Y-93364142D02*
G75*
G03*
X148580000Y-93340000I-34082J42D01*
G01*
X156430015Y-95625563D02*
G75*
G03*
X156320000Y-95360000I-375615J-37D01*
G01*
%TD*%
%TA.AperFunction,Conductor*%
%TO.N,Ground*%
G36*
X168853039Y-85617685D02*
G01*
X168898794Y-85670489D01*
X168910000Y-85722000D01*
X168910000Y-118240000D01*
X168890315Y-118307039D01*
X168837511Y-118352794D01*
X168786000Y-118364000D01*
X136268000Y-118364000D01*
X136200961Y-118344315D01*
X136155206Y-118291511D01*
X136144000Y-118240000D01*
X136144000Y-88727844D01*
X138420000Y-88727844D01*
X138426401Y-88787372D01*
X138426403Y-88787379D01*
X138476645Y-88922086D01*
X138476649Y-88922093D01*
X138562809Y-89037187D01*
X138562812Y-89037190D01*
X138677906Y-89123350D01*
X138677913Y-89123354D01*
X138812620Y-89173596D01*
X138812627Y-89173598D01*
X138872155Y-89179999D01*
X138872172Y-89180000D01*
X139520000Y-89180000D01*
X139520000Y-88265501D01*
X139627685Y-88314680D01*
X139734237Y-88330000D01*
X139805763Y-88330000D01*
X139912315Y-88314680D01*
X140020000Y-88265501D01*
X140020000Y-89180000D01*
X140667828Y-89180000D01*
X140667844Y-89179999D01*
X140727372Y-89173598D01*
X140727376Y-89173597D01*
X140777166Y-89155027D01*
X140846858Y-89150043D01*
X140908181Y-89183528D01*
X140941666Y-89244851D01*
X140944500Y-89271209D01*
X140944500Y-91469235D01*
X140924815Y-91536274D01*
X140872011Y-91582029D01*
X140863834Y-91585417D01*
X140727669Y-91636203D01*
X140727664Y-91636206D01*
X140612455Y-91722452D01*
X140612452Y-91722455D01*
X140526206Y-91837664D01*
X140526202Y-91837671D01*
X140475908Y-91972517D01*
X140470572Y-92022155D01*
X140469501Y-92032123D01*
X140469500Y-92032135D01*
X140469500Y-94627870D01*
X140469501Y-94627876D01*
X140475908Y-94687483D01*
X140526202Y-94822328D01*
X140526206Y-94822335D01*
X140612452Y-94937544D01*
X140612455Y-94937547D01*
X140727664Y-95023793D01*
X140727671Y-95023797D01*
X140863833Y-95074582D01*
X140919767Y-95116453D01*
X140944184Y-95181917D01*
X140944500Y-95190764D01*
X140944500Y-95296759D01*
X140944498Y-95296797D01*
X140944498Y-95324884D01*
X140944483Y-95324935D01*
X140944488Y-95492220D01*
X140974767Y-95722163D01*
X141031048Y-95932185D01*
X141029387Y-96002034D01*
X140990226Y-96059898D01*
X140925998Y-96087404D01*
X140857096Y-96075819D01*
X140806043Y-96029873D01*
X140765252Y-95964429D01*
X140625059Y-95816947D01*
X140508542Y-95735849D01*
X140458050Y-95700705D01*
X140271056Y-95620459D01*
X140071741Y-95579500D01*
X139919258Y-95579500D01*
X139919257Y-95579500D01*
X139767560Y-95594925D01*
X139573420Y-95655837D01*
X139573405Y-95655844D01*
X139395500Y-95754589D01*
X139395495Y-95754592D01*
X139241106Y-95887132D01*
X139241104Y-95887134D01*
X139116554Y-96048037D01*
X139116553Y-96048040D01*
X139026940Y-96230728D01*
X138975937Y-96427714D01*
X138965631Y-96630936D01*
X138996442Y-96832063D01*
X138996445Y-96832075D01*
X139067111Y-97022881D01*
X139067115Y-97022888D01*
X139174745Y-97195567D01*
X139174747Y-97195569D01*
X139174748Y-97195571D01*
X139314941Y-97343053D01*
X139426213Y-97420500D01*
X139481949Y-97459294D01*
X139481950Y-97459294D01*
X139481951Y-97459295D01*
X139668942Y-97539540D01*
X139868259Y-97580500D01*
X140020743Y-97580500D01*
X140172439Y-97565074D01*
X140366579Y-97504162D01*
X140366580Y-97504161D01*
X140366588Y-97504159D01*
X140544502Y-97405409D01*
X140698895Y-97272866D01*
X140823448Y-97111958D01*
X140913060Y-96929271D01*
X140964063Y-96732285D01*
X140974369Y-96529064D01*
X140943556Y-96327929D01*
X140943555Y-96327927D01*
X140943519Y-96327689D01*
X140952825Y-96258442D01*
X140998091Y-96205219D01*
X141064946Y-96184917D01*
X141132164Y-96203983D01*
X141173475Y-96246911D01*
X141239517Y-96361296D01*
X141239519Y-96361300D01*
X141309003Y-96451851D01*
X141333949Y-96514376D01*
X141334540Y-96519999D01*
X141334540Y-96520000D01*
X141354326Y-96708256D01*
X141354327Y-96708259D01*
X141412818Y-96888277D01*
X141412821Y-96888284D01*
X141507467Y-97052216D01*
X141561260Y-97111959D01*
X141634129Y-97192888D01*
X141787265Y-97304148D01*
X141787270Y-97304151D01*
X141960192Y-97381142D01*
X141960197Y-97381144D01*
X142145354Y-97420500D01*
X142145355Y-97420500D01*
X142334644Y-97420500D01*
X142334646Y-97420500D01*
X142519803Y-97381144D01*
X142692730Y-97304151D01*
X142845871Y-97192888D01*
X142972533Y-97052216D01*
X143067179Y-96888284D01*
X143125674Y-96708256D01*
X143145460Y-96520000D01*
X143125674Y-96331744D01*
X143067179Y-96151716D01*
X142972533Y-95987784D01*
X142845871Y-95847112D01*
X142845870Y-95847111D01*
X142692734Y-95735851D01*
X142692729Y-95735848D01*
X142519807Y-95658857D01*
X142519802Y-95658855D01*
X142334644Y-95619499D01*
X142328178Y-95618820D01*
X142328478Y-95615958D01*
X142273501Y-95599815D01*
X142227746Y-95547011D01*
X142221881Y-95531500D01*
X142208993Y-95489020D01*
X142204250Y-95465182D01*
X142199376Y-95415711D01*
X142195799Y-95379397D01*
X142195500Y-95373315D01*
X142195500Y-95190764D01*
X142215185Y-95123725D01*
X142267989Y-95077970D01*
X142276167Y-95074582D01*
X142411521Y-95024098D01*
X142412331Y-95023796D01*
X142527546Y-94937546D01*
X142613796Y-94822331D01*
X142664091Y-94687483D01*
X142670500Y-94627873D01*
X142670499Y-92032128D01*
X142664091Y-91972517D01*
X142660402Y-91962627D01*
X142613797Y-91837671D01*
X142613793Y-91837664D01*
X142527547Y-91722455D01*
X142527544Y-91722452D01*
X142412335Y-91636206D01*
X142412330Y-91636203D01*
X142276166Y-91585417D01*
X142220233Y-91543545D01*
X142195816Y-91478081D01*
X142195500Y-91469235D01*
X142195500Y-89309301D01*
X142215185Y-89242262D01*
X142267989Y-89196507D01*
X142308693Y-89185773D01*
X142309997Y-89185658D01*
X142310000Y-89185659D01*
X142545408Y-89165063D01*
X142773663Y-89103903D01*
X142987830Y-89004035D01*
X143181401Y-88868495D01*
X143348495Y-88701401D01*
X143478424Y-88515842D01*
X143533002Y-88472217D01*
X143602500Y-88465023D01*
X143664855Y-88496546D01*
X143681575Y-88515842D01*
X143811500Y-88701395D01*
X143811505Y-88701401D01*
X143978599Y-88868495D01*
X144171624Y-89003653D01*
X144215248Y-89058228D01*
X144224500Y-89105226D01*
X144224500Y-90667334D01*
X144204815Y-90734373D01*
X144178487Y-90762251D01*
X144178953Y-90762769D01*
X144174123Y-90767116D01*
X144047466Y-90907785D01*
X143952821Y-91071715D01*
X143952818Y-91071722D01*
X143894327Y-91251740D01*
X143894326Y-91251744D01*
X143882883Y-91360620D01*
X143874540Y-91440000D01*
X143878799Y-91480527D01*
X143866229Y-91549257D01*
X143818496Y-91600280D01*
X143798811Y-91609669D01*
X143727671Y-91636202D01*
X143727664Y-91636206D01*
X143612455Y-91722452D01*
X143612452Y-91722455D01*
X143526206Y-91837664D01*
X143526202Y-91837671D01*
X143475908Y-91972517D01*
X143470572Y-92022155D01*
X143469501Y-92032123D01*
X143469500Y-92032135D01*
X143469500Y-94627870D01*
X143469501Y-94627876D01*
X143475908Y-94687483D01*
X143526202Y-94822328D01*
X143526206Y-94822335D01*
X143612452Y-94937544D01*
X143612455Y-94937547D01*
X143727664Y-95023793D01*
X143727673Y-95023798D01*
X143811431Y-95055037D01*
X143862517Y-95074091D01*
X143862518Y-95074091D01*
X143868832Y-95076446D01*
X143924766Y-95118316D01*
X143949184Y-95183781D01*
X143949500Y-95192628D01*
X143949500Y-101569235D01*
X143929815Y-101636274D01*
X143877011Y-101682029D01*
X143868834Y-101685417D01*
X143732669Y-101736203D01*
X143732664Y-101736206D01*
X143617455Y-101822452D01*
X143617452Y-101822455D01*
X143531206Y-101937664D01*
X143531202Y-101937671D01*
X143480908Y-102072517D01*
X143474501Y-102132116D01*
X143474501Y-102132123D01*
X143474500Y-102132135D01*
X143474500Y-104727870D01*
X143474501Y-104727876D01*
X143480908Y-104787483D01*
X143531202Y-104922328D01*
X143531206Y-104922335D01*
X143617452Y-105037544D01*
X143617455Y-105037547D01*
X143732664Y-105123793D01*
X143732671Y-105123797D01*
X143744498Y-105128208D01*
X143867517Y-105174091D01*
X143927127Y-105180500D01*
X144030500Y-105180499D01*
X144097538Y-105200183D01*
X144143294Y-105252986D01*
X144154500Y-105304499D01*
X144154500Y-115056773D01*
X144134815Y-115123812D01*
X144101623Y-115158348D01*
X143908597Y-115293505D01*
X143741505Y-115460597D01*
X143611575Y-115646158D01*
X143556998Y-115689783D01*
X143487500Y-115696977D01*
X143425145Y-115665454D01*
X143408425Y-115646158D01*
X143278494Y-115460597D01*
X143111402Y-115293506D01*
X143111401Y-115293505D01*
X142918376Y-115158347D01*
X142874751Y-115103770D01*
X142865500Y-115056772D01*
X142865500Y-113264446D01*
X142885185Y-113197407D01*
X142901747Y-113177921D01*
X142901522Y-113177718D01*
X142910573Y-113167666D01*
X143032533Y-113032216D01*
X143127179Y-112868284D01*
X143185674Y-112688256D01*
X143205460Y-112500000D01*
X143185674Y-112311744D01*
X143127179Y-112131716D01*
X143032533Y-111967784D01*
X142905871Y-111827112D01*
X142901523Y-111822283D01*
X142902592Y-111821319D01*
X142869877Y-111768207D01*
X142865500Y-111735553D01*
X142865500Y-109610266D01*
X142865486Y-109609822D01*
X142865488Y-109542105D01*
X142836974Y-109325470D01*
X142780426Y-109114411D01*
X142696812Y-108912539D01*
X142587562Y-108723309D01*
X142587560Y-108723306D01*
X142587556Y-108723300D01*
X142506494Y-108617658D01*
X142454547Y-108549958D01*
X142454544Y-108549955D01*
X142454540Y-108549950D01*
X142435348Y-108530758D01*
X142435341Y-108530750D01*
X142431000Y-108526409D01*
X142379451Y-108474861D01*
X142375373Y-108470361D01*
X142333330Y-108419131D01*
X142319825Y-108398918D01*
X142292919Y-108348578D01*
X142283617Y-108326120D01*
X142267047Y-108271492D01*
X142262305Y-108247649D01*
X142261222Y-108236649D01*
X142255797Y-108181550D01*
X142255500Y-108175488D01*
X142255500Y-108166213D01*
X142255503Y-108102736D01*
X142255501Y-108102731D01*
X142255502Y-108099156D01*
X142255500Y-108099105D01*
X142255500Y-105270250D01*
X142275185Y-105203211D01*
X142327989Y-105157456D01*
X142336168Y-105154068D01*
X142417326Y-105123798D01*
X142417326Y-105123797D01*
X142417331Y-105123796D01*
X142532546Y-105037546D01*
X142618796Y-104922331D01*
X142669091Y-104787483D01*
X142675500Y-104727873D01*
X142675499Y-102132128D01*
X142669091Y-102072517D01*
X142663732Y-102058150D01*
X142618797Y-101937671D01*
X142618793Y-101937664D01*
X142532547Y-101822455D01*
X142532544Y-101822452D01*
X142417335Y-101736206D01*
X142417330Y-101736203D01*
X142281166Y-101685417D01*
X142225233Y-101643545D01*
X142200816Y-101578081D01*
X142200500Y-101569235D01*
X142200500Y-101544922D01*
X142200501Y-101544891D01*
X142200500Y-101541165D01*
X142200502Y-101541161D01*
X142200500Y-101468256D01*
X142200799Y-101462177D01*
X142209095Y-101377925D01*
X142213835Y-101354087D01*
X142224699Y-101318271D01*
X142262996Y-101259834D01*
X142326807Y-101231377D01*
X142330395Y-101230947D01*
X142334643Y-101230500D01*
X142334646Y-101230500D01*
X142519803Y-101191144D01*
X142692730Y-101114151D01*
X142845871Y-101002888D01*
X142972533Y-100862216D01*
X143067179Y-100698284D01*
X143125674Y-100518256D01*
X143145460Y-100330000D01*
X143125674Y-100141744D01*
X143067179Y-99961716D01*
X142972533Y-99797784D01*
X142845871Y-99657112D01*
X142845870Y-99657111D01*
X142692734Y-99545851D01*
X142692729Y-99545848D01*
X142519807Y-99468857D01*
X142519802Y-99468855D01*
X142374001Y-99437865D01*
X142334646Y-99429500D01*
X142145354Y-99429500D01*
X142112897Y-99436398D01*
X141960197Y-99468855D01*
X141960192Y-99468857D01*
X141787270Y-99545848D01*
X141787265Y-99545851D01*
X141634129Y-99657111D01*
X141507466Y-99797785D01*
X141412821Y-99961715D01*
X141412818Y-99961722D01*
X141365620Y-100106984D01*
X141354326Y-100141744D01*
X141334540Y-100330000D01*
X141333861Y-100336463D01*
X141330865Y-100336148D01*
X141314855Y-100390674D01*
X141308917Y-100399120D01*
X141243089Y-100484910D01*
X141243075Y-100484931D01*
X141127687Y-100684792D01*
X141127679Y-100684808D01*
X141039352Y-100898054D01*
X140979619Y-101120997D01*
X140979618Y-101121001D01*
X140949498Y-101349822D01*
X140949497Y-101349842D01*
X140949500Y-101448119D01*
X140949500Y-101569235D01*
X140929815Y-101636274D01*
X140877011Y-101682029D01*
X140868834Y-101685417D01*
X140732669Y-101736203D01*
X140732664Y-101736206D01*
X140617455Y-101822452D01*
X140617452Y-101822455D01*
X140531206Y-101937664D01*
X140531202Y-101937671D01*
X140480908Y-102072517D01*
X140474501Y-102132116D01*
X140474501Y-102132123D01*
X140474500Y-102132135D01*
X140474500Y-104727870D01*
X140474501Y-104727876D01*
X140480908Y-104787483D01*
X140531202Y-104922328D01*
X140531206Y-104922335D01*
X140617452Y-105037544D01*
X140617455Y-105037547D01*
X140732664Y-105123793D01*
X140732671Y-105123797D01*
X140744498Y-105128208D01*
X140867517Y-105174091D01*
X140893758Y-105176912D01*
X140958306Y-105203649D01*
X140998154Y-105261041D01*
X141004500Y-105300201D01*
X141004500Y-106006884D01*
X140984815Y-106073923D01*
X140932011Y-106119678D01*
X140862853Y-106129622D01*
X140799297Y-106100597D01*
X140775269Y-106072477D01*
X140770254Y-106064432D01*
X140770250Y-106064427D01*
X140630061Y-105916949D01*
X140630060Y-105916948D01*
X140630059Y-105916947D01*
X140489129Y-105818857D01*
X140463050Y-105800705D01*
X140276056Y-105720459D01*
X140076741Y-105679500D01*
X139924258Y-105679500D01*
X139924257Y-105679500D01*
X139772560Y-105694925D01*
X139578420Y-105755837D01*
X139578405Y-105755844D01*
X139400500Y-105854589D01*
X139400495Y-105854592D01*
X139246106Y-105987132D01*
X139246104Y-105987134D01*
X139121554Y-106148037D01*
X139121553Y-106148040D01*
X139031940Y-106330728D01*
X138980937Y-106527714D01*
X138970631Y-106730936D01*
X139001442Y-106932063D01*
X139001445Y-106932075D01*
X139072111Y-107122881D01*
X139072113Y-107122884D01*
X139072114Y-107122887D01*
X139118005Y-107196513D01*
X139179745Y-107295567D01*
X139179749Y-107295572D01*
X139281828Y-107402959D01*
X139319941Y-107443053D01*
X139420480Y-107513030D01*
X139486949Y-107559294D01*
X139486950Y-107559294D01*
X139486951Y-107559295D01*
X139673942Y-107639540D01*
X139873259Y-107680500D01*
X140025743Y-107680500D01*
X140177439Y-107665074D01*
X140371579Y-107604162D01*
X140371580Y-107604161D01*
X140371588Y-107604159D01*
X140549502Y-107505409D01*
X140703895Y-107372866D01*
X140782443Y-107271390D01*
X140839045Y-107230426D01*
X140908808Y-107226566D01*
X140969584Y-107261035D01*
X141002075Y-107322890D01*
X141004500Y-107347291D01*
X141004500Y-108219746D01*
X141004512Y-108220184D01*
X141004511Y-108287889D01*
X141033025Y-108504526D01*
X141033026Y-108504529D01*
X141089574Y-108715588D01*
X141145960Y-108851722D01*
X141173190Y-108917465D01*
X141282436Y-109106688D01*
X141282443Y-109106699D01*
X141415455Y-109280044D01*
X141415457Y-109280047D01*
X141425900Y-109290489D01*
X141436350Y-109300939D01*
X141436365Y-109300956D01*
X141490537Y-109355127D01*
X141494626Y-109359638D01*
X141536667Y-109410865D01*
X141550174Y-109431079D01*
X141577082Y-109481423D01*
X141586384Y-109503882D01*
X141602953Y-109558508D01*
X141607694Y-109582350D01*
X141614201Y-109648430D01*
X141614499Y-109654509D01*
X141614498Y-109730992D01*
X141614500Y-109731024D01*
X141614500Y-111867949D01*
X141594815Y-111934988D01*
X141582651Y-111950920D01*
X141567468Y-111967782D01*
X141567464Y-111967787D01*
X141472821Y-112131715D01*
X141472818Y-112131722D01*
X141414327Y-112311740D01*
X141414326Y-112311744D01*
X141394540Y-112500000D01*
X141414326Y-112688256D01*
X141414327Y-112688259D01*
X141472818Y-112868277D01*
X141472821Y-112868284D01*
X141567467Y-113032216D01*
X141582649Y-113049077D01*
X141612879Y-113112068D01*
X141614500Y-113132050D01*
X141614500Y-115056773D01*
X141594815Y-115123812D01*
X141561623Y-115158348D01*
X141368597Y-115293505D01*
X141201505Y-115460597D01*
X141065965Y-115654169D01*
X141065964Y-115654171D01*
X140966098Y-115868335D01*
X140966094Y-115868344D01*
X140904938Y-116096586D01*
X140904936Y-116096596D01*
X140884341Y-116331999D01*
X140884341Y-116332000D01*
X140904936Y-116567403D01*
X140904938Y-116567413D01*
X140966094Y-116795655D01*
X140966096Y-116795659D01*
X140966097Y-116795663D01*
X141046004Y-116967023D01*
X141065965Y-117009830D01*
X141065967Y-117009834D01*
X141174281Y-117164521D01*
X141201505Y-117203401D01*
X141368599Y-117370495D01*
X141445135Y-117424086D01*
X141562165Y-117506032D01*
X141562167Y-117506033D01*
X141562170Y-117506035D01*
X141776337Y-117605903D01*
X142004592Y-117667063D01*
X142175319Y-117682000D01*
X142239999Y-117687659D01*
X142240000Y-117687659D01*
X142240001Y-117687659D01*
X142304681Y-117682000D01*
X142475408Y-117667063D01*
X142703663Y-117605903D01*
X142917830Y-117506035D01*
X143111401Y-117370495D01*
X143278495Y-117203401D01*
X143408424Y-117017842D01*
X143463002Y-116974217D01*
X143532500Y-116967023D01*
X143594855Y-116998546D01*
X143611575Y-117017842D01*
X143741500Y-117203395D01*
X143741505Y-117203401D01*
X143908599Y-117370495D01*
X143985135Y-117424086D01*
X144102165Y-117506032D01*
X144102167Y-117506033D01*
X144102170Y-117506035D01*
X144316337Y-117605903D01*
X144544592Y-117667063D01*
X144715319Y-117682000D01*
X144779999Y-117687659D01*
X144780000Y-117687659D01*
X144780001Y-117687659D01*
X144844681Y-117682000D01*
X145015408Y-117667063D01*
X145243663Y-117605903D01*
X145457830Y-117506035D01*
X145651401Y-117370495D01*
X145818495Y-117203401D01*
X145948424Y-117017842D01*
X146003002Y-116974217D01*
X146072500Y-116967023D01*
X146134855Y-116998546D01*
X146151575Y-117017842D01*
X146281500Y-117203395D01*
X146281505Y-117203401D01*
X146448599Y-117370495D01*
X146525135Y-117424086D01*
X146642165Y-117506032D01*
X146642167Y-117506033D01*
X146642170Y-117506035D01*
X146856337Y-117605903D01*
X147084592Y-117667063D01*
X147255319Y-117682000D01*
X147319999Y-117687659D01*
X147320000Y-117687659D01*
X147320001Y-117687659D01*
X147384681Y-117682000D01*
X147555408Y-117667063D01*
X147783663Y-117605903D01*
X147997830Y-117506035D01*
X148191401Y-117370495D01*
X148358495Y-117203401D01*
X148494035Y-117009830D01*
X148593903Y-116795663D01*
X148655063Y-116567408D01*
X148675659Y-116332000D01*
X148655063Y-116096592D01*
X148593903Y-115868337D01*
X148494035Y-115654171D01*
X148488425Y-115646158D01*
X148358494Y-115460597D01*
X148191402Y-115293506D01*
X148191401Y-115293505D01*
X147998376Y-115158347D01*
X147954751Y-115103770D01*
X147945500Y-115056772D01*
X147945500Y-110180000D01*
X148575000Y-110180000D01*
X148575000Y-111227844D01*
X148581401Y-111287372D01*
X148581403Y-111287379D01*
X148631645Y-111422086D01*
X148631649Y-111422093D01*
X148717809Y-111537187D01*
X148717812Y-111537190D01*
X148832906Y-111623350D01*
X148832913Y-111623354D01*
X148967620Y-111673596D01*
X148967627Y-111673598D01*
X149027155Y-111679999D01*
X149027172Y-111680000D01*
X149425000Y-111680000D01*
X149425000Y-110180000D01*
X149925000Y-110180000D01*
X149925000Y-111680000D01*
X150322828Y-111680000D01*
X150322844Y-111679999D01*
X150382372Y-111673598D01*
X150382379Y-111673596D01*
X150517086Y-111623354D01*
X150517093Y-111623350D01*
X150632187Y-111537190D01*
X150632190Y-111537187D01*
X150718350Y-111422093D01*
X150718354Y-111422086D01*
X150768596Y-111287379D01*
X150768598Y-111287372D01*
X150774999Y-111227844D01*
X150775000Y-111227827D01*
X150775000Y-110180000D01*
X149925000Y-110180000D01*
X149425000Y-110180000D01*
X148575000Y-110180000D01*
X147945500Y-110180000D01*
X147945500Y-109918687D01*
X147965185Y-109851648D01*
X147977350Y-109835715D01*
X147995891Y-109815122D01*
X148052533Y-109752216D01*
X148094227Y-109680000D01*
X148575000Y-109680000D01*
X149425000Y-109680000D01*
X149425000Y-108180000D01*
X149925000Y-108180000D01*
X149925000Y-109680000D01*
X150775000Y-109680000D01*
X150775000Y-108632172D01*
X150774999Y-108632155D01*
X150768598Y-108572627D01*
X150768596Y-108572620D01*
X150718354Y-108437913D01*
X150718350Y-108437906D01*
X150632190Y-108322812D01*
X150632187Y-108322809D01*
X150517093Y-108236649D01*
X150517086Y-108236645D01*
X150382379Y-108186403D01*
X150382372Y-108186401D01*
X150322844Y-108180000D01*
X149925000Y-108180000D01*
X149425000Y-108180000D01*
X149027155Y-108180000D01*
X148967627Y-108186401D01*
X148967620Y-108186403D01*
X148832913Y-108236645D01*
X148832906Y-108236649D01*
X148717812Y-108322809D01*
X148717809Y-108322812D01*
X148631649Y-108437906D01*
X148631645Y-108437913D01*
X148581403Y-108572620D01*
X148581401Y-108572627D01*
X148575000Y-108632155D01*
X148575000Y-109680000D01*
X148094227Y-109680000D01*
X148147179Y-109588284D01*
X148205674Y-109408256D01*
X148225460Y-109220000D01*
X148205674Y-109031744D01*
X148147179Y-108851716D01*
X148052533Y-108687784D01*
X147925871Y-108547112D01*
X147903351Y-108530750D01*
X147772734Y-108435851D01*
X147772729Y-108435848D01*
X147599807Y-108358857D01*
X147599802Y-108358855D01*
X147445791Y-108326120D01*
X147414646Y-108319500D01*
X147225354Y-108319500D01*
X147194209Y-108326120D01*
X147040197Y-108358855D01*
X147040192Y-108358857D01*
X146867270Y-108435848D01*
X146867265Y-108435851D01*
X146714129Y-108547111D01*
X146587466Y-108687785D01*
X146492821Y-108851715D01*
X146492818Y-108851722D01*
X146434327Y-109031740D01*
X146434326Y-109031744D01*
X146414540Y-109220000D01*
X146434326Y-109408256D01*
X146434327Y-109408259D01*
X146492818Y-109588277D01*
X146492821Y-109588284D01*
X146587467Y-109752216D01*
X146630772Y-109800310D01*
X146662650Y-109835715D01*
X146692880Y-109898706D01*
X146694500Y-109918687D01*
X146694500Y-115056773D01*
X146674815Y-115123812D01*
X146641623Y-115158348D01*
X146448597Y-115293505D01*
X146281505Y-115460597D01*
X146151575Y-115646158D01*
X146096998Y-115689783D01*
X146027500Y-115696977D01*
X145965145Y-115665454D01*
X145948425Y-115646158D01*
X145818494Y-115460597D01*
X145651402Y-115293506D01*
X145651401Y-115293505D01*
X145458376Y-115158347D01*
X145414751Y-115103770D01*
X145405500Y-115056772D01*
X145405500Y-105194722D01*
X145425185Y-105127683D01*
X145455187Y-105095456D01*
X145532546Y-105037546D01*
X145618796Y-104922331D01*
X145669091Y-104787483D01*
X145675500Y-104727873D01*
X145675499Y-102132128D01*
X145669091Y-102072517D01*
X145663732Y-102058150D01*
X145618797Y-101937671D01*
X145618793Y-101937664D01*
X145532547Y-101822455D01*
X145532544Y-101822452D01*
X145417335Y-101736206D01*
X145417330Y-101736203D01*
X145281166Y-101685417D01*
X145225233Y-101643545D01*
X145200816Y-101578081D01*
X145200500Y-101569235D01*
X145200500Y-95188899D01*
X145220185Y-95121860D01*
X145272989Y-95076105D01*
X145281167Y-95072717D01*
X145411521Y-95024098D01*
X145412331Y-95023796D01*
X145527546Y-94937546D01*
X145613796Y-94822331D01*
X145664091Y-94687483D01*
X145670500Y-94627873D01*
X145670499Y-92032128D01*
X145664091Y-91972517D01*
X145660402Y-91962627D01*
X145620270Y-91855027D01*
X145615286Y-91785336D01*
X145618517Y-91773387D01*
X145665674Y-91628256D01*
X145685460Y-91440000D01*
X145665674Y-91251744D01*
X145607179Y-91071716D01*
X145512533Y-90907784D01*
X145512532Y-90907782D01*
X145512527Y-90907776D01*
X145507348Y-90902024D01*
X145477120Y-90839032D01*
X145475500Y-90819055D01*
X145475500Y-89105226D01*
X145495185Y-89038187D01*
X145528374Y-89003654D01*
X145721401Y-88868495D01*
X145888495Y-88701401D01*
X146018424Y-88515842D01*
X146073002Y-88472217D01*
X146142500Y-88465023D01*
X146204855Y-88496546D01*
X146221575Y-88515842D01*
X146351500Y-88701395D01*
X146351505Y-88701401D01*
X146518599Y-88868495D01*
X146595135Y-88922086D01*
X146712165Y-89004032D01*
X146712167Y-89004033D01*
X146712170Y-89004035D01*
X146926337Y-89103903D01*
X146926343Y-89103904D01*
X146926344Y-89103905D01*
X146958108Y-89112416D01*
X147154592Y-89165063D01*
X147325319Y-89180000D01*
X147389999Y-89185659D01*
X147390000Y-89185659D01*
X147390001Y-89185659D01*
X147454681Y-89180000D01*
X147625408Y-89165063D01*
X147651188Y-89158155D01*
X147721035Y-89159816D01*
X147778899Y-89198977D01*
X147794494Y-89223085D01*
X147836979Y-89309237D01*
X147840086Y-89316737D01*
X147895870Y-89481067D01*
X147897971Y-89488909D01*
X147931828Y-89659115D01*
X147932888Y-89667164D01*
X147944367Y-89842279D01*
X147944500Y-89846336D01*
X147944500Y-91469235D01*
X147924815Y-91536274D01*
X147872011Y-91582029D01*
X147863834Y-91585417D01*
X147727669Y-91636203D01*
X147727664Y-91636206D01*
X147612455Y-91722452D01*
X147612452Y-91722455D01*
X147526206Y-91837664D01*
X147526202Y-91837671D01*
X147475908Y-91972517D01*
X147470572Y-92022155D01*
X147469501Y-92032123D01*
X147469500Y-92032135D01*
X147469500Y-94627870D01*
X147469501Y-94627876D01*
X147475908Y-94687483D01*
X147526202Y-94822328D01*
X147526206Y-94822335D01*
X147612452Y-94937544D01*
X147612455Y-94937547D01*
X147653355Y-94968165D01*
X147695226Y-95024098D01*
X147702365Y-95080391D01*
X147690254Y-95195629D01*
X147684540Y-95250000D01*
X147704326Y-95438256D01*
X147704327Y-95438259D01*
X147762818Y-95618277D01*
X147762821Y-95618284D01*
X147769315Y-95629532D01*
X147785785Y-95697433D01*
X147762931Y-95763459D01*
X147708009Y-95806648D01*
X147638455Y-95813288D01*
X147591091Y-95793305D01*
X147458049Y-95700705D01*
X147450424Y-95697433D01*
X147271056Y-95620459D01*
X147071741Y-95579500D01*
X146919258Y-95579500D01*
X146919257Y-95579500D01*
X146767560Y-95594925D01*
X146573420Y-95655837D01*
X146573405Y-95655844D01*
X146395500Y-95754589D01*
X146395495Y-95754592D01*
X146241106Y-95887132D01*
X146241104Y-95887134D01*
X146116554Y-96048037D01*
X146116553Y-96048040D01*
X146026940Y-96230728D01*
X145975937Y-96427714D01*
X145965631Y-96630936D01*
X145996442Y-96832063D01*
X145996445Y-96832075D01*
X146067111Y-97022881D01*
X146067115Y-97022888D01*
X146174745Y-97195567D01*
X146174747Y-97195569D01*
X146174748Y-97195571D01*
X146314941Y-97343053D01*
X146426213Y-97420500D01*
X146481949Y-97459294D01*
X146481950Y-97459294D01*
X146481951Y-97459295D01*
X146668942Y-97539540D01*
X146868259Y-97580500D01*
X147020743Y-97580500D01*
X147172439Y-97565074D01*
X147366579Y-97504162D01*
X147366580Y-97504161D01*
X147366588Y-97504159D01*
X147544502Y-97405409D01*
X147698895Y-97272866D01*
X147727444Y-97235983D01*
X147784045Y-97195020D01*
X147853808Y-97191159D01*
X147914583Y-97225628D01*
X147947075Y-97287483D01*
X147949500Y-97311885D01*
X147949500Y-101569235D01*
X147929815Y-101636274D01*
X147877011Y-101682029D01*
X147868834Y-101685417D01*
X147732669Y-101736203D01*
X147732664Y-101736206D01*
X147617455Y-101822452D01*
X147617452Y-101822455D01*
X147531206Y-101937664D01*
X147531202Y-101937671D01*
X147480908Y-102072517D01*
X147474501Y-102132116D01*
X147474501Y-102132123D01*
X147474500Y-102132135D01*
X147474500Y-104727870D01*
X147474501Y-104727876D01*
X147480908Y-104787483D01*
X147531202Y-104922328D01*
X147531206Y-104922335D01*
X147617452Y-105037544D01*
X147617453Y-105037545D01*
X147617454Y-105037546D01*
X147664425Y-105072709D01*
X147706297Y-105128641D01*
X147711281Y-105198333D01*
X147708047Y-105210289D01*
X147704327Y-105221737D01*
X147704327Y-105221738D01*
X147704327Y-105221740D01*
X147704326Y-105221744D01*
X147684540Y-105410000D01*
X147704326Y-105598256D01*
X147704327Y-105598259D01*
X147745853Y-105726063D01*
X147747848Y-105795904D01*
X147711768Y-105855737D01*
X147649067Y-105886565D01*
X147579652Y-105878600D01*
X147557085Y-105866156D01*
X147540466Y-105854589D01*
X147489129Y-105818857D01*
X147463050Y-105800705D01*
X147276056Y-105720459D01*
X147076741Y-105679500D01*
X146924258Y-105679500D01*
X146924257Y-105679500D01*
X146772560Y-105694925D01*
X146578420Y-105755837D01*
X146578405Y-105755844D01*
X146400500Y-105854589D01*
X146400495Y-105854592D01*
X146246106Y-105987132D01*
X146246104Y-105987134D01*
X146121554Y-106148037D01*
X146121553Y-106148040D01*
X146031940Y-106330728D01*
X145980937Y-106527714D01*
X145970631Y-106730936D01*
X146001442Y-106932063D01*
X146001445Y-106932075D01*
X146072111Y-107122881D01*
X146072113Y-107122884D01*
X146072114Y-107122887D01*
X146118005Y-107196513D01*
X146179745Y-107295567D01*
X146179749Y-107295572D01*
X146281828Y-107402959D01*
X146319941Y-107443053D01*
X146420480Y-107513030D01*
X146486949Y-107559294D01*
X146486950Y-107559294D01*
X146486951Y-107559295D01*
X146673942Y-107639540D01*
X146873259Y-107680500D01*
X147025743Y-107680500D01*
X147177439Y-107665074D01*
X147371579Y-107604162D01*
X147371580Y-107604161D01*
X147371588Y-107604159D01*
X147549502Y-107505409D01*
X147703895Y-107372866D01*
X147828448Y-107211958D01*
X147918060Y-107029271D01*
X147969063Y-106832285D01*
X147979369Y-106629064D01*
X147948556Y-106427929D01*
X147902920Y-106304707D01*
X147898096Y-106235004D01*
X147931722Y-106173758D01*
X147993122Y-106140414D01*
X148062802Y-106145559D01*
X148092082Y-106161320D01*
X148137266Y-106194148D01*
X148137270Y-106194151D01*
X148310192Y-106271142D01*
X148310197Y-106271144D01*
X148495354Y-106310500D01*
X148495355Y-106310500D01*
X148684644Y-106310500D01*
X148684646Y-106310500D01*
X148869803Y-106271144D01*
X149042730Y-106194151D01*
X149195871Y-106082888D01*
X149322533Y-105942216D01*
X149417179Y-105778284D01*
X149475674Y-105598256D01*
X149495460Y-105410000D01*
X149475674Y-105221744D01*
X149466084Y-105192229D01*
X149464089Y-105122388D01*
X149500169Y-105062555D01*
X149509692Y-105054653D01*
X149532546Y-105037546D01*
X149618796Y-104922331D01*
X149669091Y-104787483D01*
X149675500Y-104727873D01*
X149675499Y-104163587D01*
X149695183Y-104096549D01*
X149747987Y-104050794D01*
X149787343Y-104040185D01*
X149909793Y-104028126D01*
X150183521Y-103973680D01*
X150450595Y-103892666D01*
X150708442Y-103785865D01*
X150933579Y-103665530D01*
X154225008Y-103665530D01*
X154225008Y-104713374D01*
X154231409Y-104772902D01*
X154231411Y-104772909D01*
X154281653Y-104907616D01*
X154281657Y-104907623D01*
X154367817Y-105022717D01*
X154367820Y-105022720D01*
X154482914Y-105108880D01*
X154482921Y-105108884D01*
X154617628Y-105159126D01*
X154617635Y-105159128D01*
X154677163Y-105165529D01*
X154677180Y-105165530D01*
X155075008Y-105165530D01*
X155075008Y-103665530D01*
X155575008Y-103665530D01*
X155575008Y-105165530D01*
X155972836Y-105165530D01*
X155972852Y-105165529D01*
X156032380Y-105159128D01*
X156032387Y-105159126D01*
X156167094Y-105108884D01*
X156167101Y-105108880D01*
X156282195Y-105022720D01*
X156282198Y-105022717D01*
X156368358Y-104907623D01*
X156368362Y-104907616D01*
X156418604Y-104772909D01*
X156418606Y-104772902D01*
X156425007Y-104713374D01*
X156425008Y-104713357D01*
X156425008Y-103665530D01*
X155575008Y-103665530D01*
X155075008Y-103665530D01*
X154225008Y-103665530D01*
X150933579Y-103665530D01*
X150954580Y-103654305D01*
X151186638Y-103499254D01*
X151402381Y-103322204D01*
X151436814Y-103287771D01*
X151436832Y-103287756D01*
X151445188Y-103279399D01*
X151445190Y-103279399D01*
X151464739Y-103259850D01*
X151501057Y-103223533D01*
X151554762Y-103169829D01*
X151554762Y-103169828D01*
X151559060Y-103165530D01*
X154225008Y-103165530D01*
X155075008Y-103165530D01*
X155075008Y-101665530D01*
X154677163Y-101665530D01*
X154617635Y-101671931D01*
X154617628Y-101671933D01*
X154482921Y-101722175D01*
X154482914Y-101722179D01*
X154367820Y-101808339D01*
X154367817Y-101808342D01*
X154281657Y-101923436D01*
X154281653Y-101923443D01*
X154231411Y-102058150D01*
X154231409Y-102058157D01*
X154225008Y-102117685D01*
X154225008Y-103165530D01*
X151559060Y-103165530D01*
X151563658Y-103160933D01*
X151563670Y-103160917D01*
X153609016Y-101115572D01*
X153611508Y-101113218D01*
X153798587Y-100946032D01*
X153804018Y-100941699D01*
X154007207Y-100797528D01*
X154013070Y-100793843D01*
X154231138Y-100673320D01*
X154237367Y-100670320D01*
X154467558Y-100574971D01*
X154474089Y-100572685D01*
X154713498Y-100503712D01*
X154720283Y-100502164D01*
X154758325Y-100495700D01*
X154965893Y-100460432D01*
X154972782Y-100459656D01*
X155198549Y-100446977D01*
X155266586Y-100462872D01*
X155315230Y-100513027D01*
X155329501Y-100570782D01*
X155329501Y-101117876D01*
X155335908Y-101177483D01*
X155386202Y-101312328D01*
X155386206Y-101312335D01*
X155472452Y-101427544D01*
X155472453Y-101427544D01*
X155472454Y-101427546D01*
X155485333Y-101437187D01*
X155552644Y-101487577D01*
X155594514Y-101543511D01*
X155599498Y-101613203D01*
X155575008Y-101658053D01*
X155575008Y-103165530D01*
X156425007Y-103165530D01*
X156436026Y-103154511D01*
X156497349Y-103121025D01*
X156567040Y-103126009D01*
X156622974Y-103167880D01*
X156641638Y-103203871D01*
X156652816Y-103238273D01*
X156652821Y-103238284D01*
X156747467Y-103402216D01*
X156834840Y-103499253D01*
X156874129Y-103542888D01*
X157027265Y-103654148D01*
X157027270Y-103654151D01*
X157200192Y-103731142D01*
X157200197Y-103731144D01*
X157385354Y-103770500D01*
X157385355Y-103770500D01*
X157574644Y-103770500D01*
X157574646Y-103770500D01*
X157759803Y-103731144D01*
X157932730Y-103654151D01*
X158085871Y-103542888D01*
X158212533Y-103402216D01*
X158307179Y-103238284D01*
X158365674Y-103058256D01*
X158385460Y-102870000D01*
X158365674Y-102681744D01*
X158307179Y-102501716D01*
X158212533Y-102337784D01*
X158085871Y-102197112D01*
X158081322Y-102193807D01*
X157932734Y-102085851D01*
X157932729Y-102085848D01*
X157759807Y-102008857D01*
X157759802Y-102008855D01*
X157614001Y-101977865D01*
X157574646Y-101969500D01*
X157574645Y-101969500D01*
X157515453Y-101969500D01*
X157448414Y-101949815D01*
X157427772Y-101933181D01*
X157399029Y-101904438D01*
X157395723Y-101900862D01*
X157284706Y-101770879D01*
X157273269Y-101755138D01*
X157230330Y-101685069D01*
X157212086Y-101617625D01*
X157233202Y-101551023D01*
X157266444Y-101520732D01*
X157265231Y-101519112D01*
X157374667Y-101437187D01*
X157387546Y-101427546D01*
X157473796Y-101312331D01*
X157524091Y-101177483D01*
X157530500Y-101117873D01*
X157530499Y-98522128D01*
X157524091Y-98462517D01*
X157473796Y-98327669D01*
X157473795Y-98327668D01*
X157473793Y-98327664D01*
X157387547Y-98212455D01*
X157387544Y-98212452D01*
X157272335Y-98126206D01*
X157272330Y-98126203D01*
X157136166Y-98075417D01*
X157080233Y-98033545D01*
X157055816Y-97968081D01*
X157055500Y-97959235D01*
X157055500Y-97307429D01*
X157075185Y-97240390D01*
X157127989Y-97194635D01*
X157197147Y-97184691D01*
X157260703Y-97213716D01*
X157269370Y-97221994D01*
X157374941Y-97333053D01*
X157500580Y-97420500D01*
X157541949Y-97449294D01*
X157541950Y-97449294D01*
X157541951Y-97449295D01*
X157728942Y-97529540D01*
X157928259Y-97570500D01*
X158080743Y-97570500D01*
X158232439Y-97555074D01*
X158426579Y-97494162D01*
X158426580Y-97494161D01*
X158426588Y-97494159D01*
X158604502Y-97395409D01*
X158758895Y-97262866D01*
X158883448Y-97101958D01*
X158973060Y-96919271D01*
X159024063Y-96722285D01*
X159034369Y-96519064D01*
X159003556Y-96317929D01*
X158932886Y-96127113D01*
X158825252Y-95954429D01*
X158685059Y-95806947D01*
X158563242Y-95722160D01*
X158518050Y-95690705D01*
X158331056Y-95610459D01*
X158131741Y-95569500D01*
X157979258Y-95569500D01*
X157979257Y-95569500D01*
X157827560Y-95584925D01*
X157633420Y-95645837D01*
X157633405Y-95645844D01*
X157455500Y-95744589D01*
X157455495Y-95744592D01*
X157301107Y-95877131D01*
X157277556Y-95907557D01*
X157220954Y-95948520D01*
X157151191Y-95952380D01*
X157090416Y-95917911D01*
X157057924Y-95856056D01*
X157055500Y-95831655D01*
X157055500Y-95705314D01*
X157055507Y-95705191D01*
X157055507Y-95700705D01*
X157055504Y-95676882D01*
X157055519Y-95676830D01*
X157055514Y-95625501D01*
X157055515Y-95625501D01*
X157055510Y-95581510D01*
X157061577Y-95543192D01*
X157095674Y-95438256D01*
X157113321Y-95270344D01*
X157139904Y-95205734D01*
X157148951Y-95195638D01*
X157938568Y-94406020D01*
X157938580Y-94406011D01*
X157947476Y-94397113D01*
X157947479Y-94397113D01*
X157964854Y-94379736D01*
X157964898Y-94379712D01*
X158001191Y-94343416D01*
X158001192Y-94343417D01*
X158079410Y-94265195D01*
X158214087Y-94089670D01*
X158324703Y-93898069D01*
X158409365Y-93693669D01*
X158466623Y-93479967D01*
X158495500Y-93260620D01*
X158495500Y-93150000D01*
X158495500Y-93074051D01*
X158495500Y-93074050D01*
X158495500Y-92670650D01*
X158495500Y-92670649D01*
X158495500Y-91790650D01*
X158495500Y-89105226D01*
X158515185Y-89038187D01*
X158548374Y-89003654D01*
X158741401Y-88868495D01*
X158908495Y-88701401D01*
X159038424Y-88515842D01*
X159093002Y-88472217D01*
X159162500Y-88465023D01*
X159224855Y-88496546D01*
X159241575Y-88515842D01*
X159371500Y-88701395D01*
X159371505Y-88701401D01*
X159538599Y-88868495D01*
X159731624Y-89003653D01*
X159775248Y-89058228D01*
X159784500Y-89105226D01*
X159784500Y-90478604D01*
X159764815Y-90545643D01*
X159712011Y-90591398D01*
X159710937Y-90591883D01*
X159567267Y-90655850D01*
X159567265Y-90655851D01*
X159414129Y-90767111D01*
X159287466Y-90907785D01*
X159192821Y-91071715D01*
X159192818Y-91071722D01*
X159134327Y-91251740D01*
X159134326Y-91251744D01*
X159114540Y-91440000D01*
X159134326Y-91628256D01*
X159134327Y-91628259D01*
X159192818Y-91808277D01*
X159192821Y-91808284D01*
X159287467Y-91972216D01*
X159414128Y-92112888D01*
X159414129Y-92112888D01*
X159567265Y-92224148D01*
X159567270Y-92224151D01*
X159730936Y-92297021D01*
X159784173Y-92342271D01*
X159804494Y-92409120D01*
X159804500Y-92410300D01*
X159804500Y-97959235D01*
X159784815Y-98026274D01*
X159732011Y-98072029D01*
X159723834Y-98075417D01*
X159587669Y-98126203D01*
X159587664Y-98126206D01*
X159472455Y-98212452D01*
X159472452Y-98212455D01*
X159386206Y-98327664D01*
X159386202Y-98327671D01*
X159335908Y-98462517D01*
X159329501Y-98522116D01*
X159329501Y-98522123D01*
X159329500Y-98522135D01*
X159329500Y-101117870D01*
X159329501Y-101117876D01*
X159335908Y-101177483D01*
X159386202Y-101312328D01*
X159386206Y-101312335D01*
X159472452Y-101427544D01*
X159472455Y-101427547D01*
X159587664Y-101513793D01*
X159587671Y-101513797D01*
X159718841Y-101562720D01*
X159774775Y-101604591D01*
X159799192Y-101670055D01*
X159799508Y-101678902D01*
X159799508Y-108054765D01*
X159779823Y-108121804D01*
X159727019Y-108167559D01*
X159718842Y-108170947D01*
X159582677Y-108221733D01*
X159582672Y-108221736D01*
X159467463Y-108307982D01*
X159467460Y-108307985D01*
X159381214Y-108423194D01*
X159381210Y-108423201D01*
X159330916Y-108558047D01*
X159329349Y-108572627D01*
X159324509Y-108617653D01*
X159324508Y-108617665D01*
X159324508Y-111213400D01*
X159324509Y-111213406D01*
X159330916Y-111273013D01*
X159381210Y-111407858D01*
X159381214Y-111407865D01*
X159467460Y-111523074D01*
X159467463Y-111523077D01*
X159582672Y-111609323D01*
X159582679Y-111609327D01*
X159717524Y-111659621D01*
X159777121Y-111666029D01*
X159777126Y-111666029D01*
X159777135Y-111666030D01*
X159778477Y-111666029D01*
X159778776Y-111666117D01*
X159780442Y-111666207D01*
X159780432Y-111666385D01*
X159780439Y-111666386D01*
X159780425Y-111666507D01*
X159780420Y-111666600D01*
X159845517Y-111685699D01*
X159891283Y-111738493D01*
X159902500Y-111790029D01*
X159902500Y-113353524D01*
X159902499Y-113353546D01*
X159902499Y-113428733D01*
X159901968Y-113436833D01*
X159896395Y-113479168D01*
X159888017Y-113510437D01*
X159876367Y-113538563D01*
X159860182Y-113566597D01*
X159834217Y-113600436D01*
X159828864Y-113606540D01*
X159762523Y-113672879D01*
X159762518Y-113672885D01*
X159643399Y-113828124D01*
X159545563Y-113997581D01*
X159545556Y-113997596D01*
X159470686Y-114178351D01*
X159470681Y-114178367D01*
X159420038Y-114367374D01*
X159420035Y-114367388D01*
X159394500Y-114561368D01*
X159394499Y-114561386D01*
X159394500Y-114619860D01*
X159394500Y-115056773D01*
X159374815Y-115123812D01*
X159341623Y-115158348D01*
X159148597Y-115293505D01*
X158981505Y-115460597D01*
X158851575Y-115646158D01*
X158796998Y-115689783D01*
X158727500Y-115696977D01*
X158665145Y-115665454D01*
X158648425Y-115646158D01*
X158518494Y-115460597D01*
X158351402Y-115293506D01*
X158351401Y-115293505D01*
X158158376Y-115158347D01*
X158114753Y-115103771D01*
X158105501Y-115056776D01*
X158105501Y-115044323D01*
X158105514Y-115044277D01*
X158105513Y-114992951D01*
X158105514Y-114992951D01*
X158105512Y-114863872D01*
X158102757Y-114839429D01*
X158091006Y-114735152D01*
X158076603Y-114607340D01*
X158019154Y-114355656D01*
X157933887Y-114111988D01*
X157821875Y-113879398D01*
X157684526Y-113660811D01*
X157684522Y-113660806D01*
X157684521Y-113660804D01*
X157523567Y-113458977D01*
X157493073Y-113428483D01*
X157493069Y-113428478D01*
X157480122Y-113415531D01*
X157434020Y-113369430D01*
X157430727Y-113365867D01*
X157403509Y-113333999D01*
X157331879Y-113250132D01*
X157320448Y-113234399D01*
X157244759Y-113110888D01*
X157235931Y-113093562D01*
X157180490Y-112959720D01*
X157174479Y-112941217D01*
X157156968Y-112868284D01*
X157140663Y-112800373D01*
X157137619Y-112781160D01*
X157130306Y-112688259D01*
X157125691Y-112629622D01*
X157125500Y-112624755D01*
X157125500Y-111748324D01*
X157145185Y-111681285D01*
X157197989Y-111635530D01*
X157206167Y-111632142D01*
X157267336Y-111609327D01*
X157267335Y-111609327D01*
X157267339Y-111609326D01*
X157382554Y-111523076D01*
X157468804Y-111407861D01*
X157519099Y-111273013D01*
X157525508Y-111213403D01*
X157525507Y-108617658D01*
X157519099Y-108558047D01*
X157515020Y-108547111D01*
X157468805Y-108423201D01*
X157468801Y-108423194D01*
X157382555Y-108307985D01*
X157382552Y-108307982D01*
X157267343Y-108221736D01*
X157267338Y-108221733D01*
X157131174Y-108170947D01*
X157075241Y-108129075D01*
X157050824Y-108063611D01*
X157050508Y-108054765D01*
X157050508Y-107402959D01*
X157070193Y-107335920D01*
X157122997Y-107290165D01*
X157192155Y-107280221D01*
X157255711Y-107309246D01*
X157264378Y-107317524D01*
X157369949Y-107428583D01*
X157480330Y-107505410D01*
X157536957Y-107544824D01*
X157536958Y-107544824D01*
X157536959Y-107544825D01*
X157723950Y-107625070D01*
X157923267Y-107666030D01*
X158075751Y-107666030D01*
X158227447Y-107650604D01*
X158421587Y-107589692D01*
X158421588Y-107589691D01*
X158421596Y-107589689D01*
X158599510Y-107490939D01*
X158753903Y-107358396D01*
X158878456Y-107197488D01*
X158968068Y-107014801D01*
X159019071Y-106817815D01*
X159029377Y-106614594D01*
X158998564Y-106413459D01*
X158927894Y-106222643D01*
X158820260Y-106049959D01*
X158680067Y-105902477D01*
X158581595Y-105833939D01*
X158513058Y-105786235D01*
X158326064Y-105705989D01*
X158126749Y-105665030D01*
X157974266Y-105665030D01*
X157974265Y-105665030D01*
X157822568Y-105680455D01*
X157628428Y-105741367D01*
X157628413Y-105741374D01*
X157450508Y-105840119D01*
X157450503Y-105840122D01*
X157296114Y-105972662D01*
X157296112Y-105972664D01*
X157171562Y-106133567D01*
X157171559Y-106133572D01*
X157165012Y-106146920D01*
X157117813Y-106198438D01*
X157050254Y-106216260D01*
X156983785Y-106194727D01*
X156946297Y-106154304D01*
X156942682Y-106148042D01*
X156942533Y-106147784D01*
X156815871Y-106007112D01*
X156815870Y-106007111D01*
X156662734Y-105895851D01*
X156662729Y-105895848D01*
X156489807Y-105818857D01*
X156489802Y-105818855D01*
X156336332Y-105786235D01*
X156304646Y-105779500D01*
X156115354Y-105779500D01*
X156083668Y-105786235D01*
X155930197Y-105818855D01*
X155930192Y-105818857D01*
X155757270Y-105895848D01*
X155757265Y-105895851D01*
X155604129Y-106007111D01*
X155477466Y-106147785D01*
X155382821Y-106311715D01*
X155382818Y-106311722D01*
X155324327Y-106491740D01*
X155324326Y-106491744D01*
X155307577Y-106651101D01*
X155305271Y-106673049D01*
X155304540Y-106680000D01*
X155324326Y-106868256D01*
X155324327Y-106868259D01*
X155382818Y-107048277D01*
X155382821Y-107048284D01*
X155477467Y-107212216D01*
X155604129Y-107352888D01*
X155748393Y-107457702D01*
X155791059Y-107513030D01*
X155799508Y-107558019D01*
X155799508Y-108054765D01*
X155779823Y-108121804D01*
X155727019Y-108167559D01*
X155718842Y-108170947D01*
X155582677Y-108221733D01*
X155582672Y-108221736D01*
X155467463Y-108307982D01*
X155467460Y-108307985D01*
X155381214Y-108423194D01*
X155381210Y-108423201D01*
X155330916Y-108558047D01*
X155329349Y-108572627D01*
X155324509Y-108617653D01*
X155324508Y-108617665D01*
X155324508Y-111213400D01*
X155324509Y-111213406D01*
X155330916Y-111273013D01*
X155381210Y-111407858D01*
X155381214Y-111407865D01*
X155467460Y-111523074D01*
X155467463Y-111523077D01*
X155582672Y-111609323D01*
X155582679Y-111609327D01*
X155717525Y-111659621D01*
X155717524Y-111659621D01*
X155763756Y-111664592D01*
X155828307Y-111691330D01*
X155868155Y-111748723D01*
X155874500Y-111787881D01*
X155874500Y-112547776D01*
X155874499Y-112547798D01*
X155874499Y-112575672D01*
X155874485Y-112575719D01*
X155874487Y-112756129D01*
X155887126Y-112868277D01*
X155903397Y-113012659D01*
X155960846Y-113264343D01*
X155960847Y-113264348D01*
X155960848Y-113264349D01*
X156036019Y-113479168D01*
X156046113Y-113508012D01*
X156158125Y-113740602D01*
X156295474Y-113959188D01*
X156295479Y-113959194D01*
X156415651Y-114109885D01*
X156456433Y-114161023D01*
X156491663Y-114196253D01*
X156491673Y-114196264D01*
X156545966Y-114250556D01*
X156549272Y-114254132D01*
X156648117Y-114369863D01*
X156659552Y-114385603D01*
X156666819Y-114397460D01*
X156735237Y-114509107D01*
X156744071Y-114526443D01*
X156799508Y-114660277D01*
X156805520Y-114678782D01*
X156839335Y-114819620D01*
X156842380Y-114838838D01*
X156854309Y-114990374D01*
X156854500Y-114995241D01*
X156854500Y-115056773D01*
X156834815Y-115123812D01*
X156801623Y-115158348D01*
X156608597Y-115293505D01*
X156441505Y-115460597D01*
X156305965Y-115654169D01*
X156305964Y-115654171D01*
X156206098Y-115868335D01*
X156206094Y-115868344D01*
X156144938Y-116096586D01*
X156144936Y-116096596D01*
X156124341Y-116331999D01*
X156124341Y-116332000D01*
X156144936Y-116567403D01*
X156144938Y-116567413D01*
X156206094Y-116795655D01*
X156206096Y-116795659D01*
X156206097Y-116795663D01*
X156286004Y-116967023D01*
X156305965Y-117009830D01*
X156305967Y-117009834D01*
X156414281Y-117164521D01*
X156441505Y-117203401D01*
X156608599Y-117370495D01*
X156685135Y-117424086D01*
X156802165Y-117506032D01*
X156802167Y-117506033D01*
X156802170Y-117506035D01*
X157016337Y-117605903D01*
X157244592Y-117667063D01*
X157415319Y-117682000D01*
X157479999Y-117687659D01*
X157480000Y-117687659D01*
X157480001Y-117687659D01*
X157544681Y-117682000D01*
X157715408Y-117667063D01*
X157943663Y-117605903D01*
X158157830Y-117506035D01*
X158351401Y-117370495D01*
X158518495Y-117203401D01*
X158648424Y-117017842D01*
X158703002Y-116974217D01*
X158772500Y-116967023D01*
X158834855Y-116998546D01*
X158851575Y-117017842D01*
X158981500Y-117203395D01*
X158981505Y-117203401D01*
X159148599Y-117370495D01*
X159225135Y-117424086D01*
X159342165Y-117506032D01*
X159342167Y-117506033D01*
X159342170Y-117506035D01*
X159556337Y-117605903D01*
X159784592Y-117667063D01*
X159955319Y-117682000D01*
X160019999Y-117687659D01*
X160020000Y-117687659D01*
X160020001Y-117687659D01*
X160084681Y-117682000D01*
X160255408Y-117667063D01*
X160483663Y-117605903D01*
X160697830Y-117506035D01*
X160891401Y-117370495D01*
X161058495Y-117203401D01*
X161188424Y-117017842D01*
X161243002Y-116974217D01*
X161312500Y-116967023D01*
X161374855Y-116998546D01*
X161391575Y-117017842D01*
X161521500Y-117203395D01*
X161521505Y-117203401D01*
X161688599Y-117370495D01*
X161765135Y-117424086D01*
X161882165Y-117506032D01*
X161882167Y-117506033D01*
X161882170Y-117506035D01*
X162096337Y-117605903D01*
X162324592Y-117667063D01*
X162495319Y-117682000D01*
X162559999Y-117687659D01*
X162560000Y-117687659D01*
X162560001Y-117687659D01*
X162624681Y-117682000D01*
X162795408Y-117667063D01*
X163023663Y-117605903D01*
X163237830Y-117506035D01*
X163431401Y-117370495D01*
X163553717Y-117248178D01*
X163615036Y-117214696D01*
X163684728Y-117219680D01*
X163740662Y-117261551D01*
X163757577Y-117292528D01*
X163806646Y-117424088D01*
X163806649Y-117424093D01*
X163892809Y-117539187D01*
X163892812Y-117539190D01*
X164007906Y-117625350D01*
X164007913Y-117625354D01*
X164142620Y-117675596D01*
X164142627Y-117675598D01*
X164202155Y-117681999D01*
X164202172Y-117682000D01*
X164850000Y-117682000D01*
X164850000Y-116767501D01*
X164957685Y-116816680D01*
X165064237Y-116832000D01*
X165135763Y-116832000D01*
X165242315Y-116816680D01*
X165350000Y-116767501D01*
X165350000Y-117682000D01*
X165997828Y-117682000D01*
X165997844Y-117681999D01*
X166057372Y-117675598D01*
X166057379Y-117675596D01*
X166192086Y-117625354D01*
X166192093Y-117625350D01*
X166307187Y-117539190D01*
X166307190Y-117539187D01*
X166393350Y-117424093D01*
X166393354Y-117424086D01*
X166443596Y-117289379D01*
X166443598Y-117289372D01*
X166449999Y-117229844D01*
X166450000Y-117229827D01*
X166450000Y-116582000D01*
X165533686Y-116582000D01*
X165559493Y-116541844D01*
X165600000Y-116403889D01*
X165600000Y-116260111D01*
X165559493Y-116122156D01*
X165533686Y-116082000D01*
X166450000Y-116082000D01*
X166450000Y-115434172D01*
X166449999Y-115434155D01*
X166443598Y-115374627D01*
X166443596Y-115374620D01*
X166393354Y-115239913D01*
X166393350Y-115239906D01*
X166307190Y-115124812D01*
X166307187Y-115124809D01*
X166192093Y-115038649D01*
X166192086Y-115038645D01*
X166057379Y-114988403D01*
X166057372Y-114988401D01*
X165997844Y-114982000D01*
X165350000Y-114982000D01*
X165350000Y-115896498D01*
X165242315Y-115847320D01*
X165135763Y-115832000D01*
X165064237Y-115832000D01*
X164957685Y-115847320D01*
X164850000Y-115896498D01*
X164850000Y-114982000D01*
X164202155Y-114982000D01*
X164142627Y-114988401D01*
X164142620Y-114988403D01*
X164007913Y-115038645D01*
X164007906Y-115038649D01*
X163892812Y-115124809D01*
X163892809Y-115124812D01*
X163806649Y-115239906D01*
X163806645Y-115239913D01*
X163757578Y-115371470D01*
X163715707Y-115427404D01*
X163650242Y-115451821D01*
X163581969Y-115436969D01*
X163553715Y-115415819D01*
X163509366Y-115371470D01*
X163431401Y-115293505D01*
X163238376Y-115158347D01*
X163194751Y-115103770D01*
X163185500Y-115056772D01*
X163185500Y-114967128D01*
X163185691Y-114962261D01*
X163196791Y-114821240D01*
X163199835Y-114802022D01*
X163215890Y-114735152D01*
X163231151Y-114671584D01*
X163237159Y-114653094D01*
X163288500Y-114529149D01*
X163297318Y-114511843D01*
X163367417Y-114397452D01*
X163378848Y-114381720D01*
X163401115Y-114355649D01*
X163470801Y-114274057D01*
X163474074Y-114270515D01*
X163497651Y-114246939D01*
X163526000Y-114218591D01*
X163526000Y-114218589D01*
X163536205Y-114208385D01*
X163536211Y-114208378D01*
X163621064Y-114123524D01*
X163674518Y-114070076D01*
X163674556Y-114070030D01*
X163715337Y-114029250D01*
X163848096Y-113856238D01*
X163957136Y-113667377D01*
X164040592Y-113465899D01*
X164097035Y-113255252D01*
X164103196Y-113208451D01*
X164131462Y-113144555D01*
X164133985Y-113141664D01*
X164173002Y-113098331D01*
X164232533Y-113032216D01*
X164327179Y-112868284D01*
X164385674Y-112688256D01*
X164405460Y-112500000D01*
X164385674Y-112311744D01*
X164327179Y-112131716D01*
X164232533Y-111967784D01*
X164217349Y-111950920D01*
X164157350Y-111884284D01*
X164127120Y-111821292D01*
X164125500Y-111801312D01*
X164125500Y-111748324D01*
X164145185Y-111681285D01*
X164197989Y-111635530D01*
X164206167Y-111632142D01*
X164267336Y-111609327D01*
X164267335Y-111609327D01*
X164267339Y-111609326D01*
X164382554Y-111523076D01*
X164468804Y-111407861D01*
X164519099Y-111273013D01*
X164525508Y-111213403D01*
X164525507Y-108617658D01*
X164519099Y-108558047D01*
X164515020Y-108547111D01*
X164468805Y-108423201D01*
X164468801Y-108423194D01*
X164382555Y-108307985D01*
X164382552Y-108307982D01*
X164267343Y-108221736D01*
X164267336Y-108221732D01*
X164131185Y-108170951D01*
X164075251Y-108129080D01*
X164050834Y-108063615D01*
X164050518Y-108054769D01*
X164050518Y-108048080D01*
X164050518Y-108038591D01*
X164024077Y-107803969D01*
X164024074Y-107803958D01*
X164024073Y-107803948D01*
X163982990Y-107623969D01*
X163971534Y-107573782D01*
X163893550Y-107350925D01*
X163791105Y-107138201D01*
X163665487Y-106938284D01*
X163518277Y-106753688D01*
X163498961Y-106734372D01*
X163489184Y-106716466D01*
X164020639Y-106716466D01*
X164051450Y-106917593D01*
X164051453Y-106917605D01*
X164122119Y-107108411D01*
X164122121Y-107108414D01*
X164122122Y-107108417D01*
X164168013Y-107182043D01*
X164229753Y-107281097D01*
X164229755Y-107281099D01*
X164229756Y-107281101D01*
X164369949Y-107428583D01*
X164480330Y-107505410D01*
X164536957Y-107544824D01*
X164536958Y-107544824D01*
X164536959Y-107544825D01*
X164723950Y-107625070D01*
X164923267Y-107666030D01*
X165075751Y-107666030D01*
X165227447Y-107650604D01*
X165421587Y-107589692D01*
X165421588Y-107589691D01*
X165421596Y-107589689D01*
X165599510Y-107490939D01*
X165753903Y-107358396D01*
X165878456Y-107197488D01*
X165968068Y-107014801D01*
X166019071Y-106817815D01*
X166029377Y-106614594D01*
X165998564Y-106413459D01*
X165927894Y-106222643D01*
X165820260Y-106049959D01*
X165680067Y-105902477D01*
X165581595Y-105833939D01*
X165513058Y-105786235D01*
X165326064Y-105705989D01*
X165126749Y-105665030D01*
X164974266Y-105665030D01*
X164974265Y-105665030D01*
X164822568Y-105680455D01*
X164628428Y-105741367D01*
X164628413Y-105741374D01*
X164450508Y-105840119D01*
X164450503Y-105840122D01*
X164296114Y-105972662D01*
X164296112Y-105972664D01*
X164171562Y-106133567D01*
X164171561Y-106133570D01*
X164081948Y-106316258D01*
X164030945Y-106513244D01*
X164020639Y-106716466D01*
X163489184Y-106716466D01*
X163465476Y-106673049D01*
X163463321Y-106659652D01*
X163445674Y-106491744D01*
X163387179Y-106311716D01*
X163292533Y-106147784D01*
X163165871Y-106007112D01*
X163165870Y-106007111D01*
X163012734Y-105895851D01*
X163012729Y-105895848D01*
X162839807Y-105818857D01*
X162839802Y-105818855D01*
X162686332Y-105786235D01*
X162654646Y-105779500D01*
X162465354Y-105779500D01*
X162433668Y-105786235D01*
X162280197Y-105818855D01*
X162280192Y-105818857D01*
X162107270Y-105895848D01*
X162107265Y-105895851D01*
X161954129Y-106007111D01*
X161827466Y-106147785D01*
X161732821Y-106311715D01*
X161732818Y-106311722D01*
X161674327Y-106491740D01*
X161674326Y-106491744D01*
X161654540Y-106680000D01*
X161674326Y-106868256D01*
X161674327Y-106868259D01*
X161732818Y-107048277D01*
X161732821Y-107048284D01*
X161827467Y-107212216D01*
X161922290Y-107317527D01*
X161954129Y-107352888D01*
X162107265Y-107464148D01*
X162107270Y-107464151D01*
X162280192Y-107541142D01*
X162280197Y-107541144D01*
X162465354Y-107580500D01*
X162514994Y-107580500D01*
X162582033Y-107600185D01*
X162609280Y-107623965D01*
X162630616Y-107648946D01*
X162642046Y-107664677D01*
X162701644Y-107761932D01*
X162710471Y-107779254D01*
X162754121Y-107884630D01*
X162760131Y-107903129D01*
X162786760Y-108014040D01*
X162789805Y-108033262D01*
X162790971Y-108048080D01*
X162776606Y-108116457D01*
X162727554Y-108166213D01*
X162710686Y-108173989D01*
X162582679Y-108221732D01*
X162582672Y-108221736D01*
X162467463Y-108307982D01*
X162467460Y-108307985D01*
X162381214Y-108423194D01*
X162381210Y-108423201D01*
X162330916Y-108558047D01*
X162329349Y-108572627D01*
X162324509Y-108617653D01*
X162324508Y-108617665D01*
X162324508Y-111213400D01*
X162324509Y-111213406D01*
X162330916Y-111273013D01*
X162381210Y-111407858D01*
X162381214Y-111407865D01*
X162467460Y-111523074D01*
X162467463Y-111523077D01*
X162582672Y-111609323D01*
X162582679Y-111609327D01*
X162717525Y-111659621D01*
X162717524Y-111659621D01*
X162763756Y-111664592D01*
X162828307Y-111691330D01*
X162868155Y-111748723D01*
X162874500Y-111787881D01*
X162874500Y-111801312D01*
X162854815Y-111868351D01*
X162842650Y-111884284D01*
X162767466Y-111967784D01*
X162672821Y-112131715D01*
X162672818Y-112131722D01*
X162614327Y-112311740D01*
X162614326Y-112311744D01*
X162594540Y-112500000D01*
X162614326Y-112688256D01*
X162614327Y-112688259D01*
X162672818Y-112868277D01*
X162672821Y-112868284D01*
X162767466Y-113032215D01*
X162770279Y-113035339D01*
X162800510Y-113098331D01*
X162791885Y-113167666D01*
X162773983Y-113196977D01*
X162755563Y-113219422D01*
X162751475Y-113223932D01*
X162699947Y-113275460D01*
X162699944Y-113275464D01*
X162623974Y-113351434D01*
X162623972Y-113351438D01*
X162614267Y-113361143D01*
X162558624Y-113416784D01*
X162558445Y-113416973D01*
X162499153Y-113476267D01*
X162342971Y-113672112D01*
X162209711Y-113884192D01*
X162209708Y-113884196D01*
X162101021Y-114109885D01*
X162018289Y-114346314D01*
X161962550Y-114590516D01*
X161962548Y-114590527D01*
X161934500Y-114839425D01*
X161934500Y-114964672D01*
X161934499Y-115044361D01*
X161934500Y-115044377D01*
X161934500Y-115056773D01*
X161914815Y-115123812D01*
X161881623Y-115158348D01*
X161688597Y-115293505D01*
X161521505Y-115460597D01*
X161391575Y-115646158D01*
X161336998Y-115689783D01*
X161267500Y-115696977D01*
X161205145Y-115665454D01*
X161188425Y-115646158D01*
X161058494Y-115460597D01*
X160891402Y-115293506D01*
X160891401Y-115293505D01*
X160698376Y-115158347D01*
X160654751Y-115103770D01*
X160645500Y-115056772D01*
X160645500Y-114735156D01*
X160645501Y-114735152D01*
X160645500Y-114663266D01*
X160646031Y-114655167D01*
X160651604Y-114612831D01*
X160659980Y-114581567D01*
X160671636Y-114553427D01*
X160687816Y-114525403D01*
X160698235Y-114511824D01*
X160713779Y-114491565D01*
X160719119Y-114485476D01*
X160785480Y-114419116D01*
X160904601Y-114263875D01*
X161002438Y-114094414D01*
X161077319Y-113913632D01*
X161127962Y-113724622D01*
X161153501Y-113530619D01*
X161153500Y-113432781D01*
X161153500Y-113400500D01*
X161153500Y-111737879D01*
X161173185Y-111670841D01*
X161225989Y-111625086D01*
X161234155Y-111621702D01*
X161267339Y-111609326D01*
X161382554Y-111523076D01*
X161468804Y-111407861D01*
X161519099Y-111273013D01*
X161525508Y-111213403D01*
X161525507Y-108617658D01*
X161519099Y-108558047D01*
X161515020Y-108547111D01*
X161468805Y-108423201D01*
X161468801Y-108423194D01*
X161382555Y-108307985D01*
X161382552Y-108307982D01*
X161267343Y-108221736D01*
X161267338Y-108221733D01*
X161131174Y-108170947D01*
X161075241Y-108129075D01*
X161050824Y-108063611D01*
X161050508Y-108054765D01*
X161050508Y-101682625D01*
X161070193Y-101615586D01*
X161122997Y-101569831D01*
X161131176Y-101566443D01*
X161137481Y-101564091D01*
X161137483Y-101564091D01*
X161272331Y-101513796D01*
X161387546Y-101427546D01*
X161473796Y-101312331D01*
X161524091Y-101177483D01*
X161530500Y-101117873D01*
X161530499Y-98522128D01*
X161524091Y-98462517D01*
X161473796Y-98327669D01*
X161473795Y-98327668D01*
X161473793Y-98327664D01*
X161387547Y-98212455D01*
X161387544Y-98212452D01*
X161272335Y-98126206D01*
X161272330Y-98126203D01*
X161136166Y-98075417D01*
X161080233Y-98033545D01*
X161055816Y-97968081D01*
X161055500Y-97959235D01*
X161055500Y-92098425D01*
X161055494Y-92098263D01*
X161055496Y-92053052D01*
X161032820Y-91880792D01*
X160987853Y-91712966D01*
X160927254Y-91566664D01*
X160918496Y-91506255D01*
X160925460Y-91440000D01*
X160917116Y-91360618D01*
X160929685Y-91291890D01*
X160929707Y-91291845D01*
X160940884Y-91269912D01*
X161003695Y-91076617D01*
X161035496Y-90875876D01*
X161035496Y-90863267D01*
X161035500Y-90863218D01*
X161035500Y-90762577D01*
X161035501Y-90730515D01*
X161035503Y-90698305D01*
X161035501Y-90698300D01*
X161035502Y-90694726D01*
X161035500Y-90694675D01*
X161035500Y-89105226D01*
X161055185Y-89038187D01*
X161088374Y-89003654D01*
X161281401Y-88868495D01*
X161448495Y-88701401D01*
X161578424Y-88515842D01*
X161633002Y-88472217D01*
X161702500Y-88465023D01*
X161764855Y-88496546D01*
X161781575Y-88515842D01*
X161911500Y-88701395D01*
X161911505Y-88701401D01*
X162078599Y-88868495D01*
X162271624Y-89003653D01*
X162315248Y-89058228D01*
X162324500Y-89105226D01*
X162324500Y-94348132D01*
X162324515Y-94348657D01*
X162324515Y-94379712D01*
X162324515Y-94401752D01*
X162336176Y-94490348D01*
X162349231Y-94589541D01*
X162398249Y-94772500D01*
X162398253Y-94772511D01*
X162466609Y-94937547D01*
X162470729Y-94947494D01*
X162565430Y-95111531D01*
X162680733Y-95261802D01*
X162685519Y-95266589D01*
X162691284Y-95272355D01*
X162691314Y-95272388D01*
X162694004Y-95275077D01*
X162694006Y-95275081D01*
X162743812Y-95324884D01*
X162744834Y-95325906D01*
X162750188Y-95332011D01*
X162768590Y-95355994D01*
X162784774Y-95384025D01*
X162791652Y-95400629D01*
X162800030Y-95431894D01*
X162800868Y-95438256D01*
X162803969Y-95461802D01*
X162804500Y-95469905D01*
X162804500Y-97959235D01*
X162784815Y-98026274D01*
X162732011Y-98072029D01*
X162723834Y-98075417D01*
X162587669Y-98126203D01*
X162587664Y-98126206D01*
X162472455Y-98212452D01*
X162472452Y-98212455D01*
X162386206Y-98327664D01*
X162386202Y-98327671D01*
X162335908Y-98462517D01*
X162329501Y-98522116D01*
X162329501Y-98522123D01*
X162329500Y-98522135D01*
X162329500Y-101117870D01*
X162329501Y-101117876D01*
X162335908Y-101177483D01*
X162386202Y-101312328D01*
X162386206Y-101312335D01*
X162472452Y-101427544D01*
X162472455Y-101427547D01*
X162587664Y-101513793D01*
X162587671Y-101513797D01*
X162667665Y-101543633D01*
X162723599Y-101585504D01*
X162748016Y-101650968D01*
X162738893Y-101707269D01*
X162714530Y-101766085D01*
X162705696Y-101783421D01*
X162645410Y-101881798D01*
X162633976Y-101897537D01*
X162614660Y-101920153D01*
X162611852Y-101923443D01*
X162609643Y-101926029D01*
X162551137Y-101964224D01*
X162515350Y-101969500D01*
X162465354Y-101969500D01*
X162432897Y-101976398D01*
X162280197Y-102008855D01*
X162280192Y-102008857D01*
X162107270Y-102085848D01*
X162107265Y-102085851D01*
X161954129Y-102197111D01*
X161827466Y-102337785D01*
X161732821Y-102501715D01*
X161732818Y-102501722D01*
X161686376Y-102644658D01*
X161674326Y-102681744D01*
X161654540Y-102870000D01*
X161674326Y-103058256D01*
X161674327Y-103058259D01*
X161732818Y-103238277D01*
X161732821Y-103238284D01*
X161827467Y-103402216D01*
X161914840Y-103499253D01*
X161954129Y-103542888D01*
X162107265Y-103654148D01*
X162107270Y-103654151D01*
X162280192Y-103731142D01*
X162280197Y-103731144D01*
X162465354Y-103770500D01*
X162465355Y-103770500D01*
X162654644Y-103770500D01*
X162654646Y-103770500D01*
X162839803Y-103731144D01*
X163012730Y-103654151D01*
X163165871Y-103542888D01*
X163292533Y-103402216D01*
X163387179Y-103238284D01*
X163445674Y-103058256D01*
X163463322Y-102890336D01*
X163489906Y-102825723D01*
X163498964Y-102815616D01*
X163521106Y-102793475D01*
X163668914Y-102608130D01*
X163795041Y-102407402D01*
X163897901Y-102193814D01*
X163976200Y-101970052D01*
X164028954Y-101738931D01*
X164028954Y-101738922D01*
X164028956Y-101738918D01*
X164036453Y-101672379D01*
X164063519Y-101607965D01*
X164121114Y-101568410D01*
X164131163Y-101565584D01*
X164137478Y-101564091D01*
X164137483Y-101564091D01*
X164272331Y-101513796D01*
X164387546Y-101427546D01*
X164473796Y-101312331D01*
X164524091Y-101177483D01*
X164530500Y-101117873D01*
X164530499Y-98522128D01*
X164524091Y-98462517D01*
X164473796Y-98327669D01*
X164473795Y-98327668D01*
X164473793Y-98327664D01*
X164387547Y-98212455D01*
X164387544Y-98212452D01*
X164272335Y-98126206D01*
X164272330Y-98126203D01*
X164136166Y-98075417D01*
X164080233Y-98033545D01*
X164055816Y-97968081D01*
X164055500Y-97959235D01*
X164055500Y-97307429D01*
X164075185Y-97240390D01*
X164127989Y-97194635D01*
X164197147Y-97184691D01*
X164260703Y-97213716D01*
X164269370Y-97221994D01*
X164374941Y-97333053D01*
X164500580Y-97420500D01*
X164541949Y-97449294D01*
X164541950Y-97449294D01*
X164541951Y-97449295D01*
X164728942Y-97529540D01*
X164928259Y-97570500D01*
X165080743Y-97570500D01*
X165232439Y-97555074D01*
X165426579Y-97494162D01*
X165426580Y-97494161D01*
X165426588Y-97494159D01*
X165604502Y-97395409D01*
X165758895Y-97262866D01*
X165883448Y-97101958D01*
X165973060Y-96919271D01*
X166024063Y-96722285D01*
X166034369Y-96519064D01*
X166003556Y-96317929D01*
X165932886Y-96127113D01*
X165825252Y-95954429D01*
X165685059Y-95806947D01*
X165563242Y-95722160D01*
X165518050Y-95690705D01*
X165331056Y-95610459D01*
X165131741Y-95569500D01*
X164979258Y-95569500D01*
X164979257Y-95569500D01*
X164827560Y-95584925D01*
X164633420Y-95645837D01*
X164633405Y-95645844D01*
X164455500Y-95744589D01*
X164455495Y-95744592D01*
X164301107Y-95877131D01*
X164277556Y-95907557D01*
X164220954Y-95948520D01*
X164151191Y-95952380D01*
X164090416Y-95917911D01*
X164057924Y-95856056D01*
X164055500Y-95831655D01*
X164055500Y-95541841D01*
X164055501Y-95541837D01*
X164055500Y-95517259D01*
X164055508Y-95517231D01*
X164055507Y-95438259D01*
X164055507Y-95371183D01*
X164030782Y-95183393D01*
X163981757Y-95000437D01*
X163909271Y-94825446D01*
X163814564Y-94661413D01*
X163814563Y-94661411D01*
X163759414Y-94589543D01*
X163699256Y-94511146D01*
X163699250Y-94511140D01*
X163699247Y-94511136D01*
X163635182Y-94447071D01*
X163629829Y-94440968D01*
X163611431Y-94416991D01*
X163595243Y-94388953D01*
X163595203Y-94388856D01*
X163588369Y-94372355D01*
X163579993Y-94341093D01*
X163576029Y-94310977D01*
X163575500Y-94302886D01*
X163575503Y-94231143D01*
X163575501Y-94231138D01*
X163575502Y-94227563D01*
X163575500Y-94227512D01*
X163575500Y-89105226D01*
X163595185Y-89038187D01*
X163628374Y-89003654D01*
X163821401Y-88868495D01*
X163943717Y-88746178D01*
X164005036Y-88712696D01*
X164074728Y-88717680D01*
X164130662Y-88759551D01*
X164147577Y-88790528D01*
X164196646Y-88922088D01*
X164196649Y-88922093D01*
X164282809Y-89037187D01*
X164282812Y-89037190D01*
X164397906Y-89123350D01*
X164397913Y-89123354D01*
X164532620Y-89173596D01*
X164532627Y-89173598D01*
X164592155Y-89179999D01*
X164592172Y-89180000D01*
X165240000Y-89180000D01*
X165240000Y-88265501D01*
X165347685Y-88314680D01*
X165454237Y-88330000D01*
X165525763Y-88330000D01*
X165632315Y-88314680D01*
X165740000Y-88265501D01*
X165740000Y-89180000D01*
X166387828Y-89180000D01*
X166387844Y-89179999D01*
X166447372Y-89173598D01*
X166447379Y-89173596D01*
X166582086Y-89123354D01*
X166582093Y-89123350D01*
X166697187Y-89037190D01*
X166697190Y-89037187D01*
X166783350Y-88922093D01*
X166783354Y-88922086D01*
X166833596Y-88787379D01*
X166833598Y-88787372D01*
X166839999Y-88727844D01*
X166840000Y-88727827D01*
X166840000Y-88080000D01*
X165923686Y-88080000D01*
X165949493Y-88039844D01*
X165990000Y-87901889D01*
X165990000Y-87758111D01*
X165949493Y-87620156D01*
X165923686Y-87580000D01*
X166840000Y-87580000D01*
X166840000Y-86932172D01*
X166839999Y-86932155D01*
X166833598Y-86872627D01*
X166833596Y-86872620D01*
X166783354Y-86737913D01*
X166783350Y-86737906D01*
X166697190Y-86622812D01*
X166697187Y-86622809D01*
X166582093Y-86536649D01*
X166582086Y-86536645D01*
X166447379Y-86486403D01*
X166447372Y-86486401D01*
X166387844Y-86480000D01*
X165740000Y-86480000D01*
X165740000Y-87394498D01*
X165632315Y-87345320D01*
X165525763Y-87330000D01*
X165454237Y-87330000D01*
X165347685Y-87345320D01*
X165240000Y-87394498D01*
X165240000Y-86480000D01*
X164592155Y-86480000D01*
X164532627Y-86486401D01*
X164532620Y-86486403D01*
X164397913Y-86536645D01*
X164397906Y-86536649D01*
X164282812Y-86622809D01*
X164282809Y-86622812D01*
X164196649Y-86737906D01*
X164196645Y-86737913D01*
X164147578Y-86869470D01*
X164105707Y-86925404D01*
X164040242Y-86949821D01*
X163971969Y-86934969D01*
X163943715Y-86913819D01*
X163899366Y-86869470D01*
X163821401Y-86791505D01*
X163821397Y-86791502D01*
X163821396Y-86791501D01*
X163627834Y-86655967D01*
X163627830Y-86655965D01*
X163556727Y-86622809D01*
X163413663Y-86556097D01*
X163413659Y-86556096D01*
X163413655Y-86556094D01*
X163185413Y-86494938D01*
X163185403Y-86494936D01*
X162950001Y-86474341D01*
X162949999Y-86474341D01*
X162714596Y-86494936D01*
X162714586Y-86494938D01*
X162486344Y-86556094D01*
X162486335Y-86556098D01*
X162272171Y-86655964D01*
X162272169Y-86655965D01*
X162078597Y-86791505D01*
X161911505Y-86958597D01*
X161781575Y-87144158D01*
X161726998Y-87187783D01*
X161657500Y-87194977D01*
X161595145Y-87163454D01*
X161578425Y-87144158D01*
X161448494Y-86958597D01*
X161281402Y-86791506D01*
X161281395Y-86791501D01*
X161087834Y-86655967D01*
X161087830Y-86655965D01*
X161016727Y-86622809D01*
X160873663Y-86556097D01*
X160873659Y-86556096D01*
X160873655Y-86556094D01*
X160645413Y-86494938D01*
X160645403Y-86494936D01*
X160410001Y-86474341D01*
X160409999Y-86474341D01*
X160174596Y-86494936D01*
X160174586Y-86494938D01*
X159946344Y-86556094D01*
X159946335Y-86556098D01*
X159732171Y-86655964D01*
X159732169Y-86655965D01*
X159538597Y-86791505D01*
X159371505Y-86958597D01*
X159241575Y-87144158D01*
X159186998Y-87187783D01*
X159117500Y-87194977D01*
X159055145Y-87163454D01*
X159038425Y-87144158D01*
X158908494Y-86958597D01*
X158741402Y-86791506D01*
X158741395Y-86791501D01*
X158547834Y-86655967D01*
X158547830Y-86655965D01*
X158476727Y-86622809D01*
X158333663Y-86556097D01*
X158333659Y-86556096D01*
X158333655Y-86556094D01*
X158105413Y-86494938D01*
X158105403Y-86494936D01*
X157870001Y-86474341D01*
X157869999Y-86474341D01*
X157634596Y-86494936D01*
X157634586Y-86494938D01*
X157406344Y-86556094D01*
X157406335Y-86556098D01*
X157192171Y-86655964D01*
X157192169Y-86655965D01*
X156998597Y-86791505D01*
X156831505Y-86958597D01*
X156695965Y-87152169D01*
X156695964Y-87152171D01*
X156596098Y-87366335D01*
X156596094Y-87366344D01*
X156534938Y-87594586D01*
X156534936Y-87594596D01*
X156514341Y-87829999D01*
X156514341Y-87830000D01*
X156534936Y-88065403D01*
X156534938Y-88065413D01*
X156596094Y-88293655D01*
X156596096Y-88293659D01*
X156596097Y-88293663D01*
X156640586Y-88389070D01*
X156695965Y-88507830D01*
X156695967Y-88507834D01*
X156804281Y-88662521D01*
X156831505Y-88701401D01*
X156998599Y-88868495D01*
X157191624Y-89003653D01*
X157235248Y-89058228D01*
X157244500Y-89105226D01*
X157244500Y-93146952D01*
X157244201Y-93153032D01*
X157237305Y-93223057D01*
X157232562Y-93246900D01*
X157214796Y-93305465D01*
X157205496Y-93327919D01*
X157176649Y-93381892D01*
X157163144Y-93402105D01*
X157118598Y-93456386D01*
X157114509Y-93460897D01*
X156641681Y-93933726D01*
X156580358Y-93967211D01*
X156510667Y-93962227D01*
X156454733Y-93920356D01*
X156430316Y-93854891D01*
X156430000Y-93846045D01*
X156430000Y-93570000D01*
X154230000Y-93570000D01*
X154230000Y-94617844D01*
X154236401Y-94677372D01*
X154236403Y-94677379D01*
X154286645Y-94812086D01*
X154286649Y-94812093D01*
X154372809Y-94927187D01*
X154372812Y-94927190D01*
X154487906Y-95013350D01*
X154487913Y-95013354D01*
X154622620Y-95063596D01*
X154622627Y-95063598D01*
X154682155Y-95069999D01*
X154682172Y-95070000D01*
X155185743Y-95070000D01*
X155252782Y-95089685D01*
X155298537Y-95142489D01*
X155309063Y-95206959D01*
X155304540Y-95250000D01*
X155324326Y-95438256D01*
X155324327Y-95438259D01*
X155382818Y-95618277D01*
X155382821Y-95618284D01*
X155477467Y-95782216D01*
X155604129Y-95922888D01*
X155753385Y-96031328D01*
X155796051Y-96086657D01*
X155804500Y-96131646D01*
X155804500Y-97959235D01*
X155784815Y-98026274D01*
X155732011Y-98072029D01*
X155723834Y-98075417D01*
X155587669Y-98126203D01*
X155587664Y-98126206D01*
X155472455Y-98212452D01*
X155472452Y-98212455D01*
X155386206Y-98327664D01*
X155386202Y-98327671D01*
X155335908Y-98462517D01*
X155329501Y-98522116D01*
X155329501Y-98522123D01*
X155329500Y-98522135D01*
X155329500Y-99070492D01*
X155309815Y-99137531D01*
X155257011Y-99183286D01*
X155205500Y-99194492D01*
X155051354Y-99194492D01*
X154973434Y-99202166D01*
X154705745Y-99228531D01*
X154705728Y-99228534D01*
X154365135Y-99296281D01*
X154365129Y-99296282D01*
X154032775Y-99397101D01*
X153711925Y-99530004D01*
X153405646Y-99693715D01*
X153405636Y-99693721D01*
X153116890Y-99886656D01*
X153116877Y-99886667D01*
X152848423Y-100106983D01*
X152764074Y-100191333D01*
X150617925Y-102337482D01*
X150614963Y-102340257D01*
X150463204Y-102473341D01*
X150456775Y-102478274D01*
X150290657Y-102589267D01*
X150283626Y-102593326D01*
X150104444Y-102681685D01*
X150096943Y-102684792D01*
X149907749Y-102749013D01*
X149899908Y-102751114D01*
X149823691Y-102766275D01*
X149754099Y-102760048D01*
X149698922Y-102717185D01*
X149675677Y-102651296D01*
X149675499Y-102644658D01*
X149675499Y-102132129D01*
X149675498Y-102132123D01*
X149675497Y-102132116D01*
X149669091Y-102072517D01*
X149663732Y-102058150D01*
X149618797Y-101937671D01*
X149618793Y-101937664D01*
X149532547Y-101822455D01*
X149444084Y-101756231D01*
X149402214Y-101700297D01*
X149397230Y-101630606D01*
X149420000Y-101588907D01*
X149420000Y-100080000D01*
X149920000Y-100080000D01*
X149920000Y-101580000D01*
X150317828Y-101580000D01*
X150317844Y-101579999D01*
X150377372Y-101573598D01*
X150377379Y-101573596D01*
X150512086Y-101523354D01*
X150512093Y-101523350D01*
X150627187Y-101437190D01*
X150627190Y-101437187D01*
X150713350Y-101322093D01*
X150713354Y-101322086D01*
X150763596Y-101187379D01*
X150763598Y-101187372D01*
X150769999Y-101127844D01*
X150770000Y-101127824D01*
X150770000Y-100080000D01*
X149920000Y-100080000D01*
X149420000Y-100080000D01*
X149420000Y-98080000D01*
X149920000Y-98080000D01*
X149920000Y-99580000D01*
X150770000Y-99580000D01*
X150770000Y-98532172D01*
X150769999Y-98532155D01*
X150763598Y-98472627D01*
X150763596Y-98472620D01*
X150713354Y-98337913D01*
X150713350Y-98337906D01*
X150627190Y-98222812D01*
X150627187Y-98222809D01*
X150512093Y-98136649D01*
X150512086Y-98136645D01*
X150377379Y-98086403D01*
X150377372Y-98086401D01*
X150317844Y-98080000D01*
X149920000Y-98080000D01*
X149420000Y-98080000D01*
X149324500Y-98080000D01*
X149257461Y-98060315D01*
X149211706Y-98007511D01*
X149200500Y-97956000D01*
X149200500Y-95965346D01*
X149220185Y-95898307D01*
X149232350Y-95882374D01*
X149264100Y-95847112D01*
X149322533Y-95782216D01*
X149417179Y-95618284D01*
X149475674Y-95438256D01*
X149495460Y-95250000D01*
X149475674Y-95061744D01*
X149475672Y-95061740D01*
X149474994Y-95055281D01*
X149477309Y-95055037D01*
X149481816Y-94995971D01*
X149523483Y-94940586D01*
X149527546Y-94937546D01*
X149613796Y-94822331D01*
X149664091Y-94687483D01*
X149670500Y-94627873D01*
X149670499Y-93070000D01*
X154230000Y-93070000D01*
X155080000Y-93070000D01*
X155080000Y-91570000D01*
X155580000Y-91570000D01*
X155580000Y-93070000D01*
X156430000Y-93070000D01*
X156430000Y-92022172D01*
X156429999Y-92022155D01*
X156423598Y-91962627D01*
X156423596Y-91962620D01*
X156373354Y-91827913D01*
X156373350Y-91827906D01*
X156287190Y-91712812D01*
X156287187Y-91712809D01*
X156172093Y-91626649D01*
X156172086Y-91626645D01*
X156037379Y-91576403D01*
X156037372Y-91576401D01*
X155977844Y-91570000D01*
X155580000Y-91570000D01*
X155080000Y-91570000D01*
X154682155Y-91570000D01*
X154622627Y-91576401D01*
X154622620Y-91576403D01*
X154487913Y-91626645D01*
X154487906Y-91626649D01*
X154372812Y-91712809D01*
X154372809Y-91712812D01*
X154286649Y-91827906D01*
X154286645Y-91827913D01*
X154236403Y-91962620D01*
X154236401Y-91962627D01*
X154230000Y-92022155D01*
X154230000Y-93070000D01*
X149670499Y-93070000D01*
X149670499Y-92032128D01*
X149664091Y-91972517D01*
X149660402Y-91962627D01*
X149613797Y-91837671D01*
X149613793Y-91837664D01*
X149527547Y-91722455D01*
X149527544Y-91722452D01*
X149412335Y-91636206D01*
X149412330Y-91636203D01*
X149276166Y-91585417D01*
X149220233Y-91543545D01*
X149195816Y-91478081D01*
X149195500Y-91469235D01*
X149195500Y-89895749D01*
X149195504Y-89895731D01*
X149195504Y-89844382D01*
X149195505Y-89844382D01*
X149195504Y-89696129D01*
X149162305Y-89401488D01*
X149096325Y-89112418D01*
X148998394Y-88832552D01*
X148869744Y-88565410D01*
X148711994Y-88314352D01*
X148711991Y-88314348D01*
X148710875Y-88312948D01*
X148710708Y-88312539D01*
X148709982Y-88311516D01*
X148710221Y-88311346D01*
X148684468Y-88248261D01*
X148688048Y-88203547D01*
X148725063Y-88065408D01*
X148745659Y-87830000D01*
X148725063Y-87594592D01*
X148663903Y-87366337D01*
X148564035Y-87152171D01*
X148558425Y-87144158D01*
X148428494Y-86958597D01*
X148261402Y-86791506D01*
X148261395Y-86791501D01*
X148067834Y-86655967D01*
X148067830Y-86655965D01*
X147996727Y-86622809D01*
X147853663Y-86556097D01*
X147853659Y-86556096D01*
X147853655Y-86556094D01*
X147625413Y-86494938D01*
X147625403Y-86494936D01*
X147390001Y-86474341D01*
X147389999Y-86474341D01*
X147154596Y-86494936D01*
X147154586Y-86494938D01*
X146926344Y-86556094D01*
X146926335Y-86556098D01*
X146712171Y-86655964D01*
X146712169Y-86655965D01*
X146518597Y-86791505D01*
X146351505Y-86958597D01*
X146221575Y-87144158D01*
X146166998Y-87187783D01*
X146097500Y-87194977D01*
X146035145Y-87163454D01*
X146018425Y-87144158D01*
X145888494Y-86958597D01*
X145721402Y-86791506D01*
X145721395Y-86791501D01*
X145527834Y-86655967D01*
X145527830Y-86655965D01*
X145456727Y-86622809D01*
X145313663Y-86556097D01*
X145313659Y-86556096D01*
X145313655Y-86556094D01*
X145085413Y-86494938D01*
X145085403Y-86494936D01*
X144850001Y-86474341D01*
X144849999Y-86474341D01*
X144614596Y-86494936D01*
X144614586Y-86494938D01*
X144386344Y-86556094D01*
X144386335Y-86556098D01*
X144172171Y-86655964D01*
X144172169Y-86655965D01*
X143978597Y-86791505D01*
X143811505Y-86958597D01*
X143681575Y-87144158D01*
X143626998Y-87187783D01*
X143557500Y-87194977D01*
X143495145Y-87163454D01*
X143478425Y-87144158D01*
X143348494Y-86958597D01*
X143181402Y-86791506D01*
X143181395Y-86791501D01*
X142987834Y-86655967D01*
X142987830Y-86655965D01*
X142916727Y-86622809D01*
X142773663Y-86556097D01*
X142773659Y-86556096D01*
X142773655Y-86556094D01*
X142545413Y-86494938D01*
X142545403Y-86494936D01*
X142310001Y-86474341D01*
X142309999Y-86474341D01*
X142074596Y-86494936D01*
X142074586Y-86494938D01*
X141846344Y-86556094D01*
X141846335Y-86556098D01*
X141632171Y-86655964D01*
X141632169Y-86655965D01*
X141438600Y-86791503D01*
X141316284Y-86913819D01*
X141254961Y-86947303D01*
X141185269Y-86942319D01*
X141129336Y-86900447D01*
X141112421Y-86869470D01*
X141063354Y-86737913D01*
X141063350Y-86737906D01*
X140977190Y-86622812D01*
X140977187Y-86622809D01*
X140862093Y-86536649D01*
X140862086Y-86536645D01*
X140727379Y-86486403D01*
X140727372Y-86486401D01*
X140667844Y-86480000D01*
X140020000Y-86480000D01*
X140020000Y-87394498D01*
X139912315Y-87345320D01*
X139805763Y-87330000D01*
X139734237Y-87330000D01*
X139627685Y-87345320D01*
X139520000Y-87394498D01*
X139520000Y-86480000D01*
X138872155Y-86480000D01*
X138812627Y-86486401D01*
X138812620Y-86486403D01*
X138677913Y-86536645D01*
X138677906Y-86536649D01*
X138562812Y-86622809D01*
X138562809Y-86622812D01*
X138476649Y-86737906D01*
X138476645Y-86737913D01*
X138426403Y-86872620D01*
X138426401Y-86872627D01*
X138420000Y-86932155D01*
X138420000Y-87580000D01*
X139336314Y-87580000D01*
X139310507Y-87620156D01*
X139270000Y-87758111D01*
X139270000Y-87901889D01*
X139310507Y-88039844D01*
X139336314Y-88080000D01*
X138420000Y-88080000D01*
X138420000Y-88727844D01*
X136144000Y-88727844D01*
X136144000Y-85722000D01*
X136163685Y-85654961D01*
X136216489Y-85609206D01*
X136268000Y-85598000D01*
X168786000Y-85598000D01*
X168853039Y-85617685D01*
G37*
%TD.AperFunction*%
%TD*%
M02*
