%TF.GenerationSoftware,KiCad,Pcbnew,7.0.6*%
%TF.CreationDate,2023-11-27T13:38:28-05:00*%
%TF.ProjectId,AudioAdder,41756469-6f41-4646-9465-722e6b696361,2*%
%TF.SameCoordinates,Original*%
%TF.FileFunction,Legend,Bot*%
%TF.FilePolarity,Positive*%
%FSLAX46Y46*%
G04 Gerber Fmt 4.6, Leading zero omitted, Abs format (unit mm)*
G04 Created by KiCad (PCBNEW 7.0.6) date 2023-11-27 13:38:28*
%MOMM*%
%LPD*%
G01*
G04 APERTURE LIST*
G04 APERTURE END LIST*
%TO.C,G\u002A\u002A\u002A*%
G36*
X150344819Y-96621466D02*
G01*
X150628075Y-96789877D01*
X150824344Y-97036551D01*
X150914251Y-97335870D01*
X150878418Y-97662213D01*
X150697468Y-97989960D01*
X150661500Y-98032206D01*
X150492690Y-98195481D01*
X150321168Y-98273622D01*
X150073034Y-98295853D01*
X149994171Y-98296118D01*
X149616073Y-98254280D01*
X149371801Y-98146557D01*
X149167838Y-97890559D01*
X149069120Y-97547550D01*
X149088546Y-97172454D01*
X149118006Y-97065858D01*
X149216094Y-96848213D01*
X149365181Y-96715796D01*
X149594859Y-96621915D01*
X149993955Y-96556939D01*
X150344819Y-96621466D01*
G37*
G36*
X147292208Y-91649758D02*
G01*
X147621045Y-91831441D01*
X147662018Y-91866326D01*
X147949867Y-92123318D01*
X147952433Y-93609772D01*
X147955000Y-95096226D01*
X147701000Y-95299693D01*
X147364532Y-95470424D01*
X146993470Y-95499347D01*
X146640902Y-95386043D01*
X146527002Y-95308978D01*
X146434805Y-95230923D01*
X146368018Y-95148798D01*
X146320703Y-95034075D01*
X146286922Y-94858226D01*
X146260736Y-94592725D01*
X146236208Y-94209045D01*
X146214255Y-93806565D01*
X146190762Y-93237880D01*
X146185065Y-92760617D01*
X146196995Y-92400801D01*
X146224864Y-92190061D01*
X146380828Y-91881525D01*
X146635263Y-91683098D01*
X146951336Y-91603076D01*
X147292208Y-91649758D01*
G37*
G36*
X156756340Y-91501453D02*
G01*
X156915611Y-91548204D01*
X157113493Y-91640280D01*
X157263491Y-91782238D01*
X157373225Y-91997041D01*
X157450312Y-92307647D01*
X157502374Y-92737018D01*
X157537028Y-93308115D01*
X157542367Y-93436924D01*
X157557518Y-93916422D01*
X157557533Y-94262196D01*
X157539905Y-94509382D01*
X157502130Y-94693117D01*
X157441701Y-94848538D01*
X157441697Y-94848548D01*
X157288353Y-95062018D01*
X157066590Y-95252892D01*
X156833166Y-95380411D01*
X156662871Y-95407803D01*
X156527900Y-95383516D01*
X156407009Y-95360435D01*
X156219682Y-95276450D01*
X156021642Y-95123168D01*
X156016170Y-95117746D01*
X155937777Y-95031270D01*
X155880940Y-94934164D01*
X155841019Y-94797752D01*
X155813373Y-94593362D01*
X155793360Y-94292320D01*
X155776340Y-93865951D01*
X155766890Y-93577615D01*
X155752215Y-92960695D01*
X155756115Y-92490113D01*
X155783876Y-92143397D01*
X155840787Y-91898074D01*
X155932135Y-91731672D01*
X156063206Y-91621718D01*
X156239289Y-91545740D01*
X156245426Y-91543717D01*
X156514671Y-91480505D01*
X156756340Y-91501453D01*
G37*
G36*
X154255289Y-96612460D02*
G01*
X154497057Y-96724684D01*
X154655699Y-96919468D01*
X154710525Y-97033579D01*
X154782288Y-97279671D01*
X154804633Y-97534788D01*
X154779717Y-97747213D01*
X154709701Y-97865233D01*
X154675416Y-97874667D01*
X154605111Y-97940808D01*
X154601333Y-97971166D01*
X154540425Y-98095267D01*
X154453166Y-98180140D01*
X154386018Y-98246308D01*
X154426654Y-98280780D01*
X154600152Y-98294121D01*
X154728333Y-98296045D01*
X154975303Y-98286691D01*
X155342132Y-98258677D01*
X155780901Y-98216234D01*
X156243689Y-98163593D01*
X156281774Y-98158887D01*
X156738043Y-98103145D01*
X157061510Y-98069483D01*
X157287379Y-98058801D01*
X157450851Y-98072000D01*
X157587129Y-98109980D01*
X157731414Y-98173643D01*
X157780159Y-98197221D01*
X158020501Y-98336185D01*
X158147030Y-98485338D01*
X158204640Y-98675739D01*
X158220201Y-99150567D01*
X158084970Y-99569986D01*
X157945645Y-99771669D01*
X157809045Y-99942164D01*
X157736679Y-100055316D01*
X157733247Y-100068002D01*
X157676142Y-100148212D01*
X157525726Y-100313857D01*
X157312117Y-100534450D01*
X157065434Y-100779501D01*
X156815796Y-101018524D01*
X156599803Y-101215346D01*
X156414209Y-101355448D01*
X156267317Y-101427912D01*
X156247025Y-101430667D01*
X156127548Y-101485476D01*
X156111222Y-101514253D01*
X156024918Y-101580843D01*
X155817357Y-101689225D01*
X155525520Y-101820909D01*
X155363333Y-101888188D01*
X154985552Y-102030882D01*
X154662613Y-102123101D01*
X154326792Y-102178807D01*
X153910364Y-102211961D01*
X153754666Y-102219826D01*
X153301349Y-102231647D01*
X152833778Y-102228636D01*
X152425817Y-102211822D01*
X152273000Y-102199167D01*
X151785229Y-102121895D01*
X151242228Y-101994009D01*
X150709668Y-101833972D01*
X150253220Y-101660249D01*
X150102472Y-101588915D01*
X149884843Y-101488363D01*
X149724077Y-101433874D01*
X149698623Y-101430667D01*
X149574138Y-101388332D01*
X149370297Y-101281304D01*
X149267333Y-101219000D01*
X149048444Y-101092468D01*
X148881954Y-101016818D01*
X148839634Y-101007334D01*
X148703889Y-100954080D01*
X148636659Y-100901500D01*
X148480484Y-100771458D01*
X148339216Y-100668667D01*
X148078131Y-100401296D01*
X147954314Y-100073794D01*
X147971067Y-99728062D01*
X148131693Y-99405996D01*
X148231220Y-99298459D01*
X148460305Y-99158799D01*
X148835210Y-99031265D01*
X149360676Y-98914972D01*
X150041447Y-98809034D01*
X150882265Y-98712565D01*
X151802046Y-98631352D01*
X152263226Y-98590722D01*
X152711010Y-98543429D01*
X153123920Y-98492838D01*
X153480480Y-98442314D01*
X153759210Y-98395220D01*
X153938635Y-98354923D01*
X153997276Y-98324786D01*
X153913656Y-98308174D01*
X153874495Y-98306680D01*
X153528054Y-98223733D01*
X153260153Y-98018774D01*
X153091979Y-97729119D01*
X153044721Y-97392080D01*
X153139565Y-97044972D01*
X153148429Y-97028000D01*
X153387878Y-96745904D01*
X153717056Y-96591354D01*
X154100798Y-96577552D01*
X154255289Y-96612460D01*
G37*
G36*
X157419243Y-89116408D02*
G01*
X158131174Y-89354983D01*
X158536643Y-89575431D01*
X158768221Y-89745269D01*
X159027345Y-89970282D01*
X159281010Y-90216929D01*
X159496213Y-90451664D01*
X159639949Y-90640942D01*
X159681333Y-90738845D01*
X159722747Y-90839219D01*
X159747966Y-90847334D01*
X159822460Y-90916193D01*
X159946138Y-91093692D01*
X160094082Y-91336210D01*
X160241379Y-91600124D01*
X160363112Y-91841813D01*
X160434367Y-92017658D01*
X160443333Y-92064754D01*
X160505366Y-92233129D01*
X160658520Y-92440521D01*
X160853377Y-92631484D01*
X161040522Y-92750572D01*
X161060885Y-92757635D01*
X161252269Y-92845927D01*
X161480648Y-92989501D01*
X161517184Y-93016160D01*
X161701028Y-93144450D01*
X161824996Y-93213931D01*
X161841339Y-93218000D01*
X161926398Y-93268265D01*
X162110124Y-93403315D01*
X162361096Y-93599536D01*
X162522265Y-93729758D01*
X163201317Y-94362577D01*
X163734802Y-95039502D01*
X164145869Y-95790188D01*
X164165842Y-95835245D01*
X164291656Y-96132827D01*
X164369735Y-96366033D01*
X164409095Y-96590854D01*
X164418756Y-96863281D01*
X164407736Y-97239305D01*
X164404482Y-97316911D01*
X164373359Y-97785941D01*
X164313876Y-98161969D01*
X164208255Y-98509378D01*
X164038717Y-98892551D01*
X163888081Y-99187000D01*
X163780277Y-99394748D01*
X163688241Y-99575099D01*
X163574773Y-99743922D01*
X163380819Y-99981324D01*
X163147104Y-100237642D01*
X163132808Y-100252432D01*
X162893063Y-100513984D01*
X162755665Y-100710946D01*
X162694216Y-100888720D01*
X162682231Y-101027308D01*
X162711757Y-101277685D01*
X162835354Y-101487904D01*
X162948431Y-101607203D01*
X163137625Y-101763868D01*
X163305904Y-101818454D01*
X163490231Y-101764206D01*
X163727571Y-101594366D01*
X163914773Y-101430570D01*
X164126081Y-101249576D01*
X164291153Y-101126724D01*
X164361427Y-101092000D01*
X164468297Y-101044627D01*
X164649587Y-100925810D01*
X164723521Y-100871144D01*
X164906527Y-100750775D01*
X165097910Y-100682345D01*
X165356091Y-100651141D01*
X165628039Y-100643323D01*
X166025175Y-100654744D01*
X166310674Y-100706087D01*
X166528713Y-100800678D01*
X166752941Y-100928766D01*
X166932486Y-101029886D01*
X166952047Y-101040703D01*
X167092632Y-101171310D01*
X167276522Y-101413812D01*
X167477125Y-101725868D01*
X167667849Y-102065140D01*
X167822100Y-102389287D01*
X167861687Y-102489000D01*
X167931164Y-102715288D01*
X167977638Y-102976242D01*
X168004894Y-103309784D01*
X168016716Y-103753834D01*
X168018014Y-104055334D01*
X168014664Y-104535131D01*
X168002299Y-104882960D01*
X167976299Y-105136129D01*
X167932045Y-105331946D01*
X167864916Y-105507719D01*
X167828615Y-105584898D01*
X167719525Y-105827073D01*
X167651416Y-106014062D01*
X167640000Y-106071731D01*
X167597722Y-106166329D01*
X167576500Y-106172184D01*
X167497840Y-106236894D01*
X167363472Y-106403037D01*
X167259000Y-106551323D01*
X167108643Y-106762449D01*
X166993134Y-106900848D01*
X166951763Y-106932139D01*
X166869123Y-106987505D01*
X166699899Y-107132000D01*
X166478361Y-107336143D01*
X166443763Y-107369106D01*
X166162339Y-107623832D01*
X165872538Y-107863136D01*
X165651417Y-108025272D01*
X165349925Y-108227530D01*
X165162878Y-108383083D01*
X165062889Y-108537735D01*
X165022573Y-108737290D01*
X165014543Y-109027550D01*
X165014416Y-109090650D01*
X164971596Y-109664742D01*
X164853901Y-110203049D01*
X164674827Y-110648841D01*
X164622239Y-110738889D01*
X164485869Y-110913502D01*
X164257460Y-111164549D01*
X163966489Y-111463623D01*
X163642432Y-111782321D01*
X163314764Y-112092235D01*
X163012963Y-112364961D01*
X162766504Y-112572093D01*
X162604863Y-112685226D01*
X162599995Y-112687682D01*
X162382555Y-112806063D01*
X162221333Y-112912615D01*
X162061475Y-113007617D01*
X161777505Y-113144786D01*
X161404621Y-113308898D01*
X160978023Y-113484731D01*
X160532911Y-113657064D01*
X160316333Y-113736470D01*
X158950998Y-114163964D01*
X157487782Y-114499378D01*
X155905076Y-114747374D01*
X155321000Y-114814164D01*
X155017817Y-114838614D01*
X154598126Y-114862397D01*
X154089840Y-114884859D01*
X153520872Y-114905348D01*
X152919133Y-114923211D01*
X152312536Y-114937796D01*
X151728994Y-114948449D01*
X151196419Y-114954517D01*
X150742724Y-114955349D01*
X150395822Y-114950291D01*
X150183624Y-114938690D01*
X150156333Y-114934946D01*
X150011656Y-114917326D01*
X149735241Y-114889898D01*
X149364161Y-114856135D01*
X148935489Y-114819512D01*
X148844000Y-114811978D01*
X147098799Y-114601382D01*
X145424748Y-114262996D01*
X143845757Y-113801794D01*
X143637000Y-113728904D01*
X143022617Y-113498327D01*
X142477640Y-113264420D01*
X141918726Y-112990091D01*
X141605000Y-112824569D01*
X141363896Y-112664516D01*
X141037686Y-112403866D01*
X140654987Y-112067484D01*
X140244415Y-111680237D01*
X139951216Y-111387572D01*
X139617693Y-111027907D01*
X139385040Y-110725946D01*
X139220544Y-110435329D01*
X139134579Y-110230300D01*
X138962799Y-109537507D01*
X138954876Y-108905446D01*
X141634165Y-108905446D01*
X141643204Y-109252479D01*
X141734219Y-109554791D01*
X141923893Y-109831753D01*
X142228911Y-110102734D01*
X142665957Y-110387106D01*
X143129000Y-110640977D01*
X143545486Y-110840418D01*
X144036987Y-111048931D01*
X144554321Y-111248128D01*
X145048305Y-111419615D01*
X145469758Y-111545003D01*
X145669000Y-111590767D01*
X145916815Y-111643102D01*
X146260150Y-111722831D01*
X146630821Y-111814044D01*
X146685000Y-111827844D01*
X147562795Y-112017569D01*
X148562554Y-112173885D01*
X149639600Y-112293441D01*
X150749252Y-112372887D01*
X151846831Y-112408871D01*
X152887658Y-112398045D01*
X153670000Y-112351665D01*
X154859223Y-112226951D01*
X156015554Y-112063445D01*
X157112347Y-111866542D01*
X158122958Y-111641635D01*
X159020742Y-111394119D01*
X159779056Y-111129389D01*
X159850666Y-111100334D01*
X160628540Y-110757504D01*
X161250058Y-110432899D01*
X161726275Y-110119305D01*
X162068248Y-109809508D01*
X162275799Y-109517913D01*
X162476152Y-109141550D01*
X162290101Y-108758601D01*
X162063131Y-108420187D01*
X161714369Y-108114673D01*
X161633525Y-108058522D01*
X161222931Y-107793381D01*
X160910971Y-107624672D01*
X160665710Y-107541006D01*
X160455210Y-107530997D01*
X160274101Y-107573822D01*
X159252429Y-107892255D01*
X158174607Y-108163379D01*
X157011356Y-108393122D01*
X155733398Y-108587413D01*
X154603585Y-108721856D01*
X154229392Y-108749456D01*
X153732304Y-108768100D01*
X153143412Y-108778261D01*
X152493807Y-108780414D01*
X151814579Y-108775030D01*
X151136820Y-108762583D01*
X150491621Y-108743546D01*
X149910073Y-108718391D01*
X149423268Y-108687592D01*
X149062296Y-108651622D01*
X148960733Y-108636006D01*
X148613896Y-108579999D01*
X148186288Y-108520167D01*
X147765710Y-108468730D01*
X147733067Y-108465133D01*
X146620977Y-108298255D01*
X145387665Y-108026553D01*
X144028545Y-107648994D01*
X143780917Y-107573046D01*
X143553552Y-107512923D01*
X143381490Y-107513272D01*
X143188568Y-107583818D01*
X143018917Y-107670329D01*
X142764382Y-107813906D01*
X142557637Y-107946146D01*
X142487333Y-108000032D01*
X142338472Y-108098058D01*
X142263270Y-108119334D01*
X142137971Y-108185191D01*
X141971924Y-108349039D01*
X141805613Y-108560291D01*
X141679520Y-108768359D01*
X141634165Y-108905446D01*
X138954876Y-108905446D01*
X138953831Y-108822098D01*
X139107742Y-108108231D01*
X139128482Y-108047990D01*
X139228026Y-107799004D01*
X139349385Y-107576696D01*
X139518347Y-107345828D01*
X139760702Y-107071161D01*
X140102166Y-106717530D01*
X140392465Y-106420861D01*
X140634085Y-106169065D01*
X140804913Y-105985553D01*
X140882840Y-105893735D01*
X140885333Y-105888355D01*
X140841664Y-105805996D01*
X140726073Y-105620390D01*
X140561680Y-105368437D01*
X140525500Y-105314109D01*
X140359407Y-105058953D01*
X140252930Y-104859716D01*
X140191040Y-104663711D01*
X140158712Y-104418253D01*
X140140918Y-104070655D01*
X140136589Y-103950534D01*
X140136769Y-103876805D01*
X142784582Y-103876805D01*
X142873729Y-104166153D01*
X143043519Y-104357935D01*
X143270510Y-104506790D01*
X143489490Y-104603364D01*
X143502015Y-104606722D01*
X143712946Y-104675634D01*
X143983233Y-104783452D01*
X144073917Y-104823522D01*
X144309212Y-104921651D01*
X144487088Y-104979808D01*
X144530277Y-104986667D01*
X144652534Y-105009143D01*
X144892328Y-105068991D01*
X145205030Y-105154842D01*
X145318089Y-105187370D01*
X146166854Y-105408497D01*
X147154584Y-105620376D01*
X148250952Y-105817365D01*
X149425629Y-105993820D01*
X150156333Y-106087601D01*
X150650040Y-106127459D01*
X151271595Y-106147712D01*
X151980799Y-106149599D01*
X152737454Y-106134357D01*
X153501361Y-106103224D01*
X154232322Y-106057438D01*
X154890138Y-105998236D01*
X155434612Y-105926856D01*
X155448000Y-105924667D01*
X155463349Y-105921896D01*
X163119489Y-105921896D01*
X163611635Y-106419232D01*
X164103781Y-106916567D01*
X164474890Y-106654985D01*
X164682165Y-106496788D01*
X164816866Y-106370768D01*
X164846000Y-106322940D01*
X164915784Y-106244231D01*
X165057666Y-106172000D01*
X165215316Y-106068879D01*
X165269333Y-105962429D01*
X165312877Y-105848396D01*
X165351080Y-105833334D01*
X165481633Y-105769138D01*
X165663747Y-105604909D01*
X165857619Y-105383180D01*
X166023443Y-105146487D01*
X166067702Y-105067568D01*
X166202763Y-104671545D01*
X166265810Y-104188249D01*
X166253808Y-103685054D01*
X166163722Y-103229334D01*
X166152099Y-103194165D01*
X166004363Y-102835425D01*
X165848822Y-102578916D01*
X165701549Y-102445271D01*
X165578615Y-102455124D01*
X165577302Y-102456242D01*
X165462529Y-102547184D01*
X165257143Y-102703251D01*
X165023858Y-102877121D01*
X164649056Y-103156658D01*
X164389990Y-103362580D01*
X164225312Y-103520682D01*
X164133678Y-103656759D01*
X164093742Y-103796606D01*
X164084156Y-103966018D01*
X164084000Y-104012864D01*
X164049259Y-104269089D01*
X163959454Y-104596750D01*
X163836206Y-104936210D01*
X163701140Y-105227835D01*
X163577151Y-105410734D01*
X163496800Y-105497539D01*
X163355182Y-105655577D01*
X163326578Y-105687849D01*
X163119489Y-105921896D01*
X155463349Y-105921896D01*
X156732481Y-105692782D01*
X157863997Y-105445422D01*
X158837853Y-105183773D01*
X159649354Y-104909016D01*
X159930052Y-104794582D01*
X160229344Y-104682902D01*
X160524612Y-104599511D01*
X160605179Y-104583611D01*
X160946522Y-104463231D01*
X161187498Y-104250852D01*
X161314439Y-103981226D01*
X161313677Y-103689102D01*
X161171545Y-103409232D01*
X161097699Y-103331373D01*
X160744144Y-103083513D01*
X160393339Y-102990829D01*
X160204624Y-103009477D01*
X160053778Y-103052628D01*
X159772004Y-103139194D01*
X159389249Y-103259746D01*
X158935461Y-103404854D01*
X158457430Y-103559604D01*
X157430695Y-103881556D01*
X156519802Y-104137254D01*
X155687658Y-104333136D01*
X154897171Y-104475642D01*
X154111246Y-104571213D01*
X153292792Y-104626287D01*
X152404715Y-104647306D01*
X152188333Y-104648000D01*
X150630422Y-104595489D01*
X149149716Y-104432374D01*
X147699949Y-104150287D01*
X146234857Y-103740857D01*
X145203333Y-103384363D01*
X144668960Y-103189963D01*
X144262535Y-103056473D01*
X143954339Y-102983028D01*
X143714658Y-102968763D01*
X143513776Y-103012811D01*
X143321976Y-103114307D01*
X143109542Y-103272385D01*
X143048566Y-103321587D01*
X142842931Y-103580978D01*
X142784582Y-103876805D01*
X140136769Y-103876805D01*
X140137829Y-103443368D01*
X140193979Y-103031855D01*
X140323435Y-102671391D01*
X140544590Y-102317375D01*
X140875841Y-101925202D01*
X141046429Y-101744396D01*
X141287572Y-101478665D01*
X141474086Y-101243994D01*
X141579607Y-101075053D01*
X141593718Y-101024729D01*
X141534174Y-100910742D01*
X141377041Y-100707895D01*
X141146381Y-100445119D01*
X140873165Y-100158329D01*
X140442890Y-99695283D01*
X140127698Y-99287359D01*
X139899964Y-98898526D01*
X139887262Y-98872497D01*
X139766227Y-98610278D01*
X139687630Y-98392746D01*
X139642375Y-98169857D01*
X139621364Y-97891569D01*
X139615500Y-97507841D01*
X139615333Y-97376659D01*
X139616310Y-97231464D01*
X141404150Y-97231464D01*
X141442856Y-97687987D01*
X141634880Y-98188089D01*
X141933693Y-98663191D01*
X142062720Y-98801885D01*
X142276719Y-98996209D01*
X142540497Y-99218155D01*
X142818857Y-99439716D01*
X143076605Y-99632881D01*
X143278544Y-99769645D01*
X143389479Y-99821997D01*
X143389863Y-99822000D01*
X143490338Y-99869074D01*
X143665977Y-99986632D01*
X143729192Y-100033667D01*
X143931053Y-100167837D01*
X144091420Y-100240867D01*
X144120518Y-100245334D01*
X144252548Y-100281985D01*
X144479314Y-100377090D01*
X144697667Y-100482901D01*
X145005349Y-100633937D01*
X145302881Y-100769201D01*
X145457333Y-100832780D01*
X145719010Y-100936960D01*
X146097451Y-101094291D01*
X146554850Y-101288778D01*
X147053400Y-101504423D01*
X147297910Y-101611496D01*
X147541189Y-101707175D01*
X147733456Y-101763237D01*
X147781609Y-101769334D01*
X147929171Y-101798721D01*
X148166163Y-101873609D01*
X148311698Y-101927466D01*
X148573391Y-102011623D01*
X148961250Y-102113551D01*
X149434293Y-102223912D01*
X149951537Y-102333369D01*
X150471998Y-102432585D01*
X150706666Y-102473122D01*
X150861593Y-102485807D01*
X151151614Y-102497958D01*
X151542491Y-102508567D01*
X151999987Y-102516624D01*
X152290944Y-102519803D01*
X152914973Y-102518988D01*
X153419197Y-102502408D01*
X153852704Y-102466513D01*
X154264580Y-102407750D01*
X154534611Y-102357479D01*
X155109449Y-102230539D01*
X155688399Y-102081043D01*
X156231514Y-101920984D01*
X156698844Y-101762354D01*
X157050442Y-101617145D01*
X157122741Y-101580508D01*
X157340002Y-101480696D01*
X157509946Y-101431692D01*
X157526591Y-101430667D01*
X157673110Y-101388306D01*
X157888666Y-101282180D01*
X157968515Y-101235023D01*
X158364695Y-101011756D01*
X158778617Y-100815121D01*
X159152936Y-100670597D01*
X159370065Y-100612299D01*
X159931262Y-100436896D01*
X160506026Y-100130489D01*
X161064274Y-99721324D01*
X161575921Y-99237645D01*
X162010886Y-98707700D01*
X162339086Y-98159733D01*
X162523918Y-97651070D01*
X162569676Y-97093473D01*
X162450438Y-96541630D01*
X162170530Y-96003131D01*
X161734280Y-95485566D01*
X161146015Y-94996523D01*
X160924642Y-94846171D01*
X160711422Y-94703814D01*
X160563447Y-94597244D01*
X160528000Y-94566641D01*
X160433806Y-94504282D01*
X160236539Y-94397008D01*
X160067653Y-94311848D01*
X159734354Y-94109752D01*
X159414675Y-93849743D01*
X159149059Y-93571050D01*
X158977952Y-93312901D01*
X158944628Y-93222592D01*
X158867128Y-93010191D01*
X158731680Y-92717828D01*
X158568714Y-92403991D01*
X158408664Y-92127164D01*
X158281960Y-91945835D01*
X158277960Y-91941333D01*
X158179972Y-91807883D01*
X158157333Y-91748247D01*
X158096565Y-91658737D01*
X157940400Y-91501702D01*
X157728048Y-91312354D01*
X157498715Y-91125907D01*
X157319793Y-90996058D01*
X156968270Y-90860070D01*
X156542995Y-90861596D01*
X156061353Y-90995435D01*
X155540728Y-91256384D01*
X154998503Y-91639241D01*
X154900831Y-91719956D01*
X154634292Y-91925376D01*
X154389854Y-92052352D01*
X154092033Y-92134432D01*
X153884831Y-92171510D01*
X153534514Y-92218718D01*
X153304726Y-92222394D01*
X153152246Y-92182127D01*
X153119666Y-92164247D01*
X152883661Y-92060920D01*
X152553043Y-91964096D01*
X152202116Y-91892122D01*
X151905185Y-91863343D01*
X151900972Y-91863333D01*
X151651069Y-91886161D01*
X151347368Y-91945174D01*
X151041592Y-92026167D01*
X150785464Y-92114933D01*
X150630707Y-92197267D01*
X150612618Y-92217180D01*
X150532474Y-92263881D01*
X150362332Y-92253729D01*
X150069785Y-92184369D01*
X150037089Y-92175349D01*
X149736567Y-92099269D01*
X149480677Y-92047508D01*
X149350550Y-92032667D01*
X149181423Y-91963945D01*
X149116438Y-91874434D01*
X148944260Y-91623844D01*
X148643224Y-91378443D01*
X148253038Y-91159526D01*
X147813410Y-90988389D01*
X147364048Y-90886328D01*
X147250502Y-90873733D01*
X146908801Y-90855465D01*
X146648616Y-90879008D01*
X146386633Y-90958699D01*
X146134814Y-91065748D01*
X145826633Y-91220606D01*
X145554526Y-91385884D01*
X145393104Y-91511926D01*
X145167844Y-91835328D01*
X145012479Y-92258008D01*
X144949679Y-92716629D01*
X144949333Y-92751688D01*
X144914743Y-93048811D01*
X144827204Y-93387963D01*
X144774736Y-93530880D01*
X144653718Y-93775327D01*
X144497660Y-93972321D01*
X144263424Y-94168282D01*
X144036410Y-94325337D01*
X143760010Y-94506860D01*
X143533552Y-94651895D01*
X143397666Y-94734516D01*
X143383422Y-94742000D01*
X143209017Y-94856864D01*
X142967535Y-95057865D01*
X142686433Y-95317020D01*
X142393170Y-95606346D01*
X142115204Y-95897858D01*
X141879995Y-96163573D01*
X141715000Y-96375507D01*
X141647679Y-96505677D01*
X141647333Y-96511290D01*
X141611267Y-96632076D01*
X141524164Y-96821452D01*
X141520854Y-96827822D01*
X141404150Y-97231464D01*
X139616310Y-97231464D01*
X139618142Y-96959213D01*
X139632996Y-96661237D01*
X139669537Y-96432887D01*
X139737406Y-96224315D01*
X139846244Y-95985677D01*
X139908650Y-95860195D01*
X140066699Y-95564219D01*
X140213844Y-95321057D01*
X140321463Y-95177515D01*
X140331983Y-95167837D01*
X140440434Y-95038609D01*
X140462000Y-94972799D01*
X140519118Y-94889852D01*
X140671546Y-94719683D01*
X140890887Y-94490709D01*
X141148750Y-94231342D01*
X141416739Y-93969999D01*
X141666461Y-93735092D01*
X141869521Y-93555037D01*
X141920428Y-93513312D01*
X142151310Y-93339272D01*
X142424475Y-93146518D01*
X142693566Y-92966241D01*
X142912223Y-92829631D01*
X143023166Y-92771382D01*
X143110960Y-92701237D01*
X143156653Y-92549015D01*
X143171219Y-92274321D01*
X143171400Y-92225824D01*
X143200377Y-91852078D01*
X143301000Y-91490424D01*
X143430946Y-91187837D01*
X143584048Y-90876455D01*
X143719322Y-90647150D01*
X143878061Y-90442478D01*
X144101553Y-90204998D01*
X144229666Y-90076681D01*
X144746634Y-89675740D01*
X145375924Y-89373372D01*
X146088110Y-89175510D01*
X146853770Y-89088088D01*
X147643479Y-89117038D01*
X148346716Y-89246521D01*
X148884643Y-89408655D01*
X149324888Y-89601835D01*
X149739056Y-89861078D01*
X149987000Y-90048728D01*
X150196226Y-90204836D01*
X150341958Y-90267370D01*
X150489502Y-90252686D01*
X150622000Y-90207748D01*
X150892338Y-90146867D01*
X151280392Y-90108129D01*
X151736015Y-90091417D01*
X152209057Y-90096619D01*
X152649371Y-90123618D01*
X153006808Y-90172301D01*
X153165471Y-90213558D01*
X153458289Y-90286288D01*
X153690189Y-90287334D01*
X153822523Y-90219521D01*
X153839333Y-90164295D01*
X153907697Y-90093566D01*
X153962126Y-90085334D01*
X154109644Y-90020005D01*
X154152626Y-89967718D01*
X154223787Y-89885261D01*
X154366410Y-89780105D01*
X154606879Y-89635098D01*
X154971581Y-89433083D01*
X154991900Y-89422072D01*
X155387208Y-89258736D01*
X155877730Y-89130025D01*
X156390298Y-89052638D01*
X156675666Y-89037800D01*
X157419243Y-89116408D01*
G37*
%TD*%
M02*
