%TF.GenerationSoftware,KiCad,Pcbnew,7.0.6*%
%TF.CreationDate,2023-11-27T13:38:28-05:00*%
%TF.ProjectId,AudioAdder,41756469-6f41-4646-9465-722e6b696361,2*%
%TF.SameCoordinates,Original*%
%TF.FileFunction,Soldermask,Top*%
%TF.FilePolarity,Negative*%
%FSLAX46Y46*%
G04 Gerber Fmt 4.6, Leading zero omitted, Abs format (unit mm)*
G04 Created by KiCad (PCBNEW 7.0.6) date 2023-11-27 13:38:28*
%MOMM*%
%LPD*%
G01*
G04 APERTURE LIST*
%ADD10R,1.700000X1.700000*%
%ADD11O,1.700000X1.700000*%
%ADD12C,1.500000*%
%ADD13R,1.200000X2.500000*%
G04 APERTURE END LIST*
D10*
%TO.C,REF\u002A\u002A*%
X165490000Y-87830000D03*
D11*
X162950000Y-87830000D03*
X160410000Y-87830000D03*
X157870000Y-87830000D03*
%TD*%
D10*
%TO.C,REF\u002A\u002A*%
X165100000Y-116332000D03*
D11*
X162560000Y-116332000D03*
X160020000Y-116332000D03*
X157480000Y-116332000D03*
%TD*%
D12*
%TO.C,J2*%
X165025008Y-106665530D03*
X158025008Y-106665530D03*
D13*
X160425008Y-109915530D03*
X163425008Y-109915530D03*
X155325008Y-103415530D03*
X156425008Y-109915530D03*
%TD*%
D10*
%TO.C,Header 1*%
X139700000Y-116332000D03*
D11*
X142240000Y-116332000D03*
X144780000Y-116332000D03*
X147320000Y-116332000D03*
%TD*%
D12*
%TO.C,J1*%
X165030000Y-96570000D03*
X158030000Y-96570000D03*
D13*
X160430000Y-99820000D03*
X163430000Y-99820000D03*
X155330000Y-93320000D03*
X156430000Y-99820000D03*
%TD*%
D12*
%TO.C,J3*%
X139975000Y-106680000D03*
X146975000Y-106680000D03*
D13*
X144575000Y-103430000D03*
X141575000Y-103430000D03*
X149675000Y-109930000D03*
X148575000Y-103430000D03*
%TD*%
D12*
%TO.C,J4*%
X139970000Y-96580000D03*
X146970000Y-96580000D03*
D13*
X144570000Y-93330000D03*
X141570000Y-93330000D03*
X149670000Y-99830000D03*
X148570000Y-93330000D03*
%TD*%
D10*
%TO.C,REF\u002A\u002A*%
X139770000Y-87830000D03*
D11*
X142310000Y-87830000D03*
X144850000Y-87830000D03*
X147390000Y-87830000D03*
%TD*%
M02*
