%TF.GenerationSoftware,KiCad,Pcbnew,7.0.6*%
%TF.CreationDate,2023-11-27T13:38:28-05:00*%
%TF.ProjectId,AudioAdder,41756469-6f41-4646-9465-722e6b696361,2*%
%TF.SameCoordinates,Original*%
%TF.FileFunction,Copper,L2,Bot*%
%TF.FilePolarity,Positive*%
%FSLAX46Y46*%
G04 Gerber Fmt 4.6, Leading zero omitted, Abs format (unit mm)*
G04 Created by KiCad (PCBNEW 7.0.6) date 2023-11-27 13:38:28*
%MOMM*%
%LPD*%
G01*
G04 APERTURE LIST*
%TA.AperFunction,ComponentPad*%
%ADD10R,1.700000X1.700000*%
%TD*%
%TA.AperFunction,ComponentPad*%
%ADD11O,1.700000X1.700000*%
%TD*%
%TA.AperFunction,ViaPad*%
%ADD12C,0.800000*%
%TD*%
%TA.AperFunction,Conductor*%
%ADD13C,0.250000*%
%TD*%
G04 APERTURE END LIST*
D10*
%TO.P,REF\u002A\u002A,1*%
%TO.N,Ground*%
X165490000Y-87830000D03*
D11*
%TO.P,REF\u002A\u002A,2*%
%TO.N,Microphone*%
X162950000Y-87830000D03*
%TO.P,REF\u002A\u002A,3*%
%TO.N,Right Ch.*%
X160410000Y-87830000D03*
%TO.P,REF\u002A\u002A,4*%
%TO.N,Left Ch.*%
X157870000Y-87830000D03*
%TD*%
D10*
%TO.P,REF\u002A\u002A,1*%
%TO.N,Ground*%
X165100000Y-116332000D03*
D11*
%TO.P,REF\u002A\u002A,2*%
%TO.N,Microphone*%
X162560000Y-116332000D03*
%TO.P,REF\u002A\u002A,3*%
%TO.N,Right Ch.*%
X160020000Y-116332000D03*
%TO.P,REF\u002A\u002A,4*%
%TO.N,Left Ch.*%
X157480000Y-116332000D03*
%TD*%
D10*
%TO.P,Header 1,1*%
%TO.N,Ground*%
X139700000Y-116332000D03*
D11*
%TO.P,Header 1,2*%
%TO.N,Microphone*%
X142240000Y-116332000D03*
%TO.P,Header 1,3*%
%TO.N,Right Ch.*%
X144780000Y-116332000D03*
%TO.P,Header 1,4*%
%TO.N,Left Ch.*%
X147320000Y-116332000D03*
%TD*%
D10*
%TO.P,REF\u002A\u002A,1*%
%TO.N,Ground*%
X139770000Y-87830000D03*
D11*
%TO.P,REF\u002A\u002A,2*%
%TO.N,Microphone*%
X142310000Y-87830000D03*
%TO.P,REF\u002A\u002A,3*%
%TO.N,Right Ch.*%
X144850000Y-87830000D03*
%TO.P,REF\u002A\u002A,4*%
%TO.N,Left Ch.*%
X147390000Y-87830000D03*
%TD*%
D12*
%TO.N,Right Ch.*%
X160020000Y-91440000D03*
X144780000Y-91440000D03*
%TO.N,Microphone*%
X162560000Y-106680000D03*
X142240000Y-96520000D03*
X142240000Y-100330000D03*
X142300000Y-112500000D03*
X163500000Y-112500000D03*
X162560000Y-102870000D03*
%TO.N,Left Ch.*%
X148590000Y-95250000D03*
X157480000Y-102870000D03*
X148590000Y-105410000D03*
X156210000Y-95250000D03*
X147320000Y-109220000D03*
X156210000Y-106680000D03*
%TD*%
D13*
%TO.N,Right Ch.*%
X144780000Y-91440000D02*
X160020000Y-91440000D01*
%TO.N,Microphone*%
X162560000Y-106680000D02*
X162560000Y-102870000D01*
X142240000Y-100330000D02*
X142240000Y-96520000D01*
X142300000Y-112500000D02*
X163500000Y-112500000D01*
%TO.N,Left Ch.*%
X156210000Y-95250000D02*
X148590000Y-95250000D01*
X147320000Y-109220000D02*
X147955000Y-108585000D01*
X148590000Y-105410000D02*
X148590000Y-107051974D01*
X156210000Y-106680000D02*
X156210000Y-106045000D01*
X157030986Y-104589012D02*
X156659012Y-104960987D01*
X157480000Y-102870000D02*
X157480000Y-103505000D01*
X147955008Y-108585008D02*
G75*
G03*
X148590000Y-107051974I-1533008J1533008D01*
G01*
X156659018Y-104960993D02*
G75*
G03*
X156210000Y-106045000I1083982J-1084007D01*
G01*
X157030982Y-104589008D02*
G75*
G03*
X157480000Y-103505000I-1083982J1084008D01*
G01*
%TD*%
%TA.AperFunction,Conductor*%
%TO.N,Ground*%
G36*
X168853039Y-85617685D02*
G01*
X168898794Y-85670489D01*
X168910000Y-85722000D01*
X168910000Y-118240000D01*
X168890315Y-118307039D01*
X168837511Y-118352794D01*
X168786000Y-118364000D01*
X136268000Y-118364000D01*
X136200961Y-118344315D01*
X136155206Y-118291511D01*
X136144000Y-118240000D01*
X136144000Y-116332000D01*
X140884341Y-116332000D01*
X140904936Y-116567403D01*
X140904938Y-116567413D01*
X140966094Y-116795655D01*
X140966096Y-116795659D01*
X140966097Y-116795663D01*
X140970000Y-116804032D01*
X141065965Y-117009830D01*
X141065967Y-117009834D01*
X141174281Y-117164521D01*
X141201505Y-117203401D01*
X141368599Y-117370495D01*
X141465384Y-117438264D01*
X141562165Y-117506032D01*
X141562167Y-117506033D01*
X141562170Y-117506035D01*
X141776337Y-117605903D01*
X142004592Y-117667063D01*
X142192918Y-117683539D01*
X142239999Y-117687659D01*
X142240000Y-117687659D01*
X142240001Y-117687659D01*
X142279234Y-117684226D01*
X142475408Y-117667063D01*
X142703663Y-117605903D01*
X142917830Y-117506035D01*
X143111401Y-117370495D01*
X143278495Y-117203401D01*
X143408424Y-117017842D01*
X143463002Y-116974217D01*
X143532500Y-116967023D01*
X143594855Y-116998546D01*
X143611575Y-117017842D01*
X143741500Y-117203395D01*
X143741505Y-117203401D01*
X143908599Y-117370495D01*
X144005384Y-117438264D01*
X144102165Y-117506032D01*
X144102167Y-117506033D01*
X144102170Y-117506035D01*
X144316337Y-117605903D01*
X144544592Y-117667063D01*
X144732918Y-117683539D01*
X144779999Y-117687659D01*
X144780000Y-117687659D01*
X144780001Y-117687659D01*
X144819234Y-117684226D01*
X145015408Y-117667063D01*
X145243663Y-117605903D01*
X145457830Y-117506035D01*
X145651401Y-117370495D01*
X145818495Y-117203401D01*
X145948424Y-117017842D01*
X146003002Y-116974217D01*
X146072500Y-116967023D01*
X146134855Y-116998546D01*
X146151575Y-117017842D01*
X146281500Y-117203395D01*
X146281505Y-117203401D01*
X146448599Y-117370495D01*
X146545384Y-117438264D01*
X146642165Y-117506032D01*
X146642167Y-117506033D01*
X146642170Y-117506035D01*
X146856337Y-117605903D01*
X147084592Y-117667063D01*
X147272918Y-117683539D01*
X147319999Y-117687659D01*
X147320000Y-117687659D01*
X147320001Y-117687659D01*
X147359234Y-117684226D01*
X147555408Y-117667063D01*
X147783663Y-117605903D01*
X147997830Y-117506035D01*
X148191401Y-117370495D01*
X148358495Y-117203401D01*
X148494035Y-117009830D01*
X148593903Y-116795663D01*
X148655063Y-116567408D01*
X148675659Y-116332000D01*
X156124341Y-116332000D01*
X156144936Y-116567403D01*
X156144938Y-116567413D01*
X156206094Y-116795655D01*
X156206096Y-116795659D01*
X156206097Y-116795663D01*
X156210000Y-116804032D01*
X156305965Y-117009830D01*
X156305967Y-117009834D01*
X156414281Y-117164521D01*
X156441505Y-117203401D01*
X156608599Y-117370495D01*
X156705384Y-117438264D01*
X156802165Y-117506032D01*
X156802167Y-117506033D01*
X156802170Y-117506035D01*
X157016337Y-117605903D01*
X157244592Y-117667063D01*
X157432918Y-117683539D01*
X157479999Y-117687659D01*
X157480000Y-117687659D01*
X157480001Y-117687659D01*
X157519234Y-117684226D01*
X157715408Y-117667063D01*
X157943663Y-117605903D01*
X158157830Y-117506035D01*
X158351401Y-117370495D01*
X158518495Y-117203401D01*
X158648424Y-117017842D01*
X158703002Y-116974217D01*
X158772500Y-116967023D01*
X158834855Y-116998546D01*
X158851575Y-117017842D01*
X158981500Y-117203395D01*
X158981505Y-117203401D01*
X159148599Y-117370495D01*
X159245384Y-117438264D01*
X159342165Y-117506032D01*
X159342167Y-117506033D01*
X159342170Y-117506035D01*
X159556337Y-117605903D01*
X159784592Y-117667063D01*
X159972918Y-117683539D01*
X160019999Y-117687659D01*
X160020000Y-117687659D01*
X160020001Y-117687659D01*
X160059234Y-117684226D01*
X160255408Y-117667063D01*
X160483663Y-117605903D01*
X160697830Y-117506035D01*
X160891401Y-117370495D01*
X161058495Y-117203401D01*
X161188424Y-117017842D01*
X161243002Y-116974217D01*
X161312500Y-116967023D01*
X161374855Y-116998546D01*
X161391575Y-117017842D01*
X161521500Y-117203395D01*
X161521505Y-117203401D01*
X161688599Y-117370495D01*
X161785384Y-117438265D01*
X161882165Y-117506032D01*
X161882167Y-117506033D01*
X161882170Y-117506035D01*
X162096337Y-117605903D01*
X162324592Y-117667063D01*
X162512918Y-117683539D01*
X162559999Y-117687659D01*
X162560000Y-117687659D01*
X162560001Y-117687659D01*
X162599234Y-117684226D01*
X162795408Y-117667063D01*
X163023663Y-117605903D01*
X163237830Y-117506035D01*
X163431401Y-117370495D01*
X163598495Y-117203401D01*
X163734035Y-117009830D01*
X163833903Y-116795663D01*
X163895063Y-116567408D01*
X163915659Y-116332000D01*
X163895063Y-116096592D01*
X163833903Y-115868337D01*
X163734035Y-115654171D01*
X163728425Y-115646158D01*
X163598494Y-115460597D01*
X163431402Y-115293506D01*
X163431395Y-115293501D01*
X163237834Y-115157967D01*
X163237830Y-115157965D01*
X163237828Y-115157964D01*
X163023663Y-115058097D01*
X163023659Y-115058096D01*
X163023655Y-115058094D01*
X162795413Y-114996938D01*
X162795403Y-114996936D01*
X162560001Y-114976341D01*
X162559999Y-114976341D01*
X162324596Y-114996936D01*
X162324586Y-114996938D01*
X162096344Y-115058094D01*
X162096335Y-115058098D01*
X161882171Y-115157964D01*
X161882169Y-115157965D01*
X161688597Y-115293505D01*
X161521505Y-115460597D01*
X161391575Y-115646158D01*
X161336998Y-115689783D01*
X161267500Y-115696977D01*
X161205145Y-115665454D01*
X161188425Y-115646158D01*
X161058494Y-115460597D01*
X160891402Y-115293506D01*
X160891395Y-115293501D01*
X160697834Y-115157967D01*
X160697830Y-115157965D01*
X160697828Y-115157964D01*
X160483663Y-115058097D01*
X160483659Y-115058096D01*
X160483655Y-115058094D01*
X160255413Y-114996938D01*
X160255403Y-114996936D01*
X160020001Y-114976341D01*
X160019999Y-114976341D01*
X159784596Y-114996936D01*
X159784586Y-114996938D01*
X159556344Y-115058094D01*
X159556335Y-115058098D01*
X159342171Y-115157964D01*
X159342169Y-115157965D01*
X159148597Y-115293505D01*
X158981505Y-115460597D01*
X158851575Y-115646158D01*
X158796998Y-115689783D01*
X158727500Y-115696977D01*
X158665145Y-115665454D01*
X158648425Y-115646158D01*
X158518494Y-115460597D01*
X158351402Y-115293506D01*
X158351395Y-115293501D01*
X158157834Y-115157967D01*
X158157830Y-115157965D01*
X158157828Y-115157964D01*
X157943663Y-115058097D01*
X157943659Y-115058096D01*
X157943655Y-115058094D01*
X157715413Y-114996938D01*
X157715403Y-114996936D01*
X157480001Y-114976341D01*
X157479999Y-114976341D01*
X157244596Y-114996936D01*
X157244586Y-114996938D01*
X157016344Y-115058094D01*
X157016335Y-115058098D01*
X156802171Y-115157964D01*
X156802169Y-115157965D01*
X156608597Y-115293505D01*
X156441505Y-115460597D01*
X156305965Y-115654169D01*
X156305964Y-115654171D01*
X156206098Y-115868335D01*
X156206094Y-115868344D01*
X156144938Y-116096586D01*
X156144936Y-116096596D01*
X156124341Y-116331999D01*
X156124341Y-116332000D01*
X148675659Y-116332000D01*
X148655063Y-116096592D01*
X148593903Y-115868337D01*
X148494035Y-115654171D01*
X148488425Y-115646158D01*
X148358494Y-115460597D01*
X148191402Y-115293506D01*
X148191395Y-115293501D01*
X147997834Y-115157967D01*
X147997830Y-115157965D01*
X147997828Y-115157964D01*
X147783663Y-115058097D01*
X147783659Y-115058096D01*
X147783655Y-115058094D01*
X147555413Y-114996938D01*
X147555403Y-114996936D01*
X147320001Y-114976341D01*
X147319999Y-114976341D01*
X147084596Y-114996936D01*
X147084586Y-114996938D01*
X146856344Y-115058094D01*
X146856335Y-115058098D01*
X146642171Y-115157964D01*
X146642169Y-115157965D01*
X146448597Y-115293505D01*
X146281505Y-115460597D01*
X146151575Y-115646158D01*
X146096998Y-115689783D01*
X146027500Y-115696977D01*
X145965145Y-115665454D01*
X145948425Y-115646158D01*
X145818494Y-115460597D01*
X145651402Y-115293506D01*
X145651395Y-115293501D01*
X145457834Y-115157967D01*
X145457830Y-115157965D01*
X145457828Y-115157964D01*
X145243663Y-115058097D01*
X145243659Y-115058096D01*
X145243655Y-115058094D01*
X145015413Y-114996938D01*
X145015403Y-114996936D01*
X144780001Y-114976341D01*
X144779999Y-114976341D01*
X144544596Y-114996936D01*
X144544586Y-114996938D01*
X144316344Y-115058094D01*
X144316335Y-115058098D01*
X144102171Y-115157964D01*
X144102169Y-115157965D01*
X143908597Y-115293505D01*
X143741505Y-115460597D01*
X143611575Y-115646158D01*
X143556998Y-115689783D01*
X143487500Y-115696977D01*
X143425145Y-115665454D01*
X143408425Y-115646158D01*
X143278494Y-115460597D01*
X143111402Y-115293506D01*
X143111395Y-115293501D01*
X142917834Y-115157967D01*
X142917830Y-115157965D01*
X142917828Y-115157964D01*
X142703663Y-115058097D01*
X142703659Y-115058096D01*
X142703655Y-115058094D01*
X142475413Y-114996938D01*
X142475403Y-114996936D01*
X142240001Y-114976341D01*
X142239999Y-114976341D01*
X142004596Y-114996936D01*
X142004586Y-114996938D01*
X141776344Y-115058094D01*
X141776335Y-115058098D01*
X141562171Y-115157964D01*
X141562169Y-115157965D01*
X141368597Y-115293505D01*
X141201505Y-115460597D01*
X141065965Y-115654169D01*
X141065964Y-115654171D01*
X140966098Y-115868335D01*
X140966094Y-115868344D01*
X140904938Y-116096586D01*
X140904936Y-116096596D01*
X140884341Y-116331999D01*
X140884341Y-116332000D01*
X136144000Y-116332000D01*
X136144000Y-112500000D01*
X141394540Y-112500000D01*
X141414326Y-112688256D01*
X141414327Y-112688259D01*
X141472818Y-112868277D01*
X141472821Y-112868284D01*
X141567467Y-113032216D01*
X141669185Y-113145185D01*
X141694129Y-113172888D01*
X141847265Y-113284148D01*
X141847270Y-113284151D01*
X142020192Y-113361142D01*
X142020197Y-113361144D01*
X142205354Y-113400500D01*
X142205355Y-113400500D01*
X142394644Y-113400500D01*
X142394646Y-113400500D01*
X142579803Y-113361144D01*
X142752730Y-113284151D01*
X142905871Y-113172888D01*
X142908788Y-113169647D01*
X142911600Y-113166526D01*
X142971087Y-113129879D01*
X143003748Y-113125500D01*
X162796252Y-113125500D01*
X162863291Y-113145185D01*
X162888400Y-113166526D01*
X162894126Y-113172885D01*
X162894130Y-113172889D01*
X163047265Y-113284148D01*
X163047270Y-113284151D01*
X163220192Y-113361142D01*
X163220197Y-113361144D01*
X163405354Y-113400500D01*
X163405355Y-113400500D01*
X163594644Y-113400500D01*
X163594646Y-113400500D01*
X163779803Y-113361144D01*
X163952730Y-113284151D01*
X164105871Y-113172888D01*
X164232533Y-113032216D01*
X164327179Y-112868284D01*
X164385674Y-112688256D01*
X164405460Y-112500000D01*
X164385674Y-112311744D01*
X164327179Y-112131716D01*
X164232533Y-111967784D01*
X164105871Y-111827112D01*
X164105870Y-111827111D01*
X163952734Y-111715851D01*
X163952729Y-111715848D01*
X163779807Y-111638857D01*
X163779802Y-111638855D01*
X163634001Y-111607865D01*
X163594646Y-111599500D01*
X163405354Y-111599500D01*
X163372897Y-111606398D01*
X163220197Y-111638855D01*
X163220192Y-111638857D01*
X163047270Y-111715848D01*
X163047265Y-111715851D01*
X162894130Y-111827110D01*
X162894126Y-111827114D01*
X162888400Y-111833474D01*
X162828913Y-111870121D01*
X162796252Y-111874500D01*
X143003748Y-111874500D01*
X142936709Y-111854815D01*
X142911600Y-111833474D01*
X142905873Y-111827114D01*
X142905869Y-111827110D01*
X142752734Y-111715851D01*
X142752729Y-111715848D01*
X142579807Y-111638857D01*
X142579802Y-111638855D01*
X142434001Y-111607865D01*
X142394646Y-111599500D01*
X142205354Y-111599500D01*
X142172897Y-111606398D01*
X142020197Y-111638855D01*
X142020192Y-111638857D01*
X141847270Y-111715848D01*
X141847265Y-111715851D01*
X141694129Y-111827111D01*
X141567466Y-111967785D01*
X141472821Y-112131715D01*
X141472818Y-112131722D01*
X141414327Y-112311740D01*
X141414326Y-112311744D01*
X141394540Y-112500000D01*
X136144000Y-112500000D01*
X136144000Y-106730936D01*
X138970631Y-106730936D01*
X139001442Y-106932063D01*
X139001445Y-106932075D01*
X139072111Y-107122881D01*
X139072113Y-107122884D01*
X139072114Y-107122887D01*
X139110276Y-107184113D01*
X139179745Y-107295567D01*
X139179747Y-107295569D01*
X139179748Y-107295571D01*
X139319941Y-107443053D01*
X139448344Y-107532424D01*
X139486949Y-107559294D01*
X139486950Y-107559294D01*
X139486951Y-107559295D01*
X139673942Y-107639540D01*
X139873259Y-107680500D01*
X140025743Y-107680500D01*
X140177439Y-107665074D01*
X140371579Y-107604162D01*
X140371580Y-107604161D01*
X140371588Y-107604159D01*
X140549502Y-107505409D01*
X140703895Y-107372866D01*
X140828448Y-107211958D01*
X140918060Y-107029271D01*
X140969063Y-106832285D01*
X140974203Y-106730936D01*
X145970631Y-106730936D01*
X146001442Y-106932063D01*
X146001445Y-106932075D01*
X146072111Y-107122881D01*
X146072113Y-107122884D01*
X146072114Y-107122887D01*
X146110276Y-107184113D01*
X146179745Y-107295567D01*
X146179747Y-107295569D01*
X146179748Y-107295571D01*
X146319941Y-107443053D01*
X146448344Y-107532424D01*
X146486949Y-107559294D01*
X146486950Y-107559294D01*
X146486951Y-107559295D01*
X146673942Y-107639540D01*
X146873259Y-107680500D01*
X147025743Y-107680500D01*
X147177439Y-107665074D01*
X147371579Y-107604162D01*
X147371580Y-107604161D01*
X147371588Y-107604159D01*
X147549502Y-107505409D01*
X147691177Y-107383784D01*
X147754864Y-107355052D01*
X147823976Y-107365314D01*
X147876569Y-107411311D01*
X147895945Y-107478440D01*
X147889366Y-107517727D01*
X147848395Y-107638429D01*
X147845288Y-107645931D01*
X147759646Y-107819595D01*
X147755587Y-107826626D01*
X147648009Y-107987629D01*
X147643067Y-107994070D01*
X147514147Y-108141074D01*
X147511373Y-108144035D01*
X147459000Y-108196408D01*
X147458998Y-108196411D01*
X147372228Y-108283181D01*
X147310905Y-108316666D01*
X147284547Y-108319500D01*
X147225354Y-108319500D01*
X147192897Y-108326398D01*
X147040197Y-108358855D01*
X147040192Y-108358857D01*
X146867270Y-108435848D01*
X146867265Y-108435851D01*
X146714129Y-108547111D01*
X146587466Y-108687785D01*
X146492821Y-108851715D01*
X146492818Y-108851722D01*
X146435769Y-109027303D01*
X146434326Y-109031744D01*
X146414540Y-109220000D01*
X146434326Y-109408256D01*
X146434327Y-109408259D01*
X146492818Y-109588277D01*
X146492821Y-109588284D01*
X146587467Y-109752216D01*
X146714129Y-109892887D01*
X146714129Y-109892888D01*
X146867265Y-110004148D01*
X146867270Y-110004151D01*
X147040192Y-110081142D01*
X147040197Y-110081144D01*
X147225354Y-110120500D01*
X147225355Y-110120500D01*
X147414644Y-110120500D01*
X147414646Y-110120500D01*
X147599803Y-110081144D01*
X147772730Y-110004151D01*
X147925871Y-109892888D01*
X148052533Y-109752216D01*
X148147179Y-109588284D01*
X148205674Y-109408256D01*
X148223321Y-109240345D01*
X148249905Y-109175732D01*
X148258952Y-109165636D01*
X148333380Y-109091209D01*
X148333385Y-109091205D01*
X148343589Y-109081000D01*
X148343591Y-109081000D01*
X148360968Y-109063622D01*
X148361000Y-109063604D01*
X148397302Y-109027302D01*
X148397303Y-109027303D01*
X148494345Y-108930261D01*
X148668470Y-108718088D01*
X148820960Y-108489869D01*
X148950346Y-108247802D01*
X149055382Y-107994219D01*
X149135056Y-107731561D01*
X149188601Y-107462359D01*
X149215502Y-107189204D01*
X149215500Y-107051966D01*
X149215500Y-107014801D01*
X149215500Y-106680000D01*
X155304540Y-106680000D01*
X155324326Y-106868256D01*
X155324327Y-106868259D01*
X155382818Y-107048277D01*
X155382821Y-107048284D01*
X155477467Y-107212216D01*
X155604128Y-107352888D01*
X155604129Y-107352888D01*
X155757265Y-107464148D01*
X155757270Y-107464151D01*
X155930192Y-107541142D01*
X155930197Y-107541144D01*
X156115354Y-107580500D01*
X156115355Y-107580500D01*
X156304644Y-107580500D01*
X156304646Y-107580500D01*
X156489803Y-107541144D01*
X156662730Y-107464151D01*
X156815871Y-107352888D01*
X156942533Y-107212216D01*
X156956683Y-107187706D01*
X157007249Y-107139490D01*
X157075856Y-107126266D01*
X157140721Y-107152233D01*
X157169303Y-107184113D01*
X157177642Y-107197492D01*
X157229756Y-107281101D01*
X157369949Y-107428583D01*
X157480330Y-107505410D01*
X157536957Y-107544824D01*
X157536958Y-107544824D01*
X157536959Y-107544825D01*
X157723950Y-107625070D01*
X157923267Y-107666030D01*
X158075751Y-107666030D01*
X158227447Y-107650604D01*
X158421587Y-107589692D01*
X158421588Y-107589691D01*
X158421596Y-107589689D01*
X158599510Y-107490939D01*
X158753903Y-107358396D01*
X158878456Y-107197488D01*
X158968068Y-107014801D01*
X159019071Y-106817815D01*
X159026060Y-106680000D01*
X161654540Y-106680000D01*
X161674326Y-106868256D01*
X161674327Y-106868259D01*
X161732818Y-107048277D01*
X161732821Y-107048284D01*
X161827467Y-107212216D01*
X161954129Y-107352888D01*
X162107265Y-107464148D01*
X162107270Y-107464151D01*
X162280192Y-107541142D01*
X162280197Y-107541144D01*
X162465354Y-107580500D01*
X162465355Y-107580500D01*
X162654644Y-107580500D01*
X162654646Y-107580500D01*
X162839803Y-107541144D01*
X163012730Y-107464151D01*
X163165871Y-107352888D01*
X163292533Y-107212216D01*
X163387179Y-107048284D01*
X163445674Y-106868256D01*
X163461627Y-106716466D01*
X164020639Y-106716466D01*
X164051450Y-106917593D01*
X164051453Y-106917605D01*
X164122119Y-107108411D01*
X164122121Y-107108414D01*
X164122122Y-107108417D01*
X164141490Y-107139490D01*
X164229753Y-107281097D01*
X164229755Y-107281099D01*
X164229756Y-107281101D01*
X164369949Y-107428583D01*
X164480330Y-107505410D01*
X164536957Y-107544824D01*
X164536958Y-107544824D01*
X164536959Y-107544825D01*
X164723950Y-107625070D01*
X164923267Y-107666030D01*
X165075751Y-107666030D01*
X165227447Y-107650604D01*
X165421587Y-107589692D01*
X165421588Y-107589691D01*
X165421596Y-107589689D01*
X165599510Y-107490939D01*
X165753903Y-107358396D01*
X165878456Y-107197488D01*
X165968068Y-107014801D01*
X166019071Y-106817815D01*
X166029377Y-106614594D01*
X165998564Y-106413459D01*
X165927894Y-106222643D01*
X165820260Y-106049959D01*
X165740432Y-105965981D01*
X165680069Y-105902479D01*
X165680068Y-105902478D01*
X165680067Y-105902477D01*
X165533847Y-105800705D01*
X165513058Y-105786235D01*
X165326064Y-105705989D01*
X165126749Y-105665030D01*
X164974266Y-105665030D01*
X164974265Y-105665030D01*
X164822568Y-105680455D01*
X164628428Y-105741367D01*
X164628413Y-105741374D01*
X164450508Y-105840119D01*
X164450503Y-105840122D01*
X164296114Y-105972662D01*
X164296112Y-105972664D01*
X164171562Y-106133567D01*
X164171561Y-106133570D01*
X164081948Y-106316258D01*
X164030945Y-106513244D01*
X164020639Y-106716466D01*
X163461627Y-106716466D01*
X163465460Y-106680000D01*
X163445674Y-106491744D01*
X163387179Y-106311716D01*
X163292533Y-106147784D01*
X163291755Y-106146920D01*
X163217350Y-106064284D01*
X163187120Y-106001292D01*
X163185500Y-105981312D01*
X163185500Y-103568687D01*
X163205185Y-103501648D01*
X163217350Y-103485715D01*
X163235891Y-103465122D01*
X163292533Y-103402216D01*
X163387179Y-103238284D01*
X163445674Y-103058256D01*
X163465460Y-102870000D01*
X163445674Y-102681744D01*
X163387179Y-102501716D01*
X163292533Y-102337784D01*
X163165871Y-102197112D01*
X163165870Y-102197111D01*
X163012734Y-102085851D01*
X163012729Y-102085848D01*
X162839807Y-102008857D01*
X162839802Y-102008855D01*
X162694001Y-101977865D01*
X162654646Y-101969500D01*
X162465354Y-101969500D01*
X162432897Y-101976398D01*
X162280197Y-102008855D01*
X162280192Y-102008857D01*
X162107270Y-102085848D01*
X162107265Y-102085851D01*
X161954129Y-102197111D01*
X161827466Y-102337785D01*
X161732821Y-102501715D01*
X161732818Y-102501722D01*
X161674327Y-102681740D01*
X161674326Y-102681744D01*
X161654540Y-102870000D01*
X161674326Y-103058256D01*
X161674327Y-103058259D01*
X161732818Y-103238277D01*
X161732821Y-103238284D01*
X161827465Y-103402214D01*
X161827467Y-103402216D01*
X161902648Y-103485713D01*
X161932879Y-103548704D01*
X161934499Y-103568685D01*
X161934499Y-105981312D01*
X161914814Y-106048351D01*
X161902649Y-106064284D01*
X161827470Y-106147778D01*
X161827465Y-106147785D01*
X161732821Y-106311715D01*
X161732818Y-106311722D01*
X161674327Y-106491740D01*
X161674326Y-106491744D01*
X161654540Y-106680000D01*
X159026060Y-106680000D01*
X159029377Y-106614594D01*
X158998564Y-106413459D01*
X158927894Y-106222643D01*
X158820260Y-106049959D01*
X158740432Y-105965981D01*
X158680069Y-105902479D01*
X158680068Y-105902478D01*
X158680067Y-105902477D01*
X158533847Y-105800705D01*
X158513058Y-105786235D01*
X158326064Y-105705989D01*
X158126749Y-105665030D01*
X157974266Y-105665030D01*
X157974265Y-105665030D01*
X157822568Y-105680455D01*
X157628428Y-105741367D01*
X157628413Y-105741374D01*
X157450508Y-105840119D01*
X157450503Y-105840122D01*
X157296114Y-105972662D01*
X157296112Y-105972664D01*
X157171562Y-106133567D01*
X157171559Y-106133572D01*
X157165012Y-106146920D01*
X157117813Y-106198438D01*
X157050254Y-106216260D01*
X156983785Y-106194727D01*
X156946297Y-106154304D01*
X156942682Y-106148042D01*
X156942533Y-106147784D01*
X156872311Y-106069795D01*
X156842082Y-106006805D01*
X156840844Y-105977095D01*
X156845040Y-105923779D01*
X156845907Y-105912759D01*
X156848951Y-105893544D01*
X156858304Y-105854591D01*
X156877641Y-105774046D01*
X156883653Y-105755546D01*
X156898186Y-105720459D01*
X156930681Y-105642009D01*
X156939505Y-105624688D01*
X157003728Y-105519889D01*
X157015159Y-105504158D01*
X157095580Y-105410000D01*
X157099799Y-105405059D01*
X157103102Y-105401487D01*
X157133940Y-105370650D01*
X157133939Y-105370650D01*
X157155007Y-105349584D01*
X157155008Y-105349582D01*
X157162066Y-105342524D01*
X157162072Y-105342516D01*
X157452188Y-105052399D01*
X157473276Y-105031313D01*
X157473275Y-105031312D01*
X157509541Y-104995050D01*
X157509595Y-104994984D01*
X157558988Y-104945593D01*
X157710150Y-104756047D01*
X157839138Y-104550767D01*
X157944331Y-104332336D01*
X158024406Y-104103500D01*
X158078355Y-103867137D01*
X158105500Y-103626221D01*
X158105500Y-103568686D01*
X158125185Y-103501648D01*
X158137350Y-103485715D01*
X158155891Y-103465122D01*
X158212533Y-103402216D01*
X158307179Y-103238284D01*
X158365674Y-103058256D01*
X158385460Y-102870000D01*
X158365674Y-102681744D01*
X158307179Y-102501716D01*
X158212533Y-102337784D01*
X158085871Y-102197112D01*
X158085870Y-102197111D01*
X157932734Y-102085851D01*
X157932729Y-102085848D01*
X157759807Y-102008857D01*
X157759802Y-102008855D01*
X157614001Y-101977865D01*
X157574646Y-101969500D01*
X157385354Y-101969500D01*
X157352897Y-101976398D01*
X157200197Y-102008855D01*
X157200192Y-102008857D01*
X157027270Y-102085848D01*
X157027265Y-102085851D01*
X156874129Y-102197111D01*
X156747466Y-102337785D01*
X156652821Y-102501715D01*
X156652818Y-102501722D01*
X156594327Y-102681740D01*
X156594326Y-102681744D01*
X156574540Y-102870000D01*
X156594326Y-103058256D01*
X156594327Y-103058259D01*
X156652818Y-103238277D01*
X156652821Y-103238284D01*
X156747467Y-103402216D01*
X156817274Y-103479745D01*
X156817687Y-103480203D01*
X156847917Y-103543194D01*
X156849155Y-103572904D01*
X156844092Y-103637236D01*
X156841048Y-103656455D01*
X156812359Y-103775949D01*
X156806346Y-103794454D01*
X156759319Y-103907987D01*
X156750485Y-103925325D01*
X156686280Y-104030096D01*
X156674843Y-104045837D01*
X156590221Y-104144915D01*
X156586915Y-104148491D01*
X156533750Y-104201656D01*
X156533732Y-104201675D01*
X156187671Y-104547735D01*
X156187477Y-104547940D01*
X156131009Y-104604408D01*
X155979855Y-104793945D01*
X155979848Y-104793955D01*
X155850861Y-104999233D01*
X155745669Y-105217664D01*
X155745668Y-105217666D01*
X155665593Y-105446502D01*
X155611645Y-105682863D01*
X155611643Y-105682875D01*
X155584500Y-105923774D01*
X155584500Y-105981312D01*
X155564815Y-106048351D01*
X155552650Y-106064284D01*
X155477466Y-106147784D01*
X155382821Y-106311715D01*
X155382818Y-106311722D01*
X155324327Y-106491740D01*
X155324326Y-106491744D01*
X155304540Y-106680000D01*
X149215500Y-106680000D01*
X149215500Y-106108687D01*
X149235185Y-106041648D01*
X149247350Y-106025715D01*
X149291127Y-105977095D01*
X149322533Y-105942216D01*
X149417179Y-105778284D01*
X149475674Y-105598256D01*
X149495460Y-105410000D01*
X149475674Y-105221744D01*
X149417179Y-105041716D01*
X149322533Y-104877784D01*
X149195871Y-104737112D01*
X149195870Y-104737111D01*
X149042734Y-104625851D01*
X149042729Y-104625848D01*
X148869807Y-104548857D01*
X148869802Y-104548855D01*
X148724000Y-104517865D01*
X148684646Y-104509500D01*
X148495354Y-104509500D01*
X148462897Y-104516398D01*
X148310197Y-104548855D01*
X148310192Y-104548857D01*
X148137270Y-104625848D01*
X148137265Y-104625851D01*
X147984129Y-104737111D01*
X147857466Y-104877785D01*
X147762821Y-105041715D01*
X147762818Y-105041722D01*
X147705651Y-105217665D01*
X147704326Y-105221744D01*
X147684540Y-105410000D01*
X147704326Y-105598256D01*
X147704327Y-105598259D01*
X147745853Y-105726063D01*
X147747848Y-105795904D01*
X147711768Y-105855737D01*
X147649067Y-105886565D01*
X147579652Y-105878600D01*
X147557085Y-105866156D01*
X147540466Y-105854589D01*
X147519677Y-105840119D01*
X147463050Y-105800705D01*
X147276056Y-105720459D01*
X147076741Y-105679500D01*
X146924258Y-105679500D01*
X146924257Y-105679500D01*
X146772560Y-105694925D01*
X146578420Y-105755837D01*
X146578405Y-105755844D01*
X146400500Y-105854589D01*
X146400495Y-105854592D01*
X146246106Y-105987132D01*
X146246104Y-105987134D01*
X146121554Y-106148037D01*
X146121553Y-106148040D01*
X146031940Y-106330728D01*
X145980937Y-106527714D01*
X145970631Y-106730936D01*
X140974203Y-106730936D01*
X140979369Y-106629064D01*
X140948556Y-106427929D01*
X140877886Y-106237113D01*
X140770252Y-106064429D01*
X140630059Y-105916947D01*
X140519677Y-105840119D01*
X140463050Y-105800705D01*
X140276056Y-105720459D01*
X140076741Y-105679500D01*
X139924258Y-105679500D01*
X139924257Y-105679500D01*
X139772560Y-105694925D01*
X139578420Y-105755837D01*
X139578405Y-105755844D01*
X139400500Y-105854589D01*
X139400495Y-105854592D01*
X139246106Y-105987132D01*
X139246104Y-105987134D01*
X139121554Y-106148037D01*
X139121553Y-106148040D01*
X139031940Y-106330728D01*
X138980937Y-106527714D01*
X138970631Y-106730936D01*
X136144000Y-106730936D01*
X136144000Y-100330000D01*
X141334540Y-100330000D01*
X141354326Y-100518256D01*
X141354327Y-100518259D01*
X141412818Y-100698277D01*
X141412821Y-100698284D01*
X141507467Y-100862216D01*
X141634129Y-101002888D01*
X141787265Y-101114148D01*
X141787270Y-101114151D01*
X141960192Y-101191142D01*
X141960197Y-101191144D01*
X142145354Y-101230500D01*
X142145355Y-101230500D01*
X142334644Y-101230500D01*
X142334646Y-101230500D01*
X142519803Y-101191144D01*
X142692730Y-101114151D01*
X142845871Y-101002888D01*
X142972533Y-100862216D01*
X143067179Y-100698284D01*
X143125674Y-100518256D01*
X143145460Y-100330000D01*
X143125674Y-100141744D01*
X143067179Y-99961716D01*
X142972533Y-99797784D01*
X142897350Y-99714284D01*
X142867120Y-99651292D01*
X142865500Y-99631312D01*
X142865500Y-97218687D01*
X142885185Y-97151648D01*
X142897350Y-97135715D01*
X142918740Y-97111959D01*
X142972533Y-97052216D01*
X143067179Y-96888284D01*
X143125674Y-96708256D01*
X143133800Y-96630936D01*
X145965631Y-96630936D01*
X145996442Y-96832063D01*
X145996445Y-96832075D01*
X146067111Y-97022881D01*
X146067115Y-97022888D01*
X146174745Y-97195567D01*
X146174747Y-97195569D01*
X146174748Y-97195571D01*
X146314941Y-97343053D01*
X146443344Y-97432424D01*
X146481949Y-97459294D01*
X146481950Y-97459294D01*
X146481951Y-97459295D01*
X146668942Y-97539540D01*
X146868259Y-97580500D01*
X147020743Y-97580500D01*
X147172439Y-97565074D01*
X147366579Y-97504162D01*
X147366580Y-97504161D01*
X147366588Y-97504159D01*
X147544502Y-97405409D01*
X147698895Y-97272866D01*
X147823448Y-97111958D01*
X147913060Y-96929271D01*
X147964063Y-96732285D01*
X147969710Y-96620936D01*
X157025631Y-96620936D01*
X157056442Y-96822063D01*
X157056445Y-96822075D01*
X157127111Y-97012881D01*
X157127113Y-97012884D01*
X157127114Y-97012887D01*
X157133347Y-97022887D01*
X157234745Y-97185567D01*
X157234747Y-97185569D01*
X157234748Y-97185571D01*
X157374941Y-97333053D01*
X157503344Y-97422424D01*
X157541949Y-97449294D01*
X157541950Y-97449294D01*
X157541951Y-97449295D01*
X157728942Y-97529540D01*
X157928259Y-97570500D01*
X158080743Y-97570500D01*
X158232439Y-97555074D01*
X158426579Y-97494162D01*
X158426580Y-97494161D01*
X158426588Y-97494159D01*
X158604502Y-97395409D01*
X158758895Y-97262866D01*
X158883448Y-97101958D01*
X158973060Y-96919271D01*
X159024063Y-96722285D01*
X159029203Y-96620936D01*
X164025631Y-96620936D01*
X164056442Y-96822063D01*
X164056445Y-96822075D01*
X164127111Y-97012881D01*
X164127113Y-97012884D01*
X164127114Y-97012887D01*
X164133347Y-97022887D01*
X164234745Y-97185567D01*
X164234747Y-97185569D01*
X164234748Y-97185571D01*
X164374941Y-97333053D01*
X164503344Y-97422424D01*
X164541949Y-97449294D01*
X164541950Y-97449294D01*
X164541951Y-97449295D01*
X164728942Y-97529540D01*
X164928259Y-97570500D01*
X165080743Y-97570500D01*
X165232439Y-97555074D01*
X165426579Y-97494162D01*
X165426580Y-97494161D01*
X165426588Y-97494159D01*
X165604502Y-97395409D01*
X165758895Y-97262866D01*
X165883448Y-97101958D01*
X165973060Y-96919271D01*
X166024063Y-96722285D01*
X166034369Y-96519064D01*
X166003556Y-96317929D01*
X165941548Y-96150500D01*
X165932888Y-96127118D01*
X165932887Y-96127117D01*
X165932886Y-96127113D01*
X165825252Y-95954429D01*
X165685059Y-95806947D01*
X165582908Y-95735848D01*
X165518050Y-95690705D01*
X165331056Y-95610459D01*
X165131741Y-95569500D01*
X164979258Y-95569500D01*
X164979257Y-95569500D01*
X164827560Y-95584925D01*
X164633420Y-95645837D01*
X164633405Y-95645844D01*
X164455500Y-95744589D01*
X164455495Y-95744592D01*
X164301106Y-95877132D01*
X164301104Y-95877134D01*
X164176554Y-96038037D01*
X164176553Y-96038040D01*
X164086940Y-96220728D01*
X164035937Y-96417714D01*
X164025631Y-96620936D01*
X159029203Y-96620936D01*
X159034369Y-96519064D01*
X159003556Y-96317929D01*
X158941548Y-96150500D01*
X158932888Y-96127118D01*
X158932887Y-96127117D01*
X158932886Y-96127113D01*
X158825252Y-95954429D01*
X158685059Y-95806947D01*
X158582908Y-95735848D01*
X158518050Y-95690705D01*
X158331056Y-95610459D01*
X158131741Y-95569500D01*
X157979258Y-95569500D01*
X157979257Y-95569500D01*
X157827560Y-95584925D01*
X157633420Y-95645837D01*
X157633405Y-95645844D01*
X157455500Y-95744589D01*
X157455495Y-95744592D01*
X157301106Y-95877132D01*
X157301104Y-95877134D01*
X157176554Y-96038037D01*
X157176553Y-96038040D01*
X157086940Y-96220728D01*
X157035937Y-96417714D01*
X157025631Y-96620936D01*
X147969710Y-96620936D01*
X147974369Y-96529064D01*
X147943556Y-96327929D01*
X147872886Y-96137113D01*
X147872883Y-96137109D01*
X147870118Y-96131472D01*
X147871320Y-96130882D01*
X147854437Y-96070309D01*
X147875043Y-96003547D01*
X147928471Y-95958523D01*
X147997760Y-95949533D01*
X148051310Y-95971698D01*
X148137265Y-96034148D01*
X148137270Y-96034151D01*
X148310192Y-96111142D01*
X148310197Y-96111144D01*
X148495354Y-96150500D01*
X148495355Y-96150500D01*
X148684644Y-96150500D01*
X148684646Y-96150500D01*
X148869803Y-96111144D01*
X149042730Y-96034151D01*
X149195871Y-95922888D01*
X149198788Y-95919647D01*
X149201600Y-95916526D01*
X149261087Y-95879879D01*
X149293748Y-95875500D01*
X155506252Y-95875500D01*
X155573291Y-95895185D01*
X155598400Y-95916526D01*
X155604126Y-95922885D01*
X155604130Y-95922889D01*
X155757265Y-96034148D01*
X155757270Y-96034151D01*
X155930192Y-96111142D01*
X155930197Y-96111144D01*
X156115354Y-96150500D01*
X156115355Y-96150500D01*
X156304644Y-96150500D01*
X156304646Y-96150500D01*
X156489803Y-96111144D01*
X156662730Y-96034151D01*
X156815871Y-95922888D01*
X156942533Y-95782216D01*
X157037179Y-95618284D01*
X157095674Y-95438256D01*
X157115460Y-95250000D01*
X157095674Y-95061744D01*
X157037179Y-94881716D01*
X156942533Y-94717784D01*
X156815871Y-94577112D01*
X156815870Y-94577111D01*
X156662734Y-94465851D01*
X156662729Y-94465848D01*
X156489807Y-94388857D01*
X156489802Y-94388855D01*
X156344000Y-94357865D01*
X156304646Y-94349500D01*
X156115354Y-94349500D01*
X156082897Y-94356398D01*
X155930197Y-94388855D01*
X155930192Y-94388857D01*
X155757270Y-94465848D01*
X155757265Y-94465851D01*
X155604130Y-94577110D01*
X155604126Y-94577114D01*
X155598400Y-94583474D01*
X155538913Y-94620121D01*
X155506252Y-94624500D01*
X149293748Y-94624500D01*
X149226709Y-94604815D01*
X149201600Y-94583474D01*
X149195873Y-94577114D01*
X149195869Y-94577110D01*
X149042734Y-94465851D01*
X149042729Y-94465848D01*
X148869807Y-94388857D01*
X148869802Y-94388855D01*
X148724001Y-94357865D01*
X148684646Y-94349500D01*
X148495354Y-94349500D01*
X148462897Y-94356398D01*
X148310197Y-94388855D01*
X148310192Y-94388857D01*
X148137270Y-94465848D01*
X148137265Y-94465851D01*
X147984129Y-94577111D01*
X147857466Y-94717785D01*
X147762821Y-94881715D01*
X147762818Y-94881722D01*
X147704327Y-95061740D01*
X147704326Y-95061744D01*
X147684540Y-95250000D01*
X147704326Y-95438256D01*
X147704327Y-95438259D01*
X147762818Y-95618277D01*
X147762821Y-95618284D01*
X147769315Y-95629532D01*
X147785785Y-95697433D01*
X147762931Y-95763459D01*
X147708009Y-95806648D01*
X147638455Y-95813288D01*
X147591091Y-95793305D01*
X147458049Y-95700705D01*
X147450424Y-95697433D01*
X147271056Y-95620459D01*
X147071741Y-95579500D01*
X146919258Y-95579500D01*
X146919257Y-95579500D01*
X146767560Y-95594925D01*
X146573420Y-95655837D01*
X146573405Y-95655844D01*
X146395500Y-95754589D01*
X146395495Y-95754592D01*
X146241106Y-95887132D01*
X146241104Y-95887134D01*
X146116554Y-96048037D01*
X146116553Y-96048040D01*
X146026940Y-96230728D01*
X145975937Y-96427714D01*
X145965631Y-96630936D01*
X143133800Y-96630936D01*
X143145460Y-96520000D01*
X143125674Y-96331744D01*
X143067179Y-96151716D01*
X142972533Y-95987784D01*
X142845871Y-95847112D01*
X142845870Y-95847111D01*
X142692734Y-95735851D01*
X142692729Y-95735848D01*
X142519807Y-95658857D01*
X142519802Y-95658855D01*
X142339162Y-95620460D01*
X142334646Y-95619500D01*
X142145354Y-95619500D01*
X142140838Y-95620460D01*
X141960197Y-95658855D01*
X141960192Y-95658857D01*
X141787270Y-95735848D01*
X141787265Y-95735851D01*
X141634129Y-95847111D01*
X141507466Y-95987785D01*
X141412821Y-96151715D01*
X141412818Y-96151722D01*
X141355563Y-96327936D01*
X141354326Y-96331744D01*
X141334540Y-96520000D01*
X141354326Y-96708256D01*
X141354327Y-96708259D01*
X141412818Y-96888277D01*
X141412821Y-96888284D01*
X141507467Y-97052216D01*
X141550772Y-97100310D01*
X141582650Y-97135715D01*
X141612880Y-97198706D01*
X141614500Y-97218687D01*
X141614500Y-99631312D01*
X141594815Y-99698351D01*
X141582650Y-99714284D01*
X141507466Y-99797784D01*
X141412821Y-99961715D01*
X141412818Y-99961722D01*
X141354327Y-100141740D01*
X141354326Y-100141744D01*
X141334540Y-100330000D01*
X136144000Y-100330000D01*
X136144000Y-96630936D01*
X138965631Y-96630936D01*
X138996442Y-96832063D01*
X138996445Y-96832075D01*
X139067111Y-97022881D01*
X139067115Y-97022888D01*
X139174745Y-97195567D01*
X139174747Y-97195569D01*
X139174748Y-97195571D01*
X139314941Y-97343053D01*
X139443344Y-97432424D01*
X139481949Y-97459294D01*
X139481950Y-97459294D01*
X139481951Y-97459295D01*
X139668942Y-97539540D01*
X139868259Y-97580500D01*
X140020743Y-97580500D01*
X140172439Y-97565074D01*
X140366579Y-97504162D01*
X140366580Y-97504161D01*
X140366588Y-97504159D01*
X140544502Y-97405409D01*
X140698895Y-97272866D01*
X140823448Y-97111958D01*
X140913060Y-96929271D01*
X140964063Y-96732285D01*
X140974369Y-96529064D01*
X140943556Y-96327929D01*
X140872886Y-96137113D01*
X140765252Y-95964429D01*
X140625059Y-95816947D01*
X140508542Y-95735849D01*
X140458050Y-95700705D01*
X140271056Y-95620459D01*
X140071741Y-95579500D01*
X139919258Y-95579500D01*
X139919257Y-95579500D01*
X139767560Y-95594925D01*
X139573420Y-95655837D01*
X139573405Y-95655844D01*
X139395500Y-95754589D01*
X139395495Y-95754592D01*
X139241106Y-95887132D01*
X139241104Y-95887134D01*
X139116554Y-96048037D01*
X139116553Y-96048040D01*
X139026940Y-96230728D01*
X138975937Y-96427714D01*
X138965631Y-96630936D01*
X136144000Y-96630936D01*
X136144000Y-91440000D01*
X143874540Y-91440000D01*
X143894326Y-91628256D01*
X143894327Y-91628259D01*
X143952818Y-91808277D01*
X143952821Y-91808284D01*
X144047467Y-91972216D01*
X144149185Y-92085185D01*
X144174129Y-92112888D01*
X144327265Y-92224148D01*
X144327270Y-92224151D01*
X144500192Y-92301142D01*
X144500197Y-92301144D01*
X144685354Y-92340500D01*
X144685355Y-92340500D01*
X144874644Y-92340500D01*
X144874646Y-92340500D01*
X145059803Y-92301144D01*
X145232730Y-92224151D01*
X145385871Y-92112888D01*
X145388788Y-92109647D01*
X145391600Y-92106526D01*
X145451087Y-92069879D01*
X145483748Y-92065500D01*
X159316252Y-92065500D01*
X159383291Y-92085185D01*
X159408400Y-92106526D01*
X159414126Y-92112885D01*
X159414130Y-92112889D01*
X159567265Y-92224148D01*
X159567270Y-92224151D01*
X159740192Y-92301142D01*
X159740197Y-92301144D01*
X159925354Y-92340500D01*
X159925355Y-92340500D01*
X160114644Y-92340500D01*
X160114646Y-92340500D01*
X160299803Y-92301144D01*
X160472730Y-92224151D01*
X160625871Y-92112888D01*
X160752533Y-91972216D01*
X160847179Y-91808284D01*
X160905674Y-91628256D01*
X160925460Y-91440000D01*
X160905674Y-91251744D01*
X160847179Y-91071716D01*
X160752533Y-90907784D01*
X160625871Y-90767112D01*
X160625870Y-90767111D01*
X160472734Y-90655851D01*
X160472729Y-90655848D01*
X160299807Y-90578857D01*
X160299802Y-90578855D01*
X160154000Y-90547865D01*
X160114646Y-90539500D01*
X159925354Y-90539500D01*
X159892897Y-90546398D01*
X159740197Y-90578855D01*
X159740192Y-90578857D01*
X159567270Y-90655848D01*
X159567265Y-90655851D01*
X159414130Y-90767110D01*
X159414126Y-90767114D01*
X159408400Y-90773474D01*
X159348913Y-90810121D01*
X159316252Y-90814500D01*
X145483748Y-90814500D01*
X145416709Y-90794815D01*
X145391600Y-90773474D01*
X145385873Y-90767114D01*
X145385869Y-90767110D01*
X145232734Y-90655851D01*
X145232729Y-90655848D01*
X145059807Y-90578857D01*
X145059802Y-90578855D01*
X144914001Y-90547865D01*
X144874646Y-90539500D01*
X144685354Y-90539500D01*
X144652897Y-90546398D01*
X144500197Y-90578855D01*
X144500192Y-90578857D01*
X144327270Y-90655848D01*
X144327265Y-90655851D01*
X144174129Y-90767111D01*
X144047466Y-90907785D01*
X143952821Y-91071715D01*
X143952818Y-91071722D01*
X143894327Y-91251740D01*
X143894326Y-91251744D01*
X143874540Y-91440000D01*
X136144000Y-91440000D01*
X136144000Y-87830000D01*
X140954341Y-87830000D01*
X140974936Y-88065403D01*
X140974938Y-88065413D01*
X141036094Y-88293655D01*
X141036096Y-88293659D01*
X141036097Y-88293663D01*
X141040000Y-88302032D01*
X141135965Y-88507830D01*
X141135967Y-88507834D01*
X141244281Y-88662521D01*
X141271505Y-88701401D01*
X141438599Y-88868495D01*
X141535384Y-88936264D01*
X141632165Y-89004032D01*
X141632167Y-89004033D01*
X141632170Y-89004035D01*
X141846337Y-89103903D01*
X142074592Y-89165063D01*
X142262918Y-89181539D01*
X142309999Y-89185659D01*
X142310000Y-89185659D01*
X142310001Y-89185659D01*
X142349234Y-89182226D01*
X142545408Y-89165063D01*
X142773663Y-89103903D01*
X142987830Y-89004035D01*
X143181401Y-88868495D01*
X143348495Y-88701401D01*
X143478424Y-88515842D01*
X143533002Y-88472217D01*
X143602500Y-88465023D01*
X143664855Y-88496546D01*
X143681575Y-88515842D01*
X143811500Y-88701395D01*
X143811505Y-88701401D01*
X143978599Y-88868495D01*
X144075384Y-88936265D01*
X144172165Y-89004032D01*
X144172167Y-89004033D01*
X144172170Y-89004035D01*
X144386337Y-89103903D01*
X144614592Y-89165063D01*
X144802918Y-89181539D01*
X144849999Y-89185659D01*
X144850000Y-89185659D01*
X144850001Y-89185659D01*
X144889234Y-89182226D01*
X145085408Y-89165063D01*
X145313663Y-89103903D01*
X145527830Y-89004035D01*
X145721401Y-88868495D01*
X145888495Y-88701401D01*
X146018424Y-88515842D01*
X146073002Y-88472217D01*
X146142500Y-88465023D01*
X146204855Y-88496546D01*
X146221575Y-88515842D01*
X146351500Y-88701395D01*
X146351505Y-88701401D01*
X146518599Y-88868495D01*
X146615384Y-88936265D01*
X146712165Y-89004032D01*
X146712167Y-89004033D01*
X146712170Y-89004035D01*
X146926337Y-89103903D01*
X147154592Y-89165063D01*
X147342918Y-89181539D01*
X147389999Y-89185659D01*
X147390000Y-89185659D01*
X147390001Y-89185659D01*
X147429234Y-89182226D01*
X147625408Y-89165063D01*
X147853663Y-89103903D01*
X148067830Y-89004035D01*
X148261401Y-88868495D01*
X148428495Y-88701401D01*
X148564035Y-88507830D01*
X148663903Y-88293663D01*
X148725063Y-88065408D01*
X148745659Y-87830000D01*
X156514341Y-87830000D01*
X156534936Y-88065403D01*
X156534938Y-88065413D01*
X156596094Y-88293655D01*
X156596096Y-88293659D01*
X156596097Y-88293663D01*
X156600000Y-88302032D01*
X156695965Y-88507830D01*
X156695967Y-88507834D01*
X156804281Y-88662521D01*
X156831505Y-88701401D01*
X156998599Y-88868495D01*
X157095384Y-88936265D01*
X157192165Y-89004032D01*
X157192167Y-89004033D01*
X157192170Y-89004035D01*
X157406337Y-89103903D01*
X157634592Y-89165063D01*
X157822918Y-89181539D01*
X157869999Y-89185659D01*
X157870000Y-89185659D01*
X157870001Y-89185659D01*
X157909234Y-89182226D01*
X158105408Y-89165063D01*
X158333663Y-89103903D01*
X158547830Y-89004035D01*
X158741401Y-88868495D01*
X158908495Y-88701401D01*
X159038424Y-88515842D01*
X159093002Y-88472217D01*
X159162500Y-88465023D01*
X159224855Y-88496546D01*
X159241575Y-88515842D01*
X159371500Y-88701395D01*
X159371505Y-88701401D01*
X159538599Y-88868495D01*
X159635384Y-88936264D01*
X159732165Y-89004032D01*
X159732167Y-89004033D01*
X159732170Y-89004035D01*
X159946337Y-89103903D01*
X160174592Y-89165063D01*
X160362918Y-89181539D01*
X160409999Y-89185659D01*
X160410000Y-89185659D01*
X160410001Y-89185659D01*
X160449234Y-89182226D01*
X160645408Y-89165063D01*
X160873663Y-89103903D01*
X161087830Y-89004035D01*
X161281401Y-88868495D01*
X161448495Y-88701401D01*
X161578424Y-88515842D01*
X161633002Y-88472217D01*
X161702500Y-88465023D01*
X161764855Y-88496546D01*
X161781575Y-88515842D01*
X161911500Y-88701395D01*
X161911505Y-88701401D01*
X162078599Y-88868495D01*
X162175384Y-88936264D01*
X162272165Y-89004032D01*
X162272167Y-89004033D01*
X162272170Y-89004035D01*
X162486337Y-89103903D01*
X162714592Y-89165063D01*
X162902918Y-89181539D01*
X162949999Y-89185659D01*
X162950000Y-89185659D01*
X162950001Y-89185659D01*
X162989234Y-89182226D01*
X163185408Y-89165063D01*
X163413663Y-89103903D01*
X163627830Y-89004035D01*
X163821401Y-88868495D01*
X163988495Y-88701401D01*
X164124035Y-88507830D01*
X164223903Y-88293663D01*
X164285063Y-88065408D01*
X164305659Y-87830000D01*
X164285063Y-87594592D01*
X164223903Y-87366337D01*
X164124035Y-87152171D01*
X164118425Y-87144158D01*
X163988494Y-86958597D01*
X163821402Y-86791506D01*
X163821395Y-86791501D01*
X163627834Y-86655967D01*
X163627830Y-86655965D01*
X163627829Y-86655964D01*
X163413663Y-86556097D01*
X163413659Y-86556096D01*
X163413655Y-86556094D01*
X163185413Y-86494938D01*
X163185403Y-86494936D01*
X162950001Y-86474341D01*
X162949999Y-86474341D01*
X162714596Y-86494936D01*
X162714586Y-86494938D01*
X162486344Y-86556094D01*
X162486335Y-86556098D01*
X162272171Y-86655964D01*
X162272169Y-86655965D01*
X162078597Y-86791505D01*
X161911505Y-86958597D01*
X161781575Y-87144158D01*
X161726998Y-87187783D01*
X161657500Y-87194977D01*
X161595145Y-87163454D01*
X161578425Y-87144158D01*
X161448494Y-86958597D01*
X161281402Y-86791506D01*
X161281395Y-86791501D01*
X161087834Y-86655967D01*
X161087830Y-86655965D01*
X161087829Y-86655964D01*
X160873663Y-86556097D01*
X160873659Y-86556096D01*
X160873655Y-86556094D01*
X160645413Y-86494938D01*
X160645403Y-86494936D01*
X160410001Y-86474341D01*
X160409999Y-86474341D01*
X160174596Y-86494936D01*
X160174586Y-86494938D01*
X159946344Y-86556094D01*
X159946335Y-86556098D01*
X159732171Y-86655964D01*
X159732169Y-86655965D01*
X159538597Y-86791505D01*
X159371505Y-86958597D01*
X159241575Y-87144158D01*
X159186998Y-87187783D01*
X159117500Y-87194977D01*
X159055145Y-87163454D01*
X159038425Y-87144158D01*
X158908494Y-86958597D01*
X158741402Y-86791506D01*
X158741395Y-86791501D01*
X158547834Y-86655967D01*
X158547830Y-86655965D01*
X158547829Y-86655964D01*
X158333663Y-86556097D01*
X158333659Y-86556096D01*
X158333655Y-86556094D01*
X158105413Y-86494938D01*
X158105403Y-86494936D01*
X157870001Y-86474341D01*
X157869999Y-86474341D01*
X157634596Y-86494936D01*
X157634586Y-86494938D01*
X157406344Y-86556094D01*
X157406335Y-86556098D01*
X157192171Y-86655964D01*
X157192169Y-86655965D01*
X156998597Y-86791505D01*
X156831505Y-86958597D01*
X156695965Y-87152169D01*
X156695964Y-87152171D01*
X156596098Y-87366335D01*
X156596094Y-87366344D01*
X156534938Y-87594586D01*
X156534936Y-87594596D01*
X156514341Y-87829999D01*
X156514341Y-87830000D01*
X148745659Y-87830000D01*
X148725063Y-87594592D01*
X148663903Y-87366337D01*
X148564035Y-87152171D01*
X148558425Y-87144158D01*
X148428494Y-86958597D01*
X148261402Y-86791506D01*
X148261395Y-86791501D01*
X148067834Y-86655967D01*
X148067830Y-86655965D01*
X148067829Y-86655964D01*
X147853663Y-86556097D01*
X147853659Y-86556096D01*
X147853655Y-86556094D01*
X147625413Y-86494938D01*
X147625403Y-86494936D01*
X147390001Y-86474341D01*
X147389999Y-86474341D01*
X147154596Y-86494936D01*
X147154586Y-86494938D01*
X146926344Y-86556094D01*
X146926335Y-86556098D01*
X146712171Y-86655964D01*
X146712169Y-86655965D01*
X146518597Y-86791505D01*
X146351505Y-86958597D01*
X146221575Y-87144158D01*
X146166998Y-87187783D01*
X146097500Y-87194977D01*
X146035145Y-87163454D01*
X146018425Y-87144158D01*
X145888494Y-86958597D01*
X145721402Y-86791506D01*
X145721395Y-86791501D01*
X145527834Y-86655967D01*
X145527830Y-86655965D01*
X145527829Y-86655964D01*
X145313663Y-86556097D01*
X145313659Y-86556096D01*
X145313655Y-86556094D01*
X145085413Y-86494938D01*
X145085403Y-86494936D01*
X144850001Y-86474341D01*
X144849999Y-86474341D01*
X144614596Y-86494936D01*
X144614586Y-86494938D01*
X144386344Y-86556094D01*
X144386335Y-86556098D01*
X144172171Y-86655964D01*
X144172169Y-86655965D01*
X143978597Y-86791505D01*
X143811505Y-86958597D01*
X143681575Y-87144158D01*
X143626998Y-87187783D01*
X143557500Y-87194977D01*
X143495145Y-87163454D01*
X143478425Y-87144158D01*
X143348494Y-86958597D01*
X143181402Y-86791506D01*
X143181395Y-86791501D01*
X142987834Y-86655967D01*
X142987830Y-86655965D01*
X142987830Y-86655964D01*
X142773663Y-86556097D01*
X142773659Y-86556096D01*
X142773655Y-86556094D01*
X142545413Y-86494938D01*
X142545403Y-86494936D01*
X142310001Y-86474341D01*
X142309999Y-86474341D01*
X142074596Y-86494936D01*
X142074586Y-86494938D01*
X141846344Y-86556094D01*
X141846335Y-86556098D01*
X141632171Y-86655964D01*
X141632169Y-86655965D01*
X141438597Y-86791505D01*
X141271505Y-86958597D01*
X141135965Y-87152169D01*
X141135964Y-87152171D01*
X141036098Y-87366335D01*
X141036094Y-87366344D01*
X140974938Y-87594586D01*
X140974936Y-87594596D01*
X140954341Y-87829999D01*
X140954341Y-87830000D01*
X136144000Y-87830000D01*
X136144000Y-85722000D01*
X136163685Y-85654961D01*
X136216489Y-85609206D01*
X136268000Y-85598000D01*
X168786000Y-85598000D01*
X168853039Y-85617685D01*
G37*
%TD.AperFunction*%
%TD*%
M02*
